<svg width="48" height="52" viewBox="0 0 48 52" fill="none" xmlns="http://www.w3.org/2000/svg">
<g filter="url(#filter0_d_333_1781)">
<rect x="8.5" y="10" width="25" height="25" rx="4" fill="white" shape-rendering="crispEdges"/>
<path d="M21.0703 28H15.6641V27.2578L17.2578 27.1953C17.3568 27.1901 17.4401 27.1536 17.5078 27.0859C17.5755 27.0182 17.6094 26.9375 17.6094 26.8438V19.5234L15.1562 19.9531V19.2109L18.6094 18.1406H19.2422V26.8438C19.2422 26.9375 19.276 27.0182 19.3438 27.0859C19.4115 27.1536 19.4948 27.1901 19.5938 27.1953L21.0703 27.2578V28ZM27.2603 23.0156C27.2603 23.9375 27.1301 24.7839 26.8697 25.5547C26.6093 26.3203 26.2186 26.9349 25.6978 27.3984C25.177 27.862 24.5233 28.0938 23.7369 28.0938C22.9556 28.0938 22.3046 27.862 21.7838 27.3984C21.2681 26.9349 20.8801 26.3203 20.6197 25.5547C20.3645 24.7839 20.2369 23.9375 20.2369 23.0156C20.2369 22.0938 20.3645 21.2396 20.6197 20.4531C20.8801 19.6667 21.2681 19.0365 21.7838 18.5625C22.3046 18.0833 22.9556 17.8438 23.7369 17.8438C24.5233 17.8438 25.177 18.0833 25.6978 18.5625C26.2186 19.0365 26.6093 19.6667 26.8697 20.4531C27.1301 21.2396 27.2603 22.0938 27.2603 23.0156ZM25.6353 23.0156C25.6353 22.474 25.6067 21.9479 25.5494 21.4375C25.4973 20.9219 25.4009 20.4609 25.2603 20.0547C25.1249 19.6432 24.9322 19.3177 24.6822 19.0781C24.4374 18.8333 24.1223 18.7109 23.7369 18.7109C23.3567 18.7109 23.0416 18.8333 22.7916 19.0781C22.5468 19.3177 22.3567 19.6432 22.2213 20.0547C22.0858 20.4609 21.9895 20.9219 21.9322 21.4375C21.8801 21.9479 21.8541 22.474 21.8541 23.0156C21.8541 23.5573 21.8801 24.0807 21.9322 24.5859C21.9895 25.0859 22.0858 25.5365 22.2213 25.9375C22.3567 26.3333 22.5468 26.6484 22.7916 26.8828C23.0416 27.112 23.3567 27.2266 23.7369 27.2266C24.1223 27.2266 24.4374 27.112 24.6822 26.8828C24.9322 26.6484 25.1249 26.3333 25.2603 25.9375C25.4009 25.5365 25.4973 25.0859 25.5494 24.5859C25.6067 24.0807 25.6353 23.5573 25.6353 23.0156Z" fill="#4440FF"/>
</g>
<defs>
<filter id="filter0_d_333_1781" x="0.727274" y="0.227274" width="46.9091" height="50.9091" filterUnits="userSpaceOnUse" color-interpolation-filters="sRGB">
<feFlood flood-opacity="0" result="BackgroundImageFix"/>
<feColorMatrix in="SourceAlpha" type="matrix" values="0 0 0 0 0 0 0 0 0 0 0 0 0 0 0 0 0 0 127 0" result="hardAlpha"/>
<feOffset dx="3.18182" dy="3.18182"/>
<feGaussianBlur stdDeviation="3.97727"/>
<feComposite in2="hardAlpha" operator="out"/>
<feColorMatrix type="matrix" values="0 0 0 0 0.458333 0 0 0 0 0.437326 0 0 0 0 0.437326 0 0 0 0.06 0"/>
<feBlend mode="normal" in2="BackgroundImageFix" result="effect1_dropShadow_333_1781"/>
<feBlend mode="normal" in="SourceGraphic" in2="effect1_dropShadow_333_1781" result="shape"/>
</filter>
</defs>
</svg>
