<svg width="48" height="52" viewBox="0 0 48 52" fill="none" xmlns="http://www.w3.org/2000/svg">
<g filter="url(#filter0_d_333_1788)">
<rect x="8.5" y="10.5" width="25" height="25" rx="4" fill="white" shape-rendering="crispEdges"/>
<path d="M21.0703 28.5H15.6641V27.7578L17.2578 27.6953C17.3568 27.6901 17.4401 27.6536 17.5078 27.5859C17.5755 27.5182 17.6094 27.4375 17.6094 27.3438V20.0234L15.1562 20.4531V19.7109L18.6094 18.6406H19.2422V27.3438C19.2422 27.4375 19.276 27.5182 19.3438 27.5859C19.4115 27.6536 19.4948 27.6901 19.5938 27.6953L21.0703 27.7578V28.5ZM27.1509 28.5H21.7447V27.7578L23.3384 27.6953C23.4374 27.6901 23.5207 27.6536 23.5884 27.5859C23.6561 27.5182 23.69 27.4375 23.69 27.3438V20.0234L21.2369 20.4531V19.7109L24.69 18.6406H25.3228V27.3438C25.3228 27.4375 25.3567 27.5182 25.4244 27.5859C25.4921 27.6536 25.5754 27.6901 25.6744 27.6953L27.1509 27.7578V28.5Z" fill="#4440FF"/>
</g>
<defs>
<filter id="filter0_d_333_1788" x="0.727274" y="0.727274" width="46.9091" height="50.9091" filterUnits="userSpaceOnUse" color-interpolation-filters="sRGB">
<feFlood flood-opacity="0" result="BackgroundImageFix"/>
<feColorMatrix in="SourceAlpha" type="matrix" values="0 0 0 0 0 0 0 0 0 0 0 0 0 0 0 0 0 0 127 0" result="hardAlpha"/>
<feOffset dx="3.18182" dy="3.18182"/>
<feGaussianBlur stdDeviation="3.97727"/>
<feComposite in2="hardAlpha" operator="out"/>
<feColorMatrix type="matrix" values="0 0 0 0 0.458333 0 0 0 0 0.437326 0 0 0 0 0.437326 0 0 0 0.06 0"/>
<feBlend mode="normal" in2="BackgroundImageFix" result="effect1_dropShadow_333_1788"/>
<feBlend mode="normal" in="SourceGraphic" in2="effect1_dropShadow_333_1788" result="shape"/>
</filter>
</defs>
</svg>
