<svg width="48" height="52" viewBox="0 0 48 52" fill="none" xmlns="http://www.w3.org/2000/svg">
<g filter="url(#filter0_d_333_1795)">
<rect x="8.5" y="10" width="25" height="25" rx="4" fill="white" shape-rendering="crispEdges"/>
<path d="M21.0703 28H15.6641V27.2578L17.2578 27.1953C17.3568 27.1901 17.4401 27.1536 17.5078 27.0859C17.5755 27.0182 17.6094 26.9375 17.6094 26.8438V19.5234L15.1562 19.9531V19.2109L18.6094 18.1406H19.2422V26.8438C19.2422 26.9375 19.276 27.0182 19.3438 27.0859C19.4115 27.1536 19.4948 27.1901 19.5938 27.1953L21.0703 27.2578V28ZM27.3619 28H20.4322V26.9297L21.1744 26.3281C21.9973 25.6615 22.7343 25.026 23.3853 24.4219C24.0416 23.8177 24.5598 23.2266 24.94 22.6484C25.3202 22.0651 25.5103 21.4766 25.5103 20.8828C25.5103 20.4349 25.4166 20.0495 25.2291 19.7266C25.0416 19.4036 24.7968 19.1562 24.4947 18.9844C24.1978 18.8125 23.8827 18.7266 23.5494 18.7266C23.2213 18.7266 22.9374 18.7812 22.6978 18.8906C22.4582 18.9948 22.3072 19.0677 22.2447 19.1094V20.6719C22.1926 20.724 22.1015 20.7786 21.9713 20.8359C21.841 20.8932 21.6926 20.9219 21.5259 20.9219C21.2968 20.9219 21.091 20.8516 20.9088 20.7109C20.7265 20.5651 20.6353 20.3438 20.6353 20.0469C20.6353 19.6302 20.7864 19.2578 21.0884 18.9297C21.3905 18.5964 21.789 18.3333 22.2838 18.1406C22.7785 17.9427 23.3124 17.8438 23.8853 17.8438C24.8905 17.8438 25.69 18.112 26.2838 18.6484C26.8827 19.1797 27.1822 19.8724 27.1822 20.7266C27.1822 21.3724 26.9582 22.0208 26.5103 22.6719C26.0624 23.3229 25.4582 23.987 24.6978 24.6641C23.9374 25.3359 23.0884 26.0339 22.1509 26.7578H26.3384L26.5963 25.4844H27.3619V28Z" fill="#4440FF"/>
</g>
<defs>
<filter id="filter0_d_333_1795" x="0.727274" y="0.227274" width="46.9091" height="50.9091" filterUnits="userSpaceOnUse" color-interpolation-filters="sRGB">
<feFlood flood-opacity="0" result="BackgroundImageFix"/>
<feColorMatrix in="SourceAlpha" type="matrix" values="0 0 0 0 0 0 0 0 0 0 0 0 0 0 0 0 0 0 127 0" result="hardAlpha"/>
<feOffset dx="3.18182" dy="3.18182"/>
<feGaussianBlur stdDeviation="3.97727"/>
<feComposite in2="hardAlpha" operator="out"/>
<feColorMatrix type="matrix" values="0 0 0 0 0.458333 0 0 0 0 0.437326 0 0 0 0 0.437326 0 0 0 0.06 0"/>
<feBlend mode="normal" in2="BackgroundImageFix" result="effect1_dropShadow_333_1795"/>
<feBlend mode="normal" in="SourceGraphic" in2="effect1_dropShadow_333_1795" result="shape"/>
</filter>
</defs>
</svg>
