<svg width="48" height="52" viewBox="0 0 48 52" fill="none" xmlns="http://www.w3.org/2000/svg">
<g filter="url(#filter0_d_333_1802)">
<rect x="8.5" y="10" width="25" height="25" rx="4" fill="white" shape-rendering="crispEdges"/>
<path d="M21.0703 28H15.6641V27.2578L17.2578 27.1953C17.3568 27.1901 17.4401 27.1536 17.5078 27.0859C17.5755 27.0182 17.6094 26.9375 17.6094 26.8438V19.5234L15.1562 19.9531V19.2109L18.6094 18.1406H19.2422V26.8438C19.2422 26.9375 19.276 27.0182 19.3438 27.0859C19.4115 27.1536 19.4948 27.1901 19.5938 27.1953L21.0703 27.2578V28ZM27.3384 25.1016C27.3384 25.6849 27.1588 26.2031 26.7994 26.6562C26.4452 27.1042 25.9739 27.4557 25.3853 27.7109C24.802 27.9661 24.1614 28.0938 23.4634 28.0938C22.8176 28.0938 22.2707 28 21.8228 27.8125C21.3801 27.625 21.0442 27.3984 20.815 27.1328C20.5858 26.8672 20.4713 26.6172 20.4713 26.3828C20.4713 26.1849 20.5416 26.0078 20.6822 25.8516C20.8228 25.6901 21.0364 25.6094 21.3228 25.6094C21.3801 25.6094 21.4608 25.6146 21.565 25.625C21.6744 25.6354 21.7603 25.6615 21.8228 25.7031L22.2291 26.8516C22.4166 26.9609 22.6197 27.0521 22.8384 27.125C23.0572 27.1927 23.2811 27.2266 23.5103 27.2266C24.1874 27.2266 24.7186 27.0182 25.1041 26.6016C25.4947 26.1797 25.69 25.6797 25.69 25.1016C25.69 24.6589 25.5806 24.3099 25.3619 24.0547C25.1483 23.7995 24.8801 23.6198 24.5572 23.5156C24.2395 23.4062 23.9218 23.3516 23.6041 23.3516C23.4166 23.3516 23.2421 23.3594 23.0806 23.375C22.9192 23.3906 22.7994 23.4036 22.7213 23.4141C22.7213 23.263 22.7213 23.0859 22.7213 22.8828C22.7213 22.6797 22.7213 22.5052 22.7213 22.3594C22.7317 22.3646 22.7785 22.3698 22.8619 22.375C22.9452 22.375 23.0207 22.375 23.0884 22.375C23.6978 22.375 24.2239 22.2188 24.6666 21.9062C25.1145 21.5885 25.3384 21.1302 25.3384 20.5312C25.3384 19.9635 25.1561 19.5208 24.7916 19.2031C24.4322 18.8802 24.0051 18.7188 23.5103 18.7188C23.2291 18.7188 22.9713 18.7656 22.7369 18.8594C22.5025 18.9479 22.3254 19.0365 22.2056 19.125V20.4922C22.1692 20.513 22.091 20.5495 21.9713 20.6016C21.8567 20.6536 21.7186 20.6797 21.5572 20.6797C21.3853 20.6797 21.203 20.6224 21.0103 20.5078C20.8176 20.3932 20.7213 20.1797 20.7213 19.8672C20.7213 19.4974 20.8671 19.1615 21.1588 18.8594C21.4504 18.5521 21.8384 18.3073 22.3228 18.125C22.8072 17.9375 23.3384 17.8438 23.9166 17.8438C24.4791 17.8438 24.9869 17.9453 25.44 18.1484C25.8983 18.3516 26.2629 18.6406 26.5338 19.0156C26.8046 19.3906 26.94 19.8333 26.94 20.3438C26.94 20.8854 26.7499 21.3724 26.3697 21.8047C25.9947 22.237 25.4478 22.5521 24.7291 22.75C25.1353 22.7708 25.539 22.8672 25.94 23.0391C26.341 23.2057 26.6744 23.4583 26.94 23.7969C27.2056 24.1354 27.3384 24.5703 27.3384 25.1016Z" fill="#4440FF"/>
</g>
<defs>
<filter id="filter0_d_333_1802" x="0.727274" y="0.227274" width="46.9091" height="50.9091" filterUnits="userSpaceOnUse" color-interpolation-filters="sRGB">
<feFlood flood-opacity="0" result="BackgroundImageFix"/>
<feColorMatrix in="SourceAlpha" type="matrix" values="0 0 0 0 0 0 0 0 0 0 0 0 0 0 0 0 0 0 127 0" result="hardAlpha"/>
<feOffset dx="3.18182" dy="3.18182"/>
<feGaussianBlur stdDeviation="3.97727"/>
<feComposite in2="hardAlpha" operator="out"/>
<feColorMatrix type="matrix" values="0 0 0 0 0.458333 0 0 0 0 0.437326 0 0 0 0 0.437326 0 0 0 0.06 0"/>
<feBlend mode="normal" in2="BackgroundImageFix" result="effect1_dropShadow_333_1802"/>
<feBlend mode="normal" in="SourceGraphic" in2="effect1_dropShadow_333_1802" result="shape"/>
</filter>
</defs>
</svg>
