<svg width="42" height="52" viewBox="0 0 42 52" fill="none" xmlns="http://www.w3.org/2000/svg">
<g filter="url(#filter0_d_333_1718)">
<rect x="5.5" y="10.5" width="25" height="25" rx="4" fill="white" shape-rendering="crispEdges"/>
<path d="M21.2812 28.5H14.3516V27.4297L15.0938 26.8281C15.9167 26.1615 16.6536 25.526 17.3047 24.9219C17.9609 24.3177 18.4792 23.7266 18.8594 23.1484C19.2396 22.5651 19.4297 21.9766 19.4297 21.3828C19.4297 20.9349 19.3359 20.5495 19.1484 20.2266C18.9609 19.9036 18.7161 19.6562 18.4141 19.4844C18.1172 19.3125 17.8021 19.2266 17.4688 19.2266C17.1406 19.2266 16.8568 19.2812 16.6172 19.3906C16.3776 19.4948 16.2266 19.5677 16.1641 19.6094V21.1719C16.112 21.224 16.0208 21.2786 15.8906 21.3359C15.7604 21.3932 15.612 21.4219 15.4453 21.4219C15.2161 21.4219 15.0104 21.3516 14.8281 21.2109C14.6458 21.0651 14.5547 20.8438 14.5547 20.5469C14.5547 20.1302 14.7057 19.7578 15.0078 19.4297C15.3099 19.0964 15.7083 18.8333 16.2031 18.6406C16.6979 18.4427 17.2318 18.3438 17.8047 18.3438C18.8099 18.3438 19.6094 18.612 20.2031 19.1484C20.8021 19.6797 21.1016 20.3724 21.1016 21.2266C21.1016 21.8724 20.8776 22.5208 20.4297 23.1719C19.9818 23.8229 19.3776 24.487 18.6172 25.1641C17.8568 25.8359 17.0078 26.5339 16.0703 27.2578H20.2578L20.5156 25.9844H21.2812V28.5Z" fill="#4440FF"/>
</g>
<defs>
<filter id="filter0_d_333_1718" x="0.727274" y="0.727274" width="40.9091" height="50.9091" filterUnits="userSpaceOnUse" color-interpolation-filters="sRGB">
<feFlood flood-opacity="0" result="BackgroundImageFix"/>
<feColorMatrix in="SourceAlpha" type="matrix" values="0 0 0 0 0 0 0 0 0 0 0 0 0 0 0 0 0 0 127 0" result="hardAlpha"/>
<feOffset dx="3.18182" dy="3.18182"/>
<feGaussianBlur stdDeviation="3.97727"/>
<feComposite in2="hardAlpha" operator="out"/>
<feColorMatrix type="matrix" values="0 0 0 0 0.458333 0 0 0 0 0.437326 0 0 0 0 0.437326 0 0 0 0.06 0"/>
<feBlend mode="normal" in2="BackgroundImageFix" result="effect1_dropShadow_333_1718"/>
<feBlend mode="normal" in="SourceGraphic" in2="effect1_dropShadow_333_1718" result="shape"/>
</filter>
</defs>
</svg>
