<svg width="42" height="52" viewBox="0 0 42 52" fill="none" xmlns="http://www.w3.org/2000/svg">
<g filter="url(#filter0_d_333_1725)">
<rect x="5.5" y="10.5" width="25" height="25" rx="4" fill="white" shape-rendering="crispEdges"/>
<path d="M21.2578 25.6016C21.2578 26.1849 21.0781 26.7031 20.7188 27.1562C20.3646 27.6042 19.8932 27.9557 19.3047 28.2109C18.7214 28.4661 18.0807 28.5938 17.3828 28.5938C16.737 28.5938 16.1901 28.5 15.7422 28.3125C15.2995 28.125 14.9635 27.8984 14.7344 27.6328C14.5052 27.3672 14.3906 27.1172 14.3906 26.8828C14.3906 26.6849 14.4609 26.5078 14.6016 26.3516C14.7422 26.1901 14.9557 26.1094 15.2422 26.1094C15.2995 26.1094 15.3802 26.1146 15.4844 26.125C15.5938 26.1354 15.6797 26.1615 15.7422 26.2031L16.1484 27.3516C16.3359 27.4609 16.5391 27.5521 16.7578 27.625C16.9766 27.6927 17.2005 27.7266 17.4297 27.7266C18.1068 27.7266 18.638 27.5182 19.0234 27.1016C19.4141 26.6797 19.6094 26.1797 19.6094 25.6016C19.6094 25.1589 19.5 24.8099 19.2812 24.5547C19.0677 24.2995 18.7995 24.1198 18.4766 24.0156C18.1589 23.9062 17.8411 23.8516 17.5234 23.8516C17.3359 23.8516 17.1615 23.8594 17 23.875C16.8385 23.8906 16.7188 23.9036 16.6406 23.9141C16.6406 23.763 16.6406 23.5859 16.6406 23.3828C16.6406 23.1797 16.6406 23.0052 16.6406 22.8594C16.651 22.8646 16.6979 22.8698 16.7812 22.875C16.8646 22.875 16.9401 22.875 17.0078 22.875C17.6172 22.875 18.1432 22.7188 18.5859 22.4062C19.0339 22.0885 19.2578 21.6302 19.2578 21.0312C19.2578 20.4635 19.0755 20.0208 18.7109 19.7031C18.3516 19.3802 17.9245 19.2188 17.4297 19.2188C17.1484 19.2188 16.8906 19.2656 16.6562 19.3594C16.4219 19.4479 16.2448 19.5365 16.125 19.625V20.9922C16.0885 21.013 16.0104 21.0495 15.8906 21.1016C15.776 21.1536 15.638 21.1797 15.4766 21.1797C15.3047 21.1797 15.1224 21.1224 14.9297 21.0078C14.737 20.8932 14.6406 20.6797 14.6406 20.3672C14.6406 19.9974 14.7865 19.6615 15.0781 19.3594C15.3698 19.0521 15.7578 18.8073 16.2422 18.625C16.7266 18.4375 17.2578 18.3438 17.8359 18.3438C18.3984 18.3438 18.9062 18.4453 19.3594 18.6484C19.8177 18.8516 20.1823 19.1406 20.4531 19.5156C20.724 19.8906 20.8594 20.3333 20.8594 20.8438C20.8594 21.3854 20.6693 21.8724 20.2891 22.3047C19.9141 22.737 19.3672 23.0521 18.6484 23.25C19.0547 23.2708 19.4583 23.3672 19.8594 23.5391C20.2604 23.7057 20.5938 23.9583 20.8594 24.2969C21.125 24.6354 21.2578 25.0703 21.2578 25.6016Z" fill="#4440FF"/>
</g>
<defs>
<filter id="filter0_d_333_1725" x="0.727274" y="0.727274" width="40.9091" height="50.9091" filterUnits="userSpaceOnUse" color-interpolation-filters="sRGB">
<feFlood flood-opacity="0" result="BackgroundImageFix"/>
<feColorMatrix in="SourceAlpha" type="matrix" values="0 0 0 0 0 0 0 0 0 0 0 0 0 0 0 0 0 0 127 0" result="hardAlpha"/>
<feOffset dx="3.18182" dy="3.18182"/>
<feGaussianBlur stdDeviation="3.97727"/>
<feComposite in2="hardAlpha" operator="out"/>
<feColorMatrix type="matrix" values="0 0 0 0 0.458333 0 0 0 0 0.437326 0 0 0 0 0.437326 0 0 0 0.06 0"/>
<feBlend mode="normal" in2="BackgroundImageFix" result="effect1_dropShadow_333_1725"/>
<feBlend mode="normal" in="SourceGraphic" in2="effect1_dropShadow_333_1725" result="shape"/>
</filter>
</defs>
</svg>
