<svg width="42" height="52" viewBox="0 0 42 52" fill="none" xmlns="http://www.w3.org/2000/svg">
<g filter="url(#filter0_d_333_1739)">
<rect x="5.5" y="10.5" width="25" height="25" rx="4" fill="white" shape-rendering="crispEdges"/>
<path d="M21.2109 25.2422C21.2109 25.8932 21.0547 26.4714 20.7422 26.9766C20.4349 27.4818 19.9792 27.8776 19.375 28.1641C18.776 28.4505 18.0365 28.5938 17.1562 28.5938C16.6562 28.5938 16.1979 28.5052 15.7812 28.3281C15.3698 28.1458 15.0391 27.9245 14.7891 27.6641C14.5443 27.3984 14.4219 27.1406 14.4219 26.8906C14.4219 26.6302 14.5078 26.4323 14.6797 26.2969C14.8516 26.1562 15.0677 26.0859 15.3281 26.0859C15.4062 26.0859 15.4948 26.0938 15.5938 26.1094C15.6979 26.125 15.763 26.138 15.7891 26.1484L16.2188 27.3125C16.3385 27.4219 16.5182 27.5182 16.7578 27.6016C17.0026 27.6849 17.2057 27.7266 17.3672 27.7266C17.8776 27.7266 18.3021 27.6198 18.6406 27.4062C18.9792 27.1927 19.2344 26.9219 19.4062 26.5938C19.5781 26.2604 19.6641 25.9245 19.6641 25.5859C19.6641 24.7786 19.4427 24.1823 19 23.7969C18.5573 23.4062 17.987 23.2109 17.2891 23.2109C17.0599 23.2109 16.7995 23.237 16.5078 23.2891C16.2214 23.3411 15.9401 23.4036 15.6641 23.4766C15.388 23.5495 15.1536 23.6224 14.9609 23.6953V18.625H20.5547V19.8828H16.0547V22.5469C16.1901 22.4948 16.4427 22.4271 16.8125 22.3438C17.1875 22.2604 17.5703 22.2188 17.9609 22.2188C18.9609 22.2188 19.7526 22.4896 20.3359 23.0312C20.9193 23.5729 21.2109 24.3099 21.2109 25.2422Z" fill="#4440FF"/>
</g>
<defs>
<filter id="filter0_d_333_1739" x="0.727274" y="0.727274" width="40.9091" height="50.9091" filterUnits="userSpaceOnUse" color-interpolation-filters="sRGB">
<feFlood flood-opacity="0" result="BackgroundImageFix"/>
<feColorMatrix in="SourceAlpha" type="matrix" values="0 0 0 0 0 0 0 0 0 0 0 0 0 0 0 0 0 0 127 0" result="hardAlpha"/>
<feOffset dx="3.18182" dy="3.18182"/>
<feGaussianBlur stdDeviation="3.97727"/>
<feComposite in2="hardAlpha" operator="out"/>
<feColorMatrix type="matrix" values="0 0 0 0 0.458333 0 0 0 0 0.437326 0 0 0 0 0.437326 0 0 0 0.06 0"/>
<feBlend mode="normal" in2="BackgroundImageFix" result="effect1_dropShadow_333_1739"/>
<feBlend mode="normal" in="SourceGraphic" in2="effect1_dropShadow_333_1739" result="shape"/>
</filter>
</defs>
</svg>
