<svg width="42" height="52" viewBox="0 0 42 52" fill="none" xmlns="http://www.w3.org/2000/svg">
<g filter="url(#filter0_d_333_1746)">
<rect x="5.5" y="10.5" width="25" height="25" rx="4" fill="white" shape-rendering="crispEdges"/>
<path d="M21.3047 24.9766C21.3047 25.7057 21.1458 26.3411 20.8281 26.8828C20.5156 27.4245 20.0938 27.8464 19.5625 28.1484C19.0312 28.4453 18.4401 28.5938 17.7891 28.5938C17.1432 28.5938 16.5573 28.4479 16.0312 28.1562C15.5104 27.8646 15.0964 27.3932 14.7891 26.7422C14.4818 26.0859 14.3281 25.2161 14.3281 24.1328C14.3281 22.9818 14.5547 21.974 15.0078 21.1094C15.4609 20.2396 16.1172 19.5625 16.9766 19.0781C17.8411 18.5885 18.8828 18.3438 20.1016 18.3438V19.2656H19.5078C18.9349 19.2656 18.3984 19.4089 17.8984 19.6953C17.3984 19.9766 16.9766 20.3802 16.6328 20.9062C16.2891 21.4323 16.0677 22.0599 15.9688 22.7891C16.7344 22.2318 17.5104 21.9531 18.2969 21.9531C18.9062 21.9531 19.4349 22.0859 19.8828 22.3516C20.3359 22.6172 20.6849 22.9792 20.9297 23.4375C21.1797 23.8906 21.3047 24.4036 21.3047 24.9766ZM19.75 25.1641C19.75 24.4557 19.5833 23.9062 19.25 23.5156C18.9167 23.125 18.4297 22.9297 17.7891 22.9297C17.4818 22.9297 17.1641 22.9974 16.8359 23.1328C16.5078 23.263 16.2031 23.4375 15.9219 23.6562C15.9115 23.8073 15.9036 23.9453 15.8984 24.0703C15.8984 24.1953 15.8984 24.3125 15.8984 24.4219C15.8984 25.4062 16.0495 26.2083 16.3516 26.8281C16.6589 27.4479 17.138 27.7578 17.7891 27.7578C18.2526 27.7578 18.6276 27.6432 18.9141 27.4141C19.2057 27.1797 19.4167 26.8672 19.5469 26.4766C19.6823 26.0807 19.75 25.6432 19.75 25.1641Z" fill="#4440FF"/>
</g>
<defs>
<filter id="filter0_d_333_1746" x="0.727274" y="0.727274" width="40.9091" height="50.9091" filterUnits="userSpaceOnUse" color-interpolation-filters="sRGB">
<feFlood flood-opacity="0" result="BackgroundImageFix"/>
<feColorMatrix in="SourceAlpha" type="matrix" values="0 0 0 0 0 0 0 0 0 0 0 0 0 0 0 0 0 0 127 0" result="hardAlpha"/>
<feOffset dx="3.18182" dy="3.18182"/>
<feGaussianBlur stdDeviation="3.97727"/>
<feComposite in2="hardAlpha" operator="out"/>
<feColorMatrix type="matrix" values="0 0 0 0 0.458333 0 0 0 0 0.437326 0 0 0 0 0.437326 0 0 0 0.06 0"/>
<feBlend mode="normal" in2="BackgroundImageFix" result="effect1_dropShadow_333_1746"/>
<feBlend mode="normal" in="SourceGraphic" in2="effect1_dropShadow_333_1746" result="shape"/>
</filter>
</defs>
</svg>
