<svg width="42" height="52" viewBox="0 0 42 52" fill="none" xmlns="http://www.w3.org/2000/svg">
<g filter="url(#filter0_d_333_1767)">
<rect x="5.5" y="10" width="25" height="25" rx="4" fill="white" shape-rendering="crispEdges"/>
<path d="M21.2969 25.2266C21.2969 25.7786 21.1458 26.2708 20.8438 26.7031C20.5417 27.1354 20.1276 27.4766 19.6016 27.7266C19.0755 27.9714 18.4792 28.0938 17.8125 28.0938C17.1042 28.0938 16.4896 27.9714 15.9688 27.7266C15.4479 27.4818 15.0443 27.1458 14.7578 26.7188C14.4766 26.2917 14.3359 25.8047 14.3359 25.2578C14.3359 24.8203 14.4297 24.4401 14.6172 24.1172C14.8099 23.7943 15.0495 23.5208 15.3359 23.2969C15.6276 23.0677 15.9219 22.8776 16.2188 22.7266C16.0104 22.6276 15.7891 22.4818 15.5547 22.2891C15.3255 22.0964 15.1302 21.8568 14.9688 21.5703C14.8073 21.2786 14.7266 20.9427 14.7266 20.5625C14.7266 19.7292 15.0104 19.0677 15.5781 18.5781C16.1458 18.0885 16.8906 17.8438 17.8125 17.8438C18.401 17.8438 18.9271 17.9531 19.3906 18.1719C19.8594 18.3906 20.2292 18.6875 20.5 19.0625C20.7708 19.4375 20.9062 19.8594 20.9062 20.3281C20.9062 20.7344 20.8125 21.099 20.625 21.4219C20.4427 21.7396 20.2266 22.013 19.9766 22.2422C19.7318 22.4661 19.513 22.6432 19.3203 22.7734C19.5755 22.8776 19.8568 23.0312 20.1641 23.2344C20.4714 23.4323 20.737 23.6927 20.9609 24.0156C21.1849 24.3385 21.2969 24.7422 21.2969 25.2266ZM19.5 20.4609C19.5 19.9036 19.3385 19.4635 19.0156 19.1406C18.6927 18.8177 18.2917 18.6562 17.8125 18.6562C17.3229 18.6562 16.9375 18.8203 16.6562 19.1484C16.375 19.4714 16.2344 19.8307 16.2344 20.2266C16.2344 20.7318 16.4297 21.1589 16.8203 21.5078C17.2161 21.8516 17.7839 22.1615 18.5234 22.4375C18.8203 22.224 19.0573 21.9531 19.2344 21.625C19.4115 21.2917 19.5 20.9036 19.5 20.4609ZM19.7578 25.4609C19.7578 25.0807 19.6562 24.763 19.4531 24.5078C19.2552 24.2526 18.9505 24.0182 18.5391 23.8047C18.1328 23.5911 17.6146 23.362 16.9844 23.1172C16.6198 23.3151 16.3229 23.5729 16.0938 23.8906C15.8698 24.2083 15.7578 24.6276 15.7578 25.1484C15.7578 25.7318 15.9245 26.2266 16.2578 26.6328C16.5964 27.0339 17.1146 27.2344 17.8125 27.2344C18.2292 27.2344 18.5807 27.1484 18.8672 26.9766C19.1589 26.8047 19.3802 26.5833 19.5312 26.3125C19.6823 26.0417 19.7578 25.7578 19.7578 25.4609Z" fill="#4440FF"/>
</g>
<defs>
<filter id="filter0_d_333_1767" x="0.727274" y="0.227274" width="40.9091" height="50.9091" filterUnits="userSpaceOnUse" color-interpolation-filters="sRGB">
<feFlood flood-opacity="0" result="BackgroundImageFix"/>
<feColorMatrix in="SourceAlpha" type="matrix" values="0 0 0 0 0 0 0 0 0 0 0 0 0 0 0 0 0 0 127 0" result="hardAlpha"/>
<feOffset dx="3.18182" dy="3.18182"/>
<feGaussianBlur stdDeviation="3.97727"/>
<feComposite in2="hardAlpha" operator="out"/>
<feColorMatrix type="matrix" values="0 0 0 0 0.458333 0 0 0 0 0.437326 0 0 0 0 0.437326 0 0 0 0.06 0"/>
<feBlend mode="normal" in2="BackgroundImageFix" result="effect1_dropShadow_333_1767"/>
<feBlend mode="normal" in="SourceGraphic" in2="effect1_dropShadow_333_1767" result="shape"/>
</filter>
</defs>
</svg>
