<svg width="42" height="52" viewBox="0 0 42 52" fill="none" xmlns="http://www.w3.org/2000/svg">
<g filter="url(#filter0_d_333_1774)">
<rect x="5.5" y="10" width="25" height="25" rx="4" fill="white" shape-rendering="crispEdges"/>
<path d="M14.3281 21.4609C14.3281 20.7578 14.4844 20.1354 14.7969 19.5938C15.1146 19.0469 15.5391 18.6198 16.0703 18.3125C16.6016 18 17.1927 17.8438 17.8438 17.8438C18.4948 17.8438 19.0807 17.9948 19.6016 18.2969C20.1224 18.599 20.5365 19.0781 20.8438 19.7344C21.151 20.3906 21.3047 21.2474 21.3047 22.3047C21.3047 23.4557 21.0755 24.4661 20.6172 25.3359C20.1641 26.2057 19.5052 26.8828 18.6406 27.3672C17.7812 27.8516 16.7396 28.0938 15.5156 28.0938V27.1719H16.125C16.6979 27.1719 17.2344 27.0312 17.7344 26.75C18.2344 26.4635 18.6562 26.0573 19 25.5312C19.3438 25 19.5651 24.3724 19.6641 23.6484C18.8984 24.2057 18.1224 24.4844 17.3359 24.4844C16.7318 24.4844 16.2031 24.3516 15.75 24.0859C15.2969 23.8203 14.9453 23.4609 14.6953 23.0078C14.4505 22.5495 14.3281 22.0339 14.3281 21.4609ZM15.8828 21.2734C15.8828 21.9818 16.0495 22.5312 16.3828 22.9219C16.7161 23.3125 17.2031 23.5078 17.8438 23.5078C18.151 23.5078 18.4688 23.4427 18.7969 23.3125C19.125 23.1771 19.4297 23 19.7109 22.7812C19.7214 22.6302 19.7266 22.4922 19.7266 22.3672C19.7318 22.2422 19.7344 22.125 19.7344 22.0156C19.7344 21.3854 19.6667 20.8203 19.5312 20.3203C19.401 19.8151 19.1953 19.4167 18.9141 19.125C18.638 18.8281 18.2812 18.6797 17.8438 18.6797C17.3802 18.6797 17.0026 18.8021 16.7109 19.0469C16.4245 19.2865 16.2135 19.6042 16.0781 20C15.9479 20.3958 15.8828 20.8203 15.8828 21.2734Z" fill="#4440FF"/>
</g>
<defs>
<filter id="filter0_d_333_1774" x="0.727274" y="0.227274" width="40.9091" height="50.9091" filterUnits="userSpaceOnUse" color-interpolation-filters="sRGB">
<feFlood flood-opacity="0" result="BackgroundImageFix"/>
<feColorMatrix in="SourceAlpha" type="matrix" values="0 0 0 0 0 0 0 0 0 0 0 0 0 0 0 0 0 0 127 0" result="hardAlpha"/>
<feOffset dx="3.18182" dy="3.18182"/>
<feGaussianBlur stdDeviation="3.97727"/>
<feComposite in2="hardAlpha" operator="out"/>
<feColorMatrix type="matrix" values="0 0 0 0 0.458333 0 0 0 0 0.437326 0 0 0 0 0.437326 0 0 0 0.06 0"/>
<feBlend mode="normal" in2="BackgroundImageFix" result="effect1_dropShadow_333_1774"/>
<feBlend mode="normal" in="SourceGraphic" in2="effect1_dropShadow_333_1774" result="shape"/>
</filter>
</defs>
</svg>
