<svg width="27" height="15" viewBox="0 0 27 15" fill="none" xmlns="http://www.w3.org/2000/svg">
<path id="Vector" d="M0.212849 3.33178C0.211617 3.70402 0.299582 4.07277 0.471661 4.41669C0.64374 4.76062 0.896515 5.07289 1.21536 5.33544L11.0858 13.5038C11.416 13.7758 11.8096 13.9894 12.2428 14.1315C12.6759 14.2735 13.1395 14.3411 13.6052 14.3301C14.0713 14.3413 14.5353 14.2738 14.9688 14.1317C15.4024 13.9896 15.7965 13.776 16.127 13.5038L25.9975 5.33511C26.3163 5.07264 26.5691 4.76043 26.7412 4.41655C26.9133 4.07268 27.0013 3.70397 27 3.33178C27 2.57478 26.6439 1.86344 25.9975 1.32844C24.6627 0.223777 22.4905 0.223777 21.1557 1.32844L13.6064 7.57611L6.05756 1.32844C4.72275 0.223777 2.55057 0.223777 1.21576 1.32844C0.89682 1.59089 0.643951 1.90309 0.4718 2.24696C0.299646 2.59084 0.211634 2.95956 0.212849 3.33178ZM25.3889 3.33178C25.3895 3.52881 25.3429 3.72399 25.2519 3.90604C25.1609 4.0881 25.0271 4.25341 24.8584 4.39244L14.9879 12.4031C14.6283 12.7001 14.1486 12.6808 13.6366 12.6808H13.5758C13.0639 12.6808 12.5846 12.7001 12.2253 12.4031L2.35482 4.31344C2.01246 4.03011 1.82436 3.69278 1.82436 3.29244C1.82436 2.89144 2.01286 2.53478 2.35482 2.25144C3.0617 1.66644 4.21163 1.67644 4.9185 2.26144L13.0369 8.98511C13.1876 9.1104 13.3922 9.18103 13.6058 9.18147C13.8194 9.18191 14.0245 9.11212 14.1759 8.98744L22.2943 2.26978C22.6347 1.98898 23.0957 1.83133 23.5763 1.8314C24.0568 1.83146 24.5178 1.98923 24.858 2.27011C25.0269 2.40927 25.1607 2.57474 25.2519 2.75697C25.343 2.9392 25.3895 3.13456 25.3889 3.33178Z" fill="#4D4AFF"/>
</svg>
