<svg width="1397" height="198" viewBox="0 0 1397 198" fill="none" xmlns="http://www.w3.org/2000/svg">
<g opacity="0.3">
<mask id="path-1-outside-1_2_2472" maskUnits="userSpaceOnUse" x="-698" y="-1" width="2096" height="201" fill="black">
<rect fill="white" x="-698" y="-1" width="2096" height="201"/>
<path d="M-648.947 19.6L-665.147 35.8L-682.947 18.2L-665.347 0.79999L-648.947 16.8L-632.547 0.79999L-614.747 18.2L-632.347 35.8L-648.947 19.6ZM-586.147 127C-584.814 127 -584.147 127.6 -584.147 128.8V148C-584.147 149.333 -584.814 150 -586.147 150C-598.68 150 -607.947 147.267 -613.947 141.8C-626.88 148.467 -638.68 151.8 -649.347 151.8C-662.947 151.8 -674.147 147.133 -682.947 137.8C-691.747 128.467 -696.147 116.867 -696.147 103C-696.147 89 -691.747 77.0667 -682.947 67.2C-674.014 57.2 -662.814 52.2 -649.347 52.2C-641.614 52.2 -633.414 53.8 -624.747 57V45.2L-603.147 42.2L-602.947 108C-602.947 114.8 -601.614 119.667 -598.947 122.6C-596.28 125.533 -592.014 127 -586.147 127ZM-649.347 130C-640.547 130.133 -631.88 128.2 -623.347 124.2C-624.147 120.2 -624.547 115.6 -624.547 110.4V79C-634.414 75.5333 -642.347 73.8 -648.347 73.8C-656.347 73.8 -662.947 76.6 -668.147 82.2C-673.214 87.6667 -675.747 94.4667 -675.747 102.6C-675.747 110.333 -673.28 116.8 -668.347 122C-663.414 127.2 -657.08 129.867 -649.347 130ZM-510.141 127C-508.807 127 -508.141 127.6 -508.141 128.8V148C-508.141 149.333 -508.807 150 -510.141 150C-522.141 150 -533.274 145.067 -543.541 135.2C-551.407 145.067 -565.607 150 -586.141 150C-587.474 150 -588.141 149.333 -588.141 148L-587.941 128.8C-587.941 127.6 -587.274 127 -585.941 127C-576.207 127 -569.074 125.2 -564.541 121.6C-559.874 117.867 -557.541 111.867 -557.541 103.6V74L-535.941 71V110.4C-535.941 113.067 -536.141 115.733 -536.541 118.4C-528.407 124.133 -519.607 127 -510.141 127ZM-548.541 179L-532.141 163L-514.341 180.4L-531.941 198L-548.541 181.8L-564.741 198L-582.541 180.4L-564.941 163L-548.541 179ZM-321.764 127C-320.431 127 -319.764 127.6 -319.764 128.8V148C-319.764 149.333 -320.431 150 -321.764 150C-332.964 150 -342.897 146.067 -351.564 138.2C-358.497 145.933 -368.964 149.8 -382.964 149.8C-393.764 149.8 -404.831 146.2 -416.164 139C-423.764 146.2 -434.097 149.8 -447.164 149.8C-456.897 149.8 -466.831 146.133 -476.964 138.8C-484.431 146.267 -495.497 150 -510.164 150C-511.497 150 -512.164 149.333 -512.164 148V128.8C-512.164 127.6 -511.497 127 -510.164 127C-495.231 127 -487.764 119.2 -487.764 103.6L-487.964 74L-466.164 71V110.4C-466.164 114.667 -466.697 118.8 -467.764 122.8C-461.231 125.467 -455.031 126.8 -449.164 126.8C-434.231 126.8 -426.764 119 -426.764 103.4L-426.964 73.8L-405.164 70.8V110.2C-405.164 114.6 -405.697 118.8 -406.764 122.8C-400.097 125.467 -393.297 126.8 -386.364 126.8C-371.564 126.8 -364.164 119 -364.164 103.4V52.8L-342.564 49.8V110.2C-342.564 113.667 -342.897 117.2 -343.564 120.8C-336.764 124.933 -329.497 127 -321.764 127ZM-270.687 40.6L-288.287 58.2L-306.287 40.6L-288.687 23.2L-270.687 40.6ZM-254.487 127C-253.154 127 -252.487 127.6 -252.487 128.8V148C-252.487 149.333 -253.154 150 -254.487 150C-265.954 150 -276.421 145.667 -285.887 137C-293.354 145.667 -305.287 150 -321.688 150C-323.021 150 -323.688 149.333 -323.688 148L-323.488 128.8C-323.488 127.6 -322.821 127 -321.487 127C-306.554 127 -299.087 119.2 -299.087 103.6L-299.287 74L-277.487 71V110.4C-277.487 113.867 -277.754 116.933 -278.287 119.6C-270.954 124.533 -263.021 127 -254.487 127ZM-127.7 127C-126.367 127 -125.7 127.6 -125.7 128.8V148C-125.7 149.333 -126.367 150 -127.7 150H-134.9C-151.433 150 -161.833 143 -166.1 129C-181.7 136.333 -196.433 141.667 -210.3 145C-224.167 148.333 -238.833 150 -254.3 150C-255.767 150 -256.5 149.333 -256.5 148V128.8C-256.5 127.6 -255.767 127 -254.3 127C-222.7 127 -192.633 120.467 -164.1 107.4C-180.233 94.7333 -192.167 86.3333 -199.9 82.2C-207.633 77.9333 -215.033 75.8 -222.1 75.8C-225.967 75.8 -232.433 76.8 -241.5 78.8L-245.7 59.4C-235.3 55.4 -226.433 53.4 -219.1 53.4C-210.3 53.4 -200.967 56.2 -191.1 61.8C-181.233 67.2667 -164.833 79 -141.9 97L-145.7 118.8C-148.633 120.4 -150.833 121.533 -152.3 122.2C-148.433 125.4 -142.567 127 -134.7 127H-127.7ZM-209.7 178.8L-192.1 161.2L-174.1 178.8L-191.7 196.2L-209.7 178.8ZM-127.742 150C-129.076 150 -129.742 149.333 -129.742 148V128.8C-129.742 127.6 -129.009 127 -127.542 127C-112.742 127 -105.342 118.933 -105.342 102.8L-105.142 6.99999L-83.5422 4V109.2C-83.5422 136.4 -98.2755 150 -127.742 150ZM-51.1953 150V6.99999L-29.3953 4V150H-51.1953ZM85.8188 19.6L69.6188 35.8L51.8188 18.2L69.4188 0.79999L85.8188 16.8L102.219 0.79999L120.019 18.2L102.419 35.8L85.8188 19.6ZM148.619 127C149.952 127 150.619 127.6 150.619 128.8V148C150.619 149.333 149.952 150 148.619 150C136.085 150 126.819 147.267 120.819 141.8C107.885 148.467 96.0854 151.8 85.4188 151.8C71.8188 151.8 60.6188 147.133 51.8188 137.8C43.0188 128.467 38.6188 116.867 38.6188 103C38.6188 89 43.0188 77.0667 51.8188 67.2C60.7521 57.2 71.9521 52.2 85.4188 52.2C93.1521 52.2 101.352 53.8 110.019 57V45.2L131.619 42.2L131.819 108C131.819 114.8 133.152 119.667 135.819 122.6C138.485 125.533 142.752 127 148.619 127ZM85.4188 130C94.2188 130.133 102.885 128.2 111.419 124.2C110.619 120.2 110.219 115.6 110.219 110.4V79C100.352 75.5333 92.4188 73.8 86.4188 73.8C78.4188 73.8 71.8188 76.6 66.6188 82.2C61.5521 87.6667 59.0188 94.4667 59.0188 102.6C59.0188 110.333 61.4854 116.8 66.4188 122C71.3521 127.2 77.6854 129.867 85.4188 130ZM224.625 127C225.958 127 226.625 127.6 226.625 128.8V148C226.625 149.333 225.958 150 224.625 150C212.625 150 201.492 145.067 191.225 135.2C183.358 145.067 169.158 150 148.625 150C147.292 150 146.625 149.333 146.625 148L146.825 128.8C146.825 127.6 147.492 127 148.825 127C158.558 127 165.692 125.2 170.225 121.6C174.892 117.867 177.225 111.867 177.225 103.6V74L198.825 71V110.4C198.825 113.067 198.625 115.733 198.225 118.4C206.358 124.133 215.158 127 224.625 127ZM186.225 179L202.625 163L220.425 180.4L202.825 198L186.225 181.8L170.025 198L152.225 180.4L169.825 163L186.225 179ZM338.202 127C339.535 127 340.202 127.6 340.202 128.8V148C340.202 149.333 339.535 150 338.202 150H290.202C276.602 150 265.335 146.733 256.402 140.2C246.002 146.733 235.402 150 224.602 150C223.268 150 222.602 149.333 222.602 148V128.8C222.602 127.6 223.268 127 224.602 127C231.002 127 236.868 125.867 242.202 123.6C238.602 115.733 236.802 107.2 236.802 98C236.802 84.4 241.202 73.2 250.002 64.4C258.802 55.4667 270.002 51 283.602 51C296.268 51 307.135 55.4667 316.202 64.4C325.268 73.2 329.802 83.6667 329.802 95.8C329.802 105.4 327.868 115.8 324.002 127H338.202ZM289.202 127H303.402C307.002 116.067 308.802 106.733 308.802 99C308.802 91.8 306.468 85.5333 301.802 80.2C297.135 74.7333 291.335 72 284.402 72C276.668 72 270.402 74.4667 265.602 79.4C260.935 84.2 258.602 90.5333 258.602 98.4C258.602 106.933 261.335 113.867 266.802 119.2C272.268 124.4 279.735 127 289.202 127ZM414.273 127C415.607 127 416.273 127.6 416.273 128.8V148C416.273 149.333 415.607 150 414.273 150C402.273 150 391.14 145.067 380.873 135.2C373.007 145.067 358.807 150 338.273 150C336.94 150 336.273 149.333 336.273 148L336.473 128.8C336.473 127.6 337.14 127 338.473 127C348.207 127 355.34 125.2 359.873 121.6C364.54 117.867 366.873 111.867 366.873 103.6V74L388.473 71V110.4C388.473 113.067 388.273 115.733 387.873 118.4C396.007 124.133 404.807 127 414.273 127ZM375.873 179L392.273 163L410.073 180.4L392.473 198L375.873 181.8L359.673 198L341.873 180.4L359.473 163L375.873 179ZM527.85 127C529.183 127 529.85 127.6 529.85 128.8V148C529.85 149.333 529.183 150 527.85 150H479.85C466.25 150 454.983 146.733 446.05 140.2C435.65 146.733 425.05 150 414.25 150C412.917 150 412.25 149.333 412.25 148V128.8C412.25 127.6 412.917 127 414.25 127C420.65 127 426.517 125.867 431.85 123.6C428.25 115.733 426.45 107.2 426.45 98C426.45 84.4 430.85 73.2 439.65 64.4C448.45 55.4667 459.65 51 473.25 51C485.917 51 496.783 55.4667 505.85 64.4C514.917 73.2 519.45 83.6667 519.45 95.8C519.45 105.4 517.517 115.8 513.65 127H527.85ZM478.85 127H493.05C496.65 116.067 498.45 106.733 498.45 99C498.45 91.8 496.117 85.5333 491.45 80.2C486.783 74.7333 480.983 72 474.05 72C466.317 72 460.05 74.4667 455.25 79.4C450.583 84.2 448.25 90.5333 448.25 98.4C448.25 106.933 450.983 113.867 456.45 119.2C461.917 124.4 469.383 127 478.85 127ZM654.722 127C656.055 127 656.722 127.6 656.722 128.8V148C656.722 149.333 656.055 150 654.722 150H647.522C630.989 150 620.589 143 616.322 129C600.722 136.333 585.989 141.667 572.122 145C558.255 148.333 543.589 150 528.122 150C526.655 150 525.922 149.333 525.922 148V128.8C525.922 127.6 526.655 127 528.122 127C559.722 127 589.789 120.467 618.322 107.4C602.189 94.7333 590.255 86.3333 582.522 82.2C574.789 77.9333 567.389 75.8 560.322 75.8C556.455 75.8 549.989 76.8 540.922 78.8L536.722 59.4C547.122 55.4 555.989 53.4 563.322 53.4C572.122 53.4 581.455 56.2 591.322 61.8C601.189 67.2667 617.589 79 640.522 97L636.722 118.8C633.789 120.4 631.589 121.533 630.122 122.2C633.989 125.4 639.855 127 647.722 127H654.722ZM654.68 150C653.346 150 652.68 149.333 652.68 148V128.8C652.68 127.6 653.413 127 654.88 127C669.68 127 677.08 118.933 677.08 102.8L677.28 6.99999L698.88 4V109.2C698.88 136.4 684.146 150 654.68 150ZM731.227 150V6.99999L753.027 4V150H731.227ZM868.241 19.6L852.041 35.8L834.241 18.2L851.841 0.79999L868.241 16.8L884.641 0.79999L902.441 18.2L884.841 35.8L868.241 19.6ZM931.041 127C932.374 127 933.041 127.6 933.041 128.8V148C933.041 149.333 932.374 150 931.041 150C918.507 150 909.241 147.267 903.241 141.8C890.307 148.467 878.507 151.8 867.841 151.8C854.241 151.8 843.041 147.133 834.241 137.8C825.441 128.467 821.041 116.867 821.041 103C821.041 89 825.441 77.0667 834.241 67.2C843.174 57.2 854.374 52.2 867.841 52.2C875.574 52.2 883.774 53.8 892.441 57V45.2L914.041 42.2L914.241 108C914.241 114.8 915.574 119.667 918.241 122.6C920.907 125.533 925.174 127 931.041 127ZM867.841 130C876.641 130.133 885.307 128.2 893.841 124.2C893.041 120.2 892.641 115.6 892.641 110.4V79C882.774 75.5333 874.841 73.8 868.841 73.8C860.841 73.8 854.241 76.6 849.041 82.2C843.974 87.6667 841.441 94.4667 841.441 102.6C841.441 110.333 843.907 116.8 848.841 122C853.774 127.2 860.107 129.867 867.841 130ZM984.047 20.2L967.847 36.4L950.047 18.8L967.647 1.39999L984.047 17.4L1000.45 1.39999L1018.25 18.8L1000.65 36.4L984.047 20.2ZM985.847 51C999.18 51 1010.25 55.4667 1019.05 64.4C1027.98 73.2 1032.45 84.2667 1032.45 97.6C1032.45 113.867 1027.38 126.667 1017.25 136C1007.25 145.333 993.514 150 976.047 150H931.047C929.714 150 929.047 149.333 929.047 148V128.8C929.047 127.6 929.714 127 931.047 127H945.647C940.714 116.067 938.247 106.867 938.247 99.4C938.247 84.8667 942.647 73.2 951.447 64.4C960.247 55.4667 971.714 51 985.847 51ZM977.047 127C987.447 127 995.647 124.467 1001.65 119.4C1007.65 114.2 1010.65 107.067 1010.65 98C1010.65 90.5333 1008.18 84.4 1003.25 79.6C998.447 74.6667 992.38 72.2 985.047 72.2C977.98 72.2 971.914 74.8 966.847 80C961.914 85.2 959.447 91.4 959.447 98.6C959.447 107.667 962.247 117.133 967.847 127H977.047ZM1179.82 128.8L1180.02 148C1180.02 149.333 1179.36 150 1178.02 150C1163.09 150 1151.89 146.467 1144.42 139.4C1138.29 142.333 1130.22 144.867 1120.22 147C1110.22 149 1101.56 150 1094.22 150H1047.22L1043.42 127H1086.42L1068.02 35.6L1089.42 30.2L1106.62 126.4C1117.29 125.467 1126.82 123.933 1135.22 121.8C1134.42 117.933 1134.02 113.733 1134.02 109.2L1133.82 6.99999L1155.62 4V102.8C1155.62 118.933 1163.02 127 1177.82 127C1179.16 127 1179.82 127.6 1179.82 128.8ZM1297.52 127C1298.85 127 1299.52 127.6 1299.52 128.8V148C1299.52 149.333 1298.85 150 1297.52 150C1275.92 150 1257.85 146.333 1243.32 139C1233.98 143.267 1224.45 146.2 1214.72 147.8C1205.12 149.267 1192.92 150 1178.12 150C1176.78 149.867 1176.12 149.2 1176.12 148V128.8C1176.12 127.6 1176.78 127 1178.12 127C1190.12 127 1201.98 126.133 1213.72 124.4C1202.52 110.933 1192.45 95.6667 1183.52 78.6L1191.72 59.2C1210.25 49.8667 1226.92 45.2 1241.72 45.2C1255.32 45.2 1266.58 48.7333 1275.52 55.8C1284.45 62.8667 1288.92 71.9333 1288.92 83C1288.92 90.0667 1287.05 97.3333 1283.32 104.8C1279.58 112.133 1273.85 118.8 1266.12 124.8C1275.18 126.267 1285.65 127 1297.52 127ZM1238.52 66.8C1229.32 66.6667 1218.65 69.2667 1206.52 74.6C1215.98 92.8667 1226.52 108.4 1238.12 121.2C1246.78 117.2 1253.72 112.333 1258.92 106.6C1264.12 100.867 1266.72 95.4 1266.72 90.2C1266.72 83.2667 1264.18 77.6667 1259.12 73.4C1254.05 69 1247.18 66.8 1238.52 66.8ZM1298.04 150C1296.71 150 1296.04 149.333 1296.04 148V128.8C1296.04 127.6 1296.77 127 1298.24 127C1313.04 127 1320.44 118.933 1320.44 102.8L1320.64 6.99999L1342.24 4V109.2C1342.24 136.4 1327.51 150 1298.04 150ZM1374.59 150V6.99999L1396.39 4V150H1374.59Z"/>
</mask>
<path d="M-648.947 19.6L-648.248 18.8843L-648.955 18.1944L-649.654 18.8929L-648.947 19.6ZM-665.147 35.8L-665.85 36.5111L-665.143 37.2102L-664.44 36.5071L-665.147 35.8ZM-682.947 18.2L-683.65 17.4889L-684.369 18.1999L-683.65 18.9111L-682.947 18.2ZM-665.347 0.799988L-664.649 0.0842094L-665.352 -0.601616L-666.05 0.0888557L-665.347 0.799988ZM-648.947 16.8L-649.645 17.5158L-648.947 18.1971L-648.249 17.5158L-648.947 16.8ZM-632.547 0.799988L-631.848 0.0848923L-632.546 -0.597752L-633.245 0.0842094L-632.547 0.799988ZM-614.747 18.2L-614.04 18.9071L-613.325 18.1919L-614.048 17.4849L-614.747 18.2ZM-632.347 35.8L-633.045 36.5157L-632.338 37.2056L-631.64 36.5071L-632.347 35.8ZM-613.947 141.8L-613.273 141.061L-613.787 140.593L-614.405 140.911L-613.947 141.8ZM-682.947 137.8L-682.219 137.114L-682.947 137.8ZM-682.947 67.2L-683.693 66.5338L-683.693 66.5344L-682.947 67.2ZM-624.747 57L-625.093 57.9381L-623.747 58.4352V57H-624.747ZM-624.747 45.2L-624.884 44.2095L-625.747 44.3293V45.2H-624.747ZM-603.147 42.2L-602.147 42.197L-602.15 41.052L-603.284 41.2095L-603.147 42.2ZM-602.947 108H-601.947L-601.947 107.997L-602.947 108ZM-598.947 122.6L-599.687 123.273L-598.947 122.6ZM-649.347 130L-649.364 131L-649.362 131L-649.347 130ZM-623.347 124.2L-622.922 125.105L-622.213 124.773L-622.366 124.004L-623.347 124.2ZM-624.547 79H-623.547V78.2914L-624.215 78.0565L-624.547 79ZM-668.147 82.2L-668.88 81.5195L-668.88 81.5202L-668.147 82.2ZM-668.347 122L-669.072 122.688L-668.347 122ZM-649.654 18.8929L-665.854 35.0929L-664.44 36.5071L-648.24 20.3071L-649.654 18.8929ZM-664.444 35.0889L-682.244 17.4889L-683.65 18.9111L-665.85 36.5111L-664.444 35.0889ZM-682.244 18.9111L-664.644 1.51112L-666.05 0.0888557L-683.65 17.4889L-682.244 18.9111ZM-666.045 1.51577L-649.645 17.5158L-648.249 16.0842L-664.649 0.0842094L-666.045 1.51577ZM-648.249 17.5158L-631.849 1.51577L-633.245 0.0842094L-649.645 16.0842L-648.249 17.5158ZM-633.246 1.51509L-615.446 18.9151L-614.048 17.4849L-631.848 0.0848923L-633.246 1.51509ZM-615.454 17.4929L-633.054 35.0929L-631.64 36.5071L-614.04 18.9071L-615.454 17.4929ZM-631.648 35.0843L-648.248 18.8843L-649.645 20.3157L-633.045 36.5157L-631.648 35.0843ZM-586.147 128C-585.61 128 -585.394 128.123 -585.316 128.193C-585.258 128.245 -585.147 128.383 -585.147 128.8H-583.147C-583.147 128.017 -583.369 127.255 -583.978 126.707C-584.567 126.177 -585.351 126 -586.147 126V128ZM-585.147 128.8V148H-583.147V128.8H-585.147ZM-585.147 148C-585.147 148.513 -585.274 148.713 -585.354 148.793C-585.434 148.873 -585.634 149 -586.147 149V151C-585.326 151 -584.527 150.794 -583.94 150.207C-583.353 149.62 -583.147 148.821 -583.147 148H-585.147ZM-586.147 149C-598.562 149 -607.535 146.289 -613.273 141.061L-614.62 142.539C-608.358 148.245 -598.799 151 -586.147 151V149ZM-614.405 140.911C-627.246 147.53 -638.887 150.8 -649.347 150.8V152.8C-638.474 152.8 -626.515 149.403 -613.489 142.689L-614.405 140.911ZM-649.347 150.8C-662.69 150.8 -673.621 146.234 -682.219 137.114L-683.674 138.486C-674.673 148.033 -663.204 152.8 -649.347 152.8V150.8ZM-682.219 137.114C-690.829 127.982 -695.147 116.634 -695.147 103H-697.147C-697.147 117.099 -692.664 128.951 -683.674 138.486L-682.219 137.114ZM-695.147 103C-695.147 89.2297 -690.827 77.5376 -682.201 67.8656L-683.693 66.5344C-692.667 76.5957 -697.147 88.7703 -697.147 103H-695.147ZM-682.201 67.8662C-673.458 58.0796 -662.53 53.2 -649.347 53.2V51.2C-663.097 51.2 -674.569 56.3204 -683.693 66.5338L-682.201 67.8662ZM-649.347 53.2C-641.752 53.2 -633.67 54.7713 -625.093 57.9381L-624.4 56.0619C-633.157 52.8287 -641.475 51.2 -649.347 51.2V53.2ZM-623.747 57V45.2H-625.747V57H-623.747ZM-624.609 46.1905L-603.009 43.1905L-603.284 41.2095L-624.884 44.2095L-624.609 46.1905ZM-604.147 42.203L-603.947 108.003L-601.947 107.997L-602.147 42.197L-604.147 42.203ZM-603.947 108C-603.947 114.885 -602.605 120.062 -599.687 123.273L-598.207 121.927C-600.622 119.271 -601.947 114.715 -601.947 108H-603.947ZM-599.687 123.273C-596.755 126.498 -592.159 128 -586.147 128V126C-591.868 126 -595.805 124.569 -598.207 121.927L-599.687 123.273ZM-649.362 131C-640.4 131.136 -631.583 129.165 -622.922 125.105L-623.771 123.295C-632.177 127.235 -640.694 129.131 -649.332 129L-649.362 131ZM-622.366 124.004C-623.15 120.083 -623.547 115.551 -623.547 110.4H-625.547C-625.547 115.649 -625.143 120.317 -624.327 124.396L-622.366 124.004ZM-623.547 110.4V79H-625.547V110.4H-623.547ZM-624.215 78.0565C-634.122 74.5759 -642.18 72.8 -648.347 72.8V74.8C-642.514 74.8 -634.705 76.4907 -624.878 79.9435L-624.215 78.0565ZM-648.347 72.8C-656.61 72.8 -663.481 75.7053 -668.88 81.5195L-667.414 82.8804C-662.413 77.4947 -656.083 74.8 -648.347 74.8V72.8ZM-668.88 81.5202C-674.135 87.1894 -676.747 94.2396 -676.747 102.6H-674.747C-674.747 94.6937 -672.292 88.144 -667.413 82.8798L-668.88 81.5202ZM-676.747 102.6C-676.747 110.567 -674.197 117.287 -669.072 122.688L-667.621 121.312C-672.364 116.313 -674.747 110.099 -674.747 102.6H-676.747ZM-669.072 122.688C-663.939 128.099 -657.342 130.862 -649.364 131L-649.33 129C-656.818 128.871 -662.888 126.301 -667.621 121.312L-669.072 122.688ZM-543.541 135.2L-542.848 134.479L-543.639 133.719L-544.323 134.577L-543.541 135.2ZM-588.141 148L-589.141 147.99V148H-588.141ZM-587.941 128.8L-586.941 128.81V128.8H-587.941ZM-564.541 121.6L-563.919 122.383L-563.916 122.381L-564.541 121.6ZM-557.541 74L-557.678 73.0095L-558.541 73.1293V74H-557.541ZM-535.941 71H-534.941V69.8515L-536.078 70.0095L-535.941 71ZM-536.541 118.4L-537.53 118.252L-537.621 118.862L-537.117 119.217L-536.541 118.4ZM-548.541 179L-549.239 179.716L-548.541 180.397L-547.842 179.716L-548.541 179ZM-532.141 163L-531.442 162.285L-532.14 161.602L-532.839 162.284L-532.141 163ZM-514.341 180.4L-513.634 181.107L-512.918 180.392L-513.642 179.685L-514.341 180.4ZM-531.941 198L-532.639 198.716L-531.932 199.406L-531.234 198.707L-531.941 198ZM-548.541 181.8L-547.842 181.084L-548.549 180.394L-549.248 181.093L-548.541 181.8ZM-564.741 198L-565.444 198.711L-564.737 199.41L-564.034 198.707L-564.741 198ZM-582.541 180.4L-583.244 179.689L-583.963 180.4L-583.244 181.111L-582.541 180.4ZM-564.941 163L-564.242 162.284L-564.945 161.598L-565.644 162.289L-564.941 163ZM-510.141 128C-509.604 128 -509.388 128.123 -509.31 128.193C-509.252 128.245 -509.141 128.383 -509.141 128.8H-507.141C-507.141 128.017 -507.363 127.255 -507.972 126.707C-508.56 126.177 -509.344 126 -510.141 126V128ZM-509.141 128.8V148H-507.141V128.8H-509.141ZM-509.141 148C-509.141 148.513 -509.268 148.713 -509.348 148.793C-509.427 148.873 -509.628 149 -510.141 149V151C-509.32 151 -508.521 150.794 -507.934 150.207C-507.346 149.62 -507.141 148.821 -507.141 148H-509.141ZM-510.141 149C-521.835 149 -532.73 144.202 -542.848 134.479L-544.234 135.921C-533.818 145.931 -522.446 151 -510.141 151V149ZM-544.323 134.577C-551.907 144.089 -565.722 149 -586.141 149V151C-565.492 151 -550.908 146.045 -542.759 135.823L-544.323 134.577ZM-586.141 149C-586.653 149 -586.854 148.873 -586.934 148.793C-587.013 148.713 -587.141 148.513 -587.141 148H-589.141C-589.141 148.821 -588.935 149.62 -588.348 150.207C-587.761 150.794 -586.961 151 -586.141 151V149ZM-587.141 148.01L-586.941 128.81L-588.941 128.79L-589.141 147.99L-587.141 148.01ZM-586.941 128.8C-586.941 128.383 -586.83 128.245 -586.772 128.193C-586.694 128.123 -586.478 128 -585.941 128V126C-586.737 126 -587.521 126.177 -588.11 126.707C-588.718 127.255 -588.941 128.017 -588.941 128.8H-586.941ZM-585.941 128C-576.122 128 -568.714 126.191 -563.919 122.383L-565.163 120.817C-569.434 124.209 -576.293 126 -585.941 126V128ZM-563.916 122.381C-558.93 118.392 -556.541 112.047 -556.541 103.6H-558.541C-558.541 111.686 -560.818 117.341 -565.165 120.819L-563.916 122.381ZM-556.541 103.6V74H-558.541V103.6H-556.541ZM-557.403 74.9905L-535.803 71.9905L-536.078 70.0095L-557.678 73.0095L-557.403 74.9905ZM-536.941 71V110.4H-534.941V71H-536.941ZM-536.941 110.4C-536.941 113.016 -537.137 115.634 -537.53 118.252L-535.552 118.548C-535.144 115.833 -534.941 113.117 -534.941 110.4H-536.941ZM-537.117 119.217C-528.824 125.063 -519.825 128 -510.141 128V126C-519.39 126 -527.991 123.204 -535.964 117.583L-537.117 119.217ZM-547.842 179.716L-531.442 163.716L-532.839 162.284L-549.239 178.284L-547.842 179.716ZM-532.84 163.715L-515.04 181.115L-513.642 179.685L-531.442 162.285L-532.84 163.715ZM-515.048 179.693L-532.648 197.293L-531.234 198.707L-513.634 181.107L-515.048 179.693ZM-531.242 197.284L-547.842 181.084L-549.239 182.516L-532.639 198.716L-531.242 197.284ZM-549.248 181.093L-565.448 197.293L-564.034 198.707L-547.834 182.507L-549.248 181.093ZM-564.038 197.289L-581.838 179.689L-583.244 181.111L-565.444 198.711L-564.038 197.289ZM-581.838 181.111L-564.238 163.711L-565.644 162.289L-583.244 179.689L-581.838 181.111ZM-565.639 163.716L-549.239 179.716L-547.842 178.284L-564.242 162.284L-565.639 163.716ZM-351.564 138.2L-350.892 137.46L-351.637 136.783L-352.309 137.532L-351.564 138.2ZM-416.164 139L-415.628 138.156L-416.286 137.738L-416.852 138.274L-416.164 139ZM-476.964 138.8L-476.378 137.99L-477.068 137.49L-477.671 138.093L-476.964 138.8ZM-487.764 103.6H-486.764L-486.764 103.593L-487.764 103.6ZM-487.964 74L-488.1 73.0093L-488.97 73.129L-488.964 74.0067L-487.964 74ZM-466.164 71H-465.164V69.853L-466.3 70.0093L-466.164 71ZM-467.764 122.8L-468.73 122.542L-468.957 123.393L-468.142 123.726L-467.764 122.8ZM-426.764 103.4H-425.764L-425.764 103.393L-426.764 103.4ZM-426.964 73.8L-427.1 72.8093L-427.97 72.929L-427.964 73.8067L-426.964 73.8ZM-405.164 70.8H-404.164V69.653L-405.3 69.8093L-405.164 70.8ZM-406.764 122.8L-407.73 122.542L-407.959 123.399L-407.135 123.728L-406.764 122.8ZM-364.164 52.8L-364.302 51.8095L-365.164 51.9293V52.8H-364.164ZM-342.564 49.8H-341.564V48.6515L-342.702 48.8095L-342.564 49.8ZM-343.564 120.8L-344.547 120.618L-344.673 121.296L-344.083 121.655L-343.564 120.8ZM-321.764 128C-321.227 128 -321.011 128.123 -320.933 128.193C-320.875 128.245 -320.764 128.383 -320.764 128.8H-318.764C-318.764 128.017 -318.986 127.255 -319.595 126.707C-320.184 126.177 -320.968 126 -321.764 126V128ZM-320.764 128.8V148H-318.764V128.8H-320.764ZM-320.764 148C-320.764 148.513 -320.892 148.713 -320.971 148.793C-321.051 148.873 -321.252 149 -321.764 149V151C-320.943 151 -320.144 150.794 -319.557 150.207C-318.97 149.62 -318.764 148.821 -318.764 148H-320.764ZM-321.764 149C-332.704 149 -342.4 145.167 -350.892 137.46L-352.236 138.94C-343.395 146.966 -333.225 151 -321.764 151V149ZM-352.309 137.532C-358.993 144.988 -369.145 148.8 -382.964 148.8V150.8C-368.783 150.8 -358.002 146.879 -350.819 138.868L-352.309 137.532ZM-382.964 148.8C-393.533 148.8 -404.416 145.279 -415.628 138.156L-416.7 139.844C-405.246 147.121 -393.995 150.8 -382.964 150.8V148.8ZM-416.852 138.274C-424.223 145.257 -434.287 148.8 -447.164 148.8V150.8C-433.908 150.8 -423.305 147.143 -415.476 139.726L-416.852 138.274ZM-447.164 148.8C-456.634 148.8 -466.366 145.235 -476.378 137.99L-477.55 139.61C-467.295 147.032 -457.161 150.8 -447.164 150.8V148.8ZM-477.671 138.093C-484.887 145.309 -495.658 149 -510.164 149V151C-495.337 151 -483.974 147.224 -476.257 139.507L-477.671 138.093ZM-510.164 149C-510.677 149 -510.877 148.873 -510.957 148.793C-511.037 148.713 -511.164 148.513 -511.164 148H-513.164C-513.164 148.821 -512.958 149.62 -512.371 150.207C-511.784 150.794 -510.985 151 -510.164 151V149ZM-511.164 148V128.8H-513.164V148H-511.164ZM-511.164 128.8C-511.164 128.383 -511.053 128.245 -510.995 128.193C-510.917 128.123 -510.701 128 -510.164 128V126C-510.96 126 -511.744 126.177 -512.333 126.707C-512.942 127.255 -513.164 128.017 -513.164 128.8H-511.164ZM-510.164 128C-502.532 128 -496.627 126.005 -492.642 121.842C-488.664 117.687 -486.764 111.543 -486.764 103.6H-488.764C-488.764 111.257 -490.597 116.813 -494.086 120.458C-497.568 124.095 -502.863 126 -510.164 126V128ZM-486.764 103.593L-486.964 73.9932L-488.964 74.0067L-488.764 103.607L-486.764 103.593ZM-487.828 74.9907L-466.028 71.9907L-466.3 70.0093L-488.1 73.0093L-487.828 74.9907ZM-467.164 71V110.4H-465.164V71H-467.164ZM-467.164 110.4C-467.164 114.582 -467.687 118.629 -468.73 122.542L-466.798 123.058C-465.708 118.971 -465.164 114.751 -465.164 110.4H-467.164ZM-468.142 123.726C-461.512 126.432 -455.184 127.8 -449.164 127.8V125.8C-454.878 125.8 -460.949 124.502 -467.386 121.874L-468.142 123.726ZM-449.164 127.8C-441.532 127.8 -435.627 125.805 -431.642 121.641C-427.664 117.487 -425.764 111.343 -425.764 103.4H-427.764C-427.764 111.057 -429.597 116.613 -433.086 120.258C-436.568 123.895 -441.863 125.8 -449.164 125.8V127.8ZM-425.764 103.393L-425.964 73.7932L-427.964 73.8067L-427.764 103.407L-425.764 103.393ZM-426.828 74.7907L-405.028 71.7907L-405.3 69.8093L-427.1 72.8093L-426.828 74.7907ZM-406.164 70.8V110.2H-404.164V70.8H-406.164ZM-406.164 110.2C-406.164 114.518 -406.687 118.632 -407.73 122.542L-405.798 123.058C-404.707 118.969 -404.164 114.682 -404.164 110.2H-406.164ZM-407.135 123.728C-400.355 126.441 -393.429 127.8 -386.364 127.8V125.8C-393.166 125.8 -399.84 124.493 -406.393 121.872L-407.135 123.728ZM-386.364 127.8C-378.796 127.8 -372.94 125.803 -368.989 121.638C-365.047 117.483 -363.164 111.341 -363.164 103.4H-365.164C-365.164 111.059 -366.981 116.617 -370.44 120.262C-373.888 123.897 -379.132 125.8 -386.364 125.8V127.8ZM-363.164 103.4V52.8H-365.164V103.4H-363.164ZM-364.026 53.7905L-342.426 50.7905L-342.702 48.8095L-364.302 51.8095L-364.026 53.7905ZM-343.564 49.8V110.2H-341.564V49.8H-343.564ZM-343.564 110.2C-343.564 113.602 -343.891 117.075 -344.547 120.618L-342.581 120.982C-341.904 117.325 -341.564 113.731 -341.564 110.2H-343.564ZM-344.083 121.655C-337.132 125.88 -329.686 128 -321.764 128V126C-329.309 126 -336.396 123.987 -343.045 119.945L-344.083 121.655ZM-270.688 40.6L-269.98 41.3071L-269.261 40.5879L-269.992 39.881L-270.688 40.6ZM-288.288 58.2L-288.987 58.915L-288.28 59.6063L-287.58 58.9071L-288.288 58.2ZM-306.288 40.6L-306.991 39.8889L-307.714 40.6039L-306.987 41.315L-306.288 40.6ZM-288.688 23.2L-287.992 22.481L-288.695 21.8016L-289.391 22.4889L-288.688 23.2ZM-285.888 137L-285.212 136.262L-285.972 135.566L-286.645 136.347L-285.888 137ZM-323.688 148L-324.688 147.99V148H-323.688ZM-323.487 128.8L-322.487 128.81V128.8H-323.487ZM-299.087 103.6H-298.087L-298.088 103.593L-299.087 103.6ZM-299.288 74L-299.424 73.0093L-300.293 73.129L-300.287 74.0067L-299.288 74ZM-277.487 71H-276.487V69.853L-277.624 70.0093L-277.487 71ZM-278.288 119.6L-279.268 119.404L-279.399 120.058L-278.846 120.43L-278.288 119.6ZM-271.395 39.8929L-288.995 57.4929L-287.58 58.9071L-269.98 41.3071L-271.395 39.8929ZM-287.588 57.485L-305.588 39.885L-306.987 41.315L-288.987 58.915L-287.588 57.485ZM-305.584 41.3111L-287.984 23.9111L-289.391 22.4889L-306.991 39.8889L-305.584 41.3111ZM-289.383 23.919L-271.383 41.319L-269.992 39.881L-287.992 22.481L-289.383 23.919ZM-254.487 128C-253.95 128 -253.734 128.123 -253.656 128.193C-253.599 128.245 -253.487 128.383 -253.487 128.8H-251.487C-251.487 128.017 -251.71 127.255 -252.319 126.707C-252.907 126.177 -253.691 126 -254.487 126V128ZM-253.487 128.8V148H-251.487V128.8H-253.487ZM-253.487 148C-253.487 148.513 -253.615 148.713 -253.695 148.793C-253.774 148.873 -253.975 149 -254.487 149V151C-253.667 151 -252.867 150.794 -252.28 150.207C-251.693 149.62 -251.487 148.821 -251.487 148H-253.487ZM-254.487 149C-265.674 149 -275.906 144.782 -285.212 136.262L-286.563 137.738C-276.935 146.551 -266.235 151 -254.487 151V149ZM-286.645 136.347C-293.851 144.711 -305.449 149 -321.688 149V151C-305.126 151 -292.858 146.622 -285.13 137.653L-286.645 136.347ZM-321.688 149C-322.2 149 -322.401 148.873 -322.48 148.793C-322.56 148.713 -322.688 148.513 -322.688 148H-324.688C-324.688 148.821 -324.482 149.62 -323.895 150.207C-323.308 150.794 -322.508 151 -321.688 151V149ZM-322.688 148.01L-322.488 128.81L-324.487 128.79L-324.687 147.99L-322.688 148.01ZM-322.487 128.8C-322.487 128.383 -322.376 128.245 -322.319 128.193C-322.241 128.123 -322.025 128 -321.487 128V126C-322.284 126 -323.068 126.177 -323.656 126.707C-324.265 127.255 -324.487 128.017 -324.487 128.8H-322.487ZM-321.487 128C-313.855 128 -307.95 126.005 -303.965 121.842C-299.988 117.687 -298.087 111.543 -298.087 103.6H-300.087C-300.087 111.257 -301.921 116.813 -305.41 120.458C-308.891 124.095 -314.186 126 -321.487 126V128ZM-298.088 103.593L-298.288 73.9932L-300.287 74.0067L-300.087 103.607L-298.088 103.593ZM-299.151 74.9907L-277.351 71.9907L-277.624 70.0093L-299.424 73.0093L-299.151 74.9907ZM-278.487 71V110.4H-276.487V71H-278.487ZM-278.487 110.4C-278.487 113.818 -278.751 116.817 -279.268 119.404L-277.307 119.796C-276.758 117.05 -276.487 113.916 -276.487 110.4H-278.487ZM-278.846 120.43C-271.354 125.47 -263.227 128 -254.487 128V126C-262.815 126 -270.555 123.597 -277.729 118.77L-278.846 120.43ZM-166.1 129L-165.143 128.708L-165.48 127.604L-166.525 128.095L-166.1 129ZM-210.3 145L-210.066 145.972L-210.3 145ZM-164.1 107.4L-163.684 108.309L-162.192 107.626L-163.482 106.613L-164.1 107.4ZM-199.9 82.2L-200.383 83.0757L-200.371 83.0819L-199.9 82.2ZM-241.5 78.8L-242.477 79.0116L-242.265 79.9928L-241.285 79.7765L-241.5 78.8ZM-245.7 59.4L-246.059 58.4667L-246.859 58.7742L-246.677 59.6116L-245.7 59.4ZM-191.1 61.8L-191.594 62.6697L-191.585 62.6747L-191.1 61.8ZM-141.9 97L-140.915 97.1717L-140.812 96.5826L-141.283 96.2134L-141.9 97ZM-145.7 118.8L-145.221 119.678L-144.798 119.447L-144.715 118.972L-145.7 118.8ZM-152.3 122.2L-152.714 121.29L-154.169 121.951L-152.938 122.97L-152.3 122.2ZM-209.7 178.8L-210.407 178.093L-211.126 178.812L-210.395 179.519L-209.7 178.8ZM-192.1 161.2L-191.401 160.485L-192.108 159.794L-192.807 160.493L-192.1 161.2ZM-174.1 178.8L-173.397 179.511L-172.674 178.796L-173.401 178.085L-174.1 178.8ZM-191.7 196.2L-192.395 196.919L-191.692 197.598L-190.997 196.911L-191.7 196.2ZM-127.7 128C-127.163 128 -126.947 128.123 -126.869 128.193C-126.811 128.245 -126.7 128.383 -126.7 128.8H-124.7C-124.7 128.017 -124.922 127.255 -125.531 126.707C-126.12 126.177 -126.904 126 -127.7 126V128ZM-126.7 128.8V148H-124.7V128.8H-126.7ZM-126.7 148C-126.7 148.513 -126.827 148.713 -126.907 148.793C-126.987 148.873 -127.188 149 -127.7 149V151C-126.879 151 -126.08 150.794 -125.493 150.207C-124.906 149.62 -124.7 148.821 -124.7 148H-126.7ZM-127.7 149H-134.9V151H-127.7V149ZM-134.9 149C-143.03 149 -149.552 147.279 -154.542 143.92C-159.52 140.57 -163.065 135.527 -165.143 128.708L-167.057 129.292C-164.868 136.473 -161.08 141.93 -155.658 145.58C-150.248 149.221 -143.303 151 -134.9 151V149ZM-166.525 128.095C-182.076 135.405 -196.745 140.713 -210.534 144.028L-210.066 145.972C-196.122 142.62 -181.324 137.261 -165.675 129.905L-166.525 128.095ZM-210.534 144.028C-224.318 147.341 -238.905 149 -254.3 149V151C-238.761 151 -224.016 149.326 -210.066 145.972L-210.534 144.028ZM-254.3 149C-254.902 149 -255.166 148.861 -255.277 148.76C-255.371 148.675 -255.5 148.487 -255.5 148H-257.5C-257.5 148.847 -257.263 149.658 -256.623 150.24C-256.001 150.805 -255.165 151 -254.3 151V149ZM-255.5 148V128.8H-257.5V148H-255.5ZM-255.5 128.8C-255.5 128.413 -255.392 128.285 -255.317 128.224C-255.204 128.131 -254.922 128 -254.3 128V126C-255.144 126 -255.963 126.169 -256.583 126.676C-257.242 127.215 -257.5 127.987 -257.5 128.8H-255.5ZM-254.3 128C-222.557 128 -192.349 121.436 -163.684 108.309L-164.516 106.491C-192.918 119.497 -222.843 126 -254.3 126V128ZM-163.482 106.613C-179.617 93.9456 -191.611 85.4966 -199.429 81.3181L-200.371 83.0819C-192.723 87.1701 -180.849 95.521 -164.718 108.187L-163.482 106.613ZM-199.417 81.3244C-207.262 76.9962 -214.827 74.8 -222.1 74.8V76.8C-215.239 76.8 -208.005 78.8705 -200.383 83.0756L-199.417 81.3244ZM-222.1 74.8C-226.087 74.8 -232.649 75.8235 -241.715 77.8235L-241.285 79.7765C-232.218 77.7765 -225.846 76.8 -222.1 76.8V74.8ZM-240.523 78.5884L-244.723 59.1884L-246.677 59.6116L-242.477 79.0116L-240.523 78.5884ZM-245.341 60.3333C-235.002 56.3569 -226.264 54.4 -219.1 54.4V52.4C-226.603 52.4 -235.598 54.4431 -246.059 58.4667L-245.341 60.3333ZM-219.1 54.4C-210.516 54.4 -201.352 57.131 -191.594 62.6697L-190.606 60.9303C-200.581 55.269 -210.084 52.4 -219.1 52.4V54.4ZM-191.585 62.6747C-181.797 68.0978 -165.454 79.7839 -142.517 97.7866L-141.283 96.2134C-164.212 78.2161 -180.67 66.4356 -190.615 60.9253L-191.585 62.6747ZM-142.885 96.8283L-146.685 118.628L-144.715 118.972L-140.915 97.1717L-142.885 96.8283ZM-146.179 117.922C-149.108 119.52 -151.282 120.639 -152.714 121.29L-151.886 123.11C-150.385 122.428 -148.158 121.28 -145.221 119.678L-146.179 117.922ZM-152.938 122.97C-148.815 126.383 -142.675 128 -134.7 128V126C-142.459 126 -148.052 124.417 -151.662 121.43L-152.938 122.97ZM-134.7 128H-127.7V126H-134.7V128ZM-208.993 179.507L-191.393 161.907L-192.807 160.493L-210.407 178.093L-208.993 179.507ZM-192.799 161.915L-174.799 179.515L-173.401 178.085L-191.401 160.485L-192.799 161.915ZM-174.803 178.089L-192.403 195.489L-190.997 196.911L-173.397 179.511L-174.803 178.089ZM-191.005 195.481L-209.005 178.081L-210.395 179.519L-192.395 196.919L-191.005 195.481ZM-105.342 102.8L-106.342 102.798V102.8H-105.342ZM-105.142 6.99999L-105.28 6.0095L-106.14 6.12903L-106.142 6.9979L-105.142 6.99999ZM-83.5422 4H-82.5422V2.85151L-83.6797 3.0095L-83.5422 4ZM-127.742 149C-128.255 149 -128.455 148.873 -128.535 148.793C-128.615 148.713 -128.742 148.513 -128.742 148H-130.742C-130.742 148.821 -130.536 149.62 -129.949 150.207C-129.362 150.794 -128.563 151 -127.742 151V149ZM-128.742 148V128.8H-130.742V148H-128.742ZM-128.742 128.8C-128.742 128.413 -128.634 128.285 -128.559 128.224C-128.446 128.131 -128.165 128 -127.542 128V126C-128.386 126 -129.205 126.169 -129.825 126.676C-130.484 127.215 -130.742 127.987 -130.742 128.8H-128.742ZM-127.542 128C-119.965 128 -114.104 125.931 -110.155 121.626C-106.221 117.337 -104.342 111 -104.342 102.8H-106.342C-106.342 110.733 -108.163 116.496 -111.629 120.274C-115.08 124.036 -120.32 126 -127.542 126V128ZM-104.342 102.802L-104.142 7.00208L-106.142 6.9979L-106.342 102.798L-104.342 102.802ZM-105.005 7.99049L-83.4046 4.99049L-83.6797 3.0095L-105.28 6.0095L-105.005 7.99049ZM-84.5422 4V109.2H-82.5422V4H-84.5422ZM-84.5422 109.2C-84.5422 122.624 -88.1743 132.515 -95.2704 139.065C-102.382 145.63 -113.144 149 -127.742 149V151C-112.874 151 -101.536 147.57 -93.9139 140.535C-86.2768 133.485 -82.5422 122.976 -82.5422 109.2H-84.5422ZM-51.1953 150H-52.1953V151H-51.1953V150ZM-51.1953 6.99999L-51.3317 6.00933L-52.1953 6.12818V6.99999H-51.1953ZM-29.3953 4H-28.3953V2.85296L-29.5316 3.00933L-29.3953 4ZM-29.3953 150V151H-28.3953V150H-29.3953ZM-50.1953 150V6.99999H-52.1953V150H-50.1953ZM-51.059 7.99065L-29.259 4.99066L-29.5316 3.00933L-51.3317 6.00933L-51.059 7.99065ZM-30.3953 4V150H-28.3953V4H-30.3953ZM-29.3953 149H-51.1953V151H-29.3953V149ZM85.8187 19.6L86.5172 18.8843L85.8102 18.1944L85.1116 18.8929L85.8187 19.6ZM69.6188 35.8L68.9156 36.5111L69.6227 37.2102L70.3259 36.5071L69.6188 35.8ZM51.8187 18.2L51.1157 17.4889L50.3964 18.1999L51.1157 18.9111L51.8187 18.2ZM69.4188 0.799988L70.1171 0.0842094L69.4141 -0.601616L68.7157 0.0888557L69.4188 0.799988ZM85.8187 16.8L85.1204 17.5158L85.8187 18.1971L86.5171 17.5158L85.8187 16.8ZM102.219 0.799988L102.918 0.0848923L102.219 -0.597752L101.52 0.0842094L102.219 0.799988ZM120.019 18.2L120.726 18.9071L121.441 18.1919L120.718 17.4849L120.019 18.2ZM102.419 35.8L101.72 36.5157L102.427 37.2056L103.126 36.5071L102.419 35.8ZM120.819 141.8L121.492 141.061L120.978 140.593L120.361 140.911L120.819 141.8ZM51.8187 137.8L52.5463 137.114L51.8187 137.8ZM51.8187 67.2L51.073 66.5338L51.0724 66.5344L51.8187 67.2ZM110.019 57L109.672 57.9381L111.019 58.4352V57H110.019ZM110.019 45.2L109.881 44.2095L109.019 44.3293V45.2H110.019ZM131.619 42.2L132.619 42.197L132.615 41.052L131.481 41.2095L131.619 42.2ZM131.819 108H132.819L132.819 107.997L131.819 108ZM135.819 122.6L135.079 123.273L135.819 122.6ZM85.4188 130L85.4015 131L85.4036 131L85.4188 130ZM111.419 124.2L111.843 125.105L112.553 124.773L112.399 124.004L111.419 124.2ZM110.219 79H111.219V78.2914L110.55 78.0565L110.219 79ZM66.6188 82.2L65.886 81.5195L65.8853 81.5202L66.6188 82.2ZM66.4188 122L65.6933 122.688L66.4188 122ZM85.1116 18.8929L68.9116 35.0929L70.3259 36.5071L86.5259 20.3071L85.1116 18.8929ZM70.3218 35.0889L52.5219 17.4889L51.1157 18.9111L68.9156 36.5111L70.3218 35.0889ZM52.5218 18.9111L70.1218 1.51112L68.7157 0.0888557L51.1157 17.4889L52.5218 18.9111ZM68.7204 1.51577L85.1204 17.5158L86.5171 16.0842L70.1171 0.0842094L68.7204 1.51577ZM86.5171 17.5158L102.917 1.51577L101.52 0.0842094L85.1204 16.0842L86.5171 17.5158ZM101.52 1.51509L119.32 18.9151L120.718 17.4849L102.918 0.0848923L101.52 1.51509ZM119.312 17.4929L101.712 35.0929L103.126 36.5071L120.726 18.9071L119.312 17.4929ZM103.117 35.0843L86.5172 18.8843L85.1203 20.3157L101.72 36.5157L103.117 35.0843ZM148.619 128C149.156 128 149.372 128.123 149.45 128.193C149.508 128.245 149.619 128.383 149.619 128.8H151.619C151.619 128.017 151.396 127.255 150.788 126.707C150.199 126.177 149.415 126 148.619 126V128ZM149.619 128.8V148H151.619V128.8H149.619ZM149.619 148C149.619 148.513 149.491 148.713 149.412 148.793C149.332 148.873 149.131 149 148.619 149V151C149.44 151 150.239 150.794 150.826 150.207C151.413 149.62 151.619 148.821 151.619 148H149.619ZM148.619 149C136.204 149 127.23 146.289 121.492 141.061L120.145 142.539C126.407 148.245 135.967 151 148.619 151V149ZM120.361 140.911C107.52 147.53 95.8787 150.8 85.4188 150.8V152.8C96.2921 152.8 108.251 149.403 121.277 142.689L120.361 140.911ZM85.4188 150.8C72.0756 150.8 61.145 146.234 52.5463 137.114L51.0912 138.486C60.0925 148.033 71.5619 152.8 85.4188 152.8V150.8ZM52.5463 137.114C43.9362 127.982 39.6188 116.634 39.6188 103H37.6188C37.6188 117.099 42.1013 128.951 51.0912 138.486L52.5463 137.114ZM39.6188 103C39.6188 89.2297 43.9387 77.5376 52.5651 67.8656L51.0724 66.5344C42.0988 76.5957 37.6188 88.7703 37.6188 103H39.6188ZM52.5645 67.8662C61.3072 58.0796 72.2355 53.2 85.4188 53.2V51.2C71.6687 51.2 60.197 56.3204 51.073 66.5338L52.5645 67.8662ZM85.4188 53.2C93.0134 53.2 101.096 54.7713 109.672 57.9381L110.365 56.0619C101.609 52.8287 93.2908 51.2 85.4188 51.2V53.2ZM111.019 57V45.2H109.019V57H111.019ZM110.156 46.1905L131.756 43.1905L131.481 41.2095L109.881 44.2095L110.156 46.1905ZM130.619 42.203L130.819 108.003L132.819 107.997L132.619 42.197L130.619 42.203ZM130.819 108C130.819 114.885 132.16 120.062 135.079 123.273L136.559 121.927C134.144 119.271 132.819 114.715 132.819 108H130.819ZM135.079 123.273C138.011 126.498 142.607 128 148.619 128V126C142.897 126 138.96 124.569 136.559 121.927L135.079 123.273ZM85.4036 131C94.366 131.136 103.182 129.165 111.843 125.105L110.994 123.295C102.589 127.235 94.0715 129.131 85.4339 129L85.4036 131ZM112.399 124.004C111.615 120.083 111.219 115.551 111.219 110.4H109.219C109.219 115.649 109.622 120.317 110.438 124.396L112.399 124.004ZM111.219 110.4V79H109.219V110.4H111.219ZM110.55 78.0565C100.644 74.5759 92.5856 72.8 86.4188 72.8V74.8C92.2519 74.8 100.06 76.4907 109.887 79.9435L110.55 78.0565ZM86.4188 72.8C78.1554 72.8 71.2849 75.7053 65.886 81.5195L67.3516 82.8804C72.3525 77.4947 78.6821 74.8 86.4188 74.8V72.8ZM65.8853 81.5202C60.631 87.1894 58.0187 94.2396 58.0187 102.6H60.0187C60.0187 94.6937 62.4731 88.144 67.3522 82.8798L65.8853 81.5202ZM58.0187 102.6C58.0187 110.567 60.569 117.287 65.6933 122.688L67.1442 121.312C62.4018 116.313 60.0187 110.099 60.0187 102.6H58.0187ZM65.6933 122.688C70.8269 128.099 77.4233 130.862 85.4015 131L85.436 129C77.9474 128.871 71.8773 126.301 67.1442 121.312L65.6933 122.688ZM191.225 135.2L191.918 134.479L191.127 133.719L190.443 134.577L191.225 135.2ZM146.625 148L145.625 147.99V148H146.625ZM146.825 128.8L147.825 128.81V128.8H146.825ZM170.225 121.6L170.847 122.383L170.85 122.381L170.225 121.6ZM177.225 74L177.087 73.0095L176.225 73.1293V74H177.225ZM198.825 71H199.825V69.8515L198.687 70.0095L198.825 71ZM198.225 118.4L197.236 118.252L197.145 118.862L197.649 119.217L198.225 118.4ZM186.225 179L185.527 179.716L186.225 180.397L186.923 179.716L186.225 179ZM202.625 163L203.324 162.285L202.626 161.602L201.927 162.284L202.625 163ZM220.425 180.4L221.132 181.107L221.847 180.392L221.124 179.685L220.425 180.4ZM202.825 198L202.127 198.716L202.834 199.406L203.532 198.707L202.825 198ZM186.225 181.8L186.923 181.084L186.216 180.394L185.518 181.093L186.225 181.8ZM170.025 198L169.322 198.711L170.029 199.41L170.732 198.707L170.025 198ZM152.225 180.4L151.522 179.689L150.803 180.4L151.522 181.111L152.225 180.4ZM169.825 163L170.523 162.284L169.82 161.598L169.122 162.289L169.825 163ZM224.625 128C225.162 128 225.378 128.123 225.456 128.193C225.514 128.245 225.625 128.383 225.625 128.8H227.625C227.625 128.017 227.403 127.255 226.794 126.707C226.205 126.177 225.421 126 224.625 126V128ZM225.625 128.8V148H227.625V128.8H225.625ZM225.625 148C225.625 148.513 225.498 148.713 225.418 148.793C225.338 148.873 225.138 149 224.625 149V151C225.446 151 226.245 150.794 226.832 150.207C227.419 149.62 227.625 148.821 227.625 148H225.625ZM224.625 149C212.931 149 202.035 144.202 191.918 134.479L190.532 135.921C200.948 145.931 212.319 151 224.625 151V149ZM190.443 134.577C182.859 144.089 169.043 149 148.625 149V151C169.274 151 183.858 146.045 192.007 135.823L190.443 134.577ZM148.625 149C148.112 149 147.912 148.873 147.832 148.793C147.752 148.713 147.625 148.513 147.625 148H145.625C145.625 148.821 145.831 149.62 146.418 150.207C147.005 150.794 147.804 151 148.625 151V149ZM147.625 148.01L147.825 128.81L145.825 128.79L145.625 147.99L147.625 148.01ZM147.825 128.8C147.825 128.383 147.936 128.245 147.994 128.193C148.072 128.123 148.288 128 148.825 128V126C148.029 126 147.245 126.177 146.656 126.707C146.047 127.255 145.825 128.017 145.825 128.8H147.825ZM148.825 128C158.644 128 166.051 126.191 170.847 122.383L169.603 120.817C165.332 124.209 158.473 126 148.825 126V128ZM170.85 122.381C175.835 118.392 178.225 112.047 178.225 103.6H176.225C176.225 111.686 173.948 117.341 169.6 120.819L170.85 122.381ZM178.225 103.6V74H176.225V103.6H178.225ZM177.363 74.9905L198.963 71.9905L198.687 70.0095L177.087 73.0095L177.363 74.9905ZM197.825 71V110.4H199.825V71H197.825ZM197.825 110.4C197.825 113.016 197.629 115.634 197.236 118.252L199.214 118.548C199.621 115.833 199.825 113.117 199.825 110.4H197.825ZM197.649 119.217C205.942 125.063 214.941 128 224.625 128V126C215.376 126 206.775 123.204 198.801 117.583L197.649 119.217ZM186.923 179.716L203.323 163.716L201.927 162.284L185.527 178.284L186.923 179.716ZM201.926 163.715L219.726 181.115L221.124 179.685L203.324 162.285L201.926 163.715ZM219.718 179.693L202.118 197.293L203.532 198.707L221.132 181.107L219.718 179.693ZM203.523 197.284L186.923 181.084L185.527 182.516L202.127 198.716L203.523 197.284ZM185.518 181.093L169.318 197.293L170.732 198.707L186.932 182.507L185.518 181.093ZM170.728 197.289L152.928 179.689L151.522 181.111L169.322 198.711L170.728 197.289ZM152.928 181.111L170.528 163.711L169.122 162.289L151.522 179.689L152.928 181.111ZM169.127 163.716L185.527 179.716L186.923 178.284L170.523 162.284L169.127 163.716ZM256.402 140.2L256.992 139.393L256.444 138.992L255.87 139.353L256.402 140.2ZM242.202 123.6L242.593 124.52L243.539 124.118L243.111 123.184L242.202 123.6ZM250.002 64.4L250.709 65.1071L250.714 65.1018L250.002 64.4ZM316.202 64.4L315.5 65.1123L315.505 65.1176L316.202 64.4ZM324.002 127L323.056 126.674L322.598 128H324.002V127ZM303.402 127V128H304.125L304.351 127.313L303.402 127ZM301.802 80.2L301.041 80.8493L301.049 80.8585L301.802 80.2ZM265.602 79.4L264.885 78.7026L264.885 78.7029L265.602 79.4ZM266.802 119.2L266.103 119.916L266.112 119.925L266.802 119.2ZM338.202 128C338.739 128 338.955 128.123 339.033 128.193C339.091 128.245 339.202 128.383 339.202 128.8H341.202C341.202 128.017 340.979 127.255 340.37 126.707C339.782 126.177 338.998 126 338.202 126V128ZM339.202 128.8V148H341.202V128.8H339.202ZM339.202 148C339.202 148.513 339.074 148.713 338.995 148.793C338.915 148.873 338.714 149 338.202 149V151C339.022 151 339.822 150.794 340.409 150.207C340.996 149.62 341.202 148.821 341.202 148H339.202ZM338.202 149H290.202V151H338.202V149ZM290.202 149C276.764 149 265.718 145.775 256.992 139.393L255.811 141.007C264.952 147.692 276.439 151 290.202 151V149ZM255.87 139.353C245.607 145.801 235.189 149 224.602 149V151C235.615 151 246.397 147.666 256.934 141.047L255.87 139.353ZM224.602 149C224.089 149 223.888 148.873 223.809 148.793C223.729 148.713 223.602 148.513 223.602 148H221.602C221.602 148.821 221.807 149.62 222.394 150.207C222.981 150.794 223.781 151 224.602 151V149ZM223.602 148V128.8H221.602V148H223.602ZM223.602 128.8C223.602 128.383 223.713 128.245 223.771 128.193C223.849 128.123 224.065 128 224.602 128V126C223.805 126 223.021 126.177 222.433 126.707C221.824 127.255 221.602 128.017 221.602 128.8H223.602ZM224.602 128C231.122 128 237.123 126.845 242.593 124.52L241.81 122.68C236.613 124.889 230.881 126 224.602 126V128ZM243.111 123.184C239.574 115.456 237.802 107.066 237.802 98H235.802C235.802 107.334 237.629 116.011 241.292 124.016L243.111 123.184ZM237.802 98C237.802 84.6381 242.115 73.7012 250.709 65.1071L249.294 63.6929C240.289 72.6987 235.802 84.1619 235.802 98H237.802ZM250.714 65.1018C259.309 56.3764 270.244 52 283.602 52V50C269.759 50 258.294 54.557 249.289 63.6982L250.714 65.1018ZM283.602 52C296.004 52 306.619 56.3623 315.5 65.1123L316.903 63.6877C307.651 54.571 296.532 50 283.602 50V52ZM315.505 65.1176C324.387 73.738 328.802 83.9493 328.802 95.8H330.802C330.802 83.384 326.15 72.662 316.898 63.6824L315.505 65.1176ZM328.802 95.8C328.802 105.266 326.895 115.555 323.056 126.674L324.947 127.326C328.842 116.045 330.802 105.534 330.802 95.8H328.802ZM324.002 128H338.202V126H324.002V128ZM289.202 128H303.402V126H289.202V128ZM304.351 127.313C307.97 116.323 309.802 106.878 309.802 99H307.802C307.802 106.589 306.033 115.811 302.452 126.687L304.351 127.313ZM309.802 99C309.802 91.562 307.383 85.0603 302.554 79.5415L301.049 80.8585C305.553 86.0064 307.802 92.038 307.802 99H309.802ZM302.562 79.5507C297.713 73.8709 291.64 71 284.402 71V73C291.03 73 296.556 75.5958 301.041 80.8493L302.562 79.5507ZM284.402 71C276.435 71 269.897 73.5511 264.885 78.7026L266.318 80.0974C270.906 75.3822 276.902 73 284.402 73V71ZM264.885 78.7029C260.005 83.7219 257.602 90.3219 257.602 98.4H259.602C259.602 90.7448 261.865 84.6781 266.319 80.0971L264.885 78.7029ZM257.602 98.4C257.602 107.168 260.42 114.371 266.103 119.916L267.5 118.484C262.25 113.362 259.602 106.699 259.602 98.4H257.602ZM266.112 119.925C271.809 125.344 279.547 128 289.202 128V126C279.923 126 272.727 123.456 267.491 118.475L266.112 119.925ZM380.873 135.2L381.566 134.479L380.775 133.719L380.092 134.577L380.873 135.2ZM336.273 148L335.273 147.99V148H336.273ZM336.473 128.8L337.473 128.81V128.8H336.473ZM359.873 121.6L360.495 122.383L360.498 122.381L359.873 121.6ZM366.873 74L366.736 73.0095L365.873 73.1293V74H366.873ZM388.473 71H389.473V69.8515L388.336 70.0095L388.473 71ZM387.873 118.4L386.885 118.252L386.793 118.862L387.297 119.217L387.873 118.4ZM375.873 179L375.175 179.716L375.873 180.397L376.572 179.716L375.873 179ZM392.273 163L392.972 162.285L392.274 161.602L391.575 162.284L392.273 163ZM410.073 180.4L410.781 181.107L411.496 180.392L410.772 179.685L410.073 180.4ZM392.473 198L391.775 198.716L392.482 199.406L393.181 198.707L392.473 198ZM375.873 181.8L376.572 181.084L375.865 180.394L375.166 181.093L375.873 181.8ZM359.673 198L358.97 198.711L359.677 199.41L360.38 198.707L359.673 198ZM341.873 180.4L341.17 179.689L340.451 180.4L341.17 181.111L341.873 180.4ZM359.473 163L360.172 162.284L359.469 161.598L358.77 162.289L359.473 163ZM414.273 128C414.81 128 415.026 128.123 415.104 128.193C415.162 128.245 415.273 128.383 415.273 128.8H417.273C417.273 128.017 417.051 127.255 416.442 126.707C415.854 126.177 415.07 126 414.273 126V128ZM415.273 128.8V148H417.273V128.8H415.273ZM415.273 148C415.273 148.513 415.146 148.713 415.066 148.793C414.987 148.873 414.786 149 414.273 149V151C415.094 151 415.894 150.794 416.481 150.207C417.068 149.62 417.273 148.821 417.273 148H415.273ZM414.273 149C402.579 149 391.684 144.202 381.566 134.479L380.181 135.921C390.596 145.931 401.968 151 414.273 151V149ZM380.092 134.577C372.507 144.089 358.692 149 338.273 149V151C358.922 151 373.506 146.045 381.655 135.823L380.092 134.577ZM338.273 149C337.761 149 337.56 148.873 337.481 148.793C337.401 148.713 337.273 148.513 337.273 148H335.273C335.273 148.821 335.479 149.62 336.066 150.207C336.653 150.794 337.453 151 338.273 151V149ZM337.273 148.01L337.473 128.81L335.474 128.79L335.273 147.99L337.273 148.01ZM337.473 128.8C337.473 128.383 337.584 128.245 337.642 128.193C337.72 128.123 337.936 128 338.473 128V126C337.677 126 336.893 126.177 336.304 126.707C335.696 127.255 335.473 128.017 335.473 128.8H337.473ZM338.473 128C348.292 128 355.7 126.191 360.495 122.383L359.252 120.817C354.98 124.209 348.121 126 338.473 126V128ZM360.498 122.381C365.484 118.392 367.873 112.047 367.873 103.6H365.873C365.873 111.686 363.596 117.341 359.249 120.819L360.498 122.381ZM367.873 103.6V74H365.873V103.6H367.873ZM367.011 74.9905L388.611 71.9905L388.336 70.0095L366.736 73.0095L367.011 74.9905ZM387.473 71V110.4H389.473V71H387.473ZM387.473 110.4C387.473 113.016 387.277 115.634 386.885 118.252L388.862 118.548C389.27 115.833 389.473 113.117 389.473 110.4H387.473ZM387.297 119.217C395.59 125.063 404.59 128 414.273 128V126C405.024 126 396.423 123.204 388.45 117.583L387.297 119.217ZM376.572 179.716L392.972 163.716L391.575 162.284L375.175 178.284L376.572 179.716ZM391.574 163.715L409.374 181.115L410.772 179.685L392.972 162.285L391.574 163.715ZM409.366 179.693L391.766 197.293L393.181 198.707L410.781 181.107L409.366 179.693ZM393.172 197.284L376.572 181.084L375.175 182.516L391.775 198.716L393.172 197.284ZM375.166 181.093L358.966 197.293L360.38 198.707L376.581 182.507L375.166 181.093ZM360.377 197.289L342.577 179.689L341.17 181.111L358.97 198.711L360.377 197.289ZM342.577 181.111L360.177 163.711L358.77 162.289L341.17 179.689L342.577 181.111ZM358.775 163.716L375.175 179.716L376.572 178.284L360.172 162.284L358.775 163.716ZM446.05 140.2L446.64 139.393L446.093 138.992L445.518 139.353L446.05 140.2ZM431.85 123.6L432.241 124.52L433.187 124.118L432.759 123.184L431.85 123.6ZM439.65 64.4L440.357 65.1071L440.362 65.1018L439.65 64.4ZM505.85 64.4L505.148 65.1123L505.154 65.1176L505.85 64.4ZM513.65 127L512.705 126.674L512.247 128H513.65V127ZM493.05 127V128H493.774L494 127.313L493.05 127ZM491.45 80.2L490.689 80.8493L490.697 80.8585L491.45 80.2ZM455.25 79.4L454.533 78.7026L454.533 78.7029L455.25 79.4ZM456.45 119.2L455.752 119.916L455.761 119.925L456.45 119.2ZM527.85 128C528.387 128 528.603 128.123 528.681 128.193C528.739 128.245 528.85 128.383 528.85 128.8H530.85C530.85 128.017 530.628 127.255 530.019 126.707C529.43 126.177 528.646 126 527.85 126V128ZM528.85 128.8V148H530.85V128.8H528.85ZM528.85 148C528.85 148.513 528.723 148.713 528.643 148.793C528.563 148.873 528.363 149 527.85 149V151C528.671 151 529.47 150.794 530.057 150.207C530.644 149.62 530.85 148.821 530.85 148H528.85ZM527.85 149H479.85V151H527.85V149ZM479.85 149C466.413 149 455.366 145.775 446.64 139.393L445.46 141.007C454.6 147.692 466.087 151 479.85 151V149ZM445.518 139.353C435.255 145.801 424.837 149 414.25 149V151C425.263 151 436.045 147.666 446.582 141.047L445.518 139.353ZM414.25 149C413.737 149 413.537 148.873 413.457 148.793C413.377 148.713 413.25 148.513 413.25 148H411.25C411.25 148.821 411.456 149.62 412.043 150.207C412.63 150.794 413.429 151 414.25 151V149ZM413.25 148V128.8H411.25V148H413.25ZM413.25 128.8C413.25 128.383 413.361 128.245 413.419 128.193C413.497 128.123 413.713 128 414.25 128V126C413.454 126 412.67 126.177 412.081 126.707C411.472 127.255 411.25 128.017 411.25 128.8H413.25ZM414.25 128C420.77 128 426.772 126.845 432.241 124.52L431.459 122.68C426.262 124.889 420.53 126 414.25 126V128ZM432.759 123.184C429.223 115.456 427.45 107.066 427.45 98H425.45C425.45 107.334 427.277 116.011 430.941 124.016L432.759 123.184ZM427.45 98C427.45 84.6381 431.763 73.7012 440.357 65.1071L438.943 63.6929C429.937 72.6987 425.45 84.1619 425.45 98H427.45ZM440.362 65.1018C448.958 56.3764 459.893 52 473.25 52V50C459.407 50 447.942 54.557 438.938 63.6982L440.362 65.1018ZM473.25 52C485.653 52 496.268 56.3623 505.148 65.1123L506.552 63.6877C497.299 54.571 486.181 50 473.25 50V52ZM505.154 65.1176C514.035 73.738 518.45 83.9493 518.45 95.8H520.45C520.45 83.384 515.798 72.662 506.547 63.6824L505.154 65.1176ZM518.45 95.8C518.45 105.266 516.543 115.555 512.705 126.674L514.595 127.326C518.49 116.045 520.45 105.534 520.45 95.8H518.45ZM513.65 128H527.85V126H513.65V128ZM478.85 128H493.05V126H478.85V128ZM494 127.313C497.619 116.323 499.45 106.878 499.45 99H497.45C497.45 106.589 495.682 115.811 492.1 126.687L494 127.313ZM499.45 99C499.45 91.562 497.031 85.0603 492.203 79.5415L490.697 80.8585C495.202 86.0064 497.45 92.038 497.45 99H499.45ZM492.211 79.5507C487.362 73.8709 481.288 71 474.05 71V73C480.679 73 486.205 75.5958 490.689 80.8493L492.211 79.5507ZM474.05 71C466.083 71 459.546 73.5511 454.533 78.7026L455.967 80.0974C460.554 75.3822 466.55 73 474.05 73V71ZM454.533 78.7029C449.653 83.7219 447.25 90.3219 447.25 98.4H449.25C449.25 90.7448 451.513 84.6781 455.967 80.0971L454.533 78.7029ZM447.25 98.4C447.25 107.168 450.069 114.371 455.752 119.916L457.148 118.484C451.898 113.362 449.25 106.699 449.25 98.4H447.25ZM455.761 119.925C461.458 125.344 469.195 128 478.85 128V126C469.572 126 462.376 123.456 457.139 118.475L455.761 119.925ZM616.322 129L617.278 128.708L616.942 127.604L615.896 128.095L616.322 129ZM572.122 145L572.356 145.972L572.122 145ZM618.322 107.4L618.738 108.309L620.229 107.626L618.939 106.613L618.322 107.4ZM582.522 82.2L582.039 83.0757L582.051 83.0819L582.522 82.2ZM540.922 78.8L539.944 79.0116L540.157 79.9928L541.137 79.7765L540.922 78.8ZM536.722 59.4L536.363 58.4667L535.563 58.7742L535.745 59.6116L536.722 59.4ZM591.322 61.8L590.828 62.6697L590.837 62.6747L591.322 61.8ZM640.522 97L641.507 97.1717L641.61 96.5826L641.139 96.2134L640.522 97ZM636.722 118.8L637.201 119.678L637.624 119.447L637.707 118.972L636.722 118.8ZM630.122 122.2L629.708 121.29L628.253 121.951L629.484 122.97L630.122 122.2ZM654.722 128C655.259 128 655.475 128.123 655.553 128.193C655.611 128.245 655.722 128.383 655.722 128.8H657.722C657.722 128.017 657.5 127.255 656.891 126.707C656.302 126.177 655.518 126 654.722 126V128ZM655.722 128.8V148H657.722V128.8H655.722ZM655.722 148C655.722 148.513 655.594 148.713 655.515 148.793C655.435 148.873 655.234 149 654.722 149V151C655.543 151 656.342 150.794 656.929 150.207C657.516 149.62 657.722 148.821 657.722 148H655.722ZM654.722 149H647.522V151H654.722V149ZM647.522 149C639.392 149 632.87 147.279 627.88 143.92C622.902 140.57 619.357 135.527 617.278 128.708L615.365 129.292C617.554 136.473 621.342 141.93 626.764 145.58C632.174 149.221 639.119 151 647.522 151V149ZM615.896 128.095C600.346 135.405 585.677 140.713 571.888 144.028L572.356 145.972C586.3 142.62 601.098 137.261 616.747 129.905L615.896 128.095ZM571.888 144.028C558.104 147.341 543.516 149 528.122 149V151C543.661 151 558.406 149.326 572.356 145.972L571.888 144.028ZM528.122 149C527.52 149 527.256 148.861 527.145 148.76C527.051 148.675 526.922 148.487 526.922 148H524.922C524.922 148.847 525.159 149.658 525.799 150.24C526.421 150.805 527.257 151 528.122 151V149ZM526.922 148V128.8H524.922V148H526.922ZM526.922 128.8C526.922 128.413 527.03 128.285 527.105 128.224C527.218 128.131 527.499 128 528.122 128V126C527.278 126 526.459 126.169 525.839 126.676C525.18 127.215 524.922 127.987 524.922 128.8H526.922ZM528.122 128C559.865 128 590.073 121.436 618.738 108.309L617.906 106.491C589.504 119.497 559.579 126 528.122 126V128ZM618.939 106.613C602.805 93.9456 590.811 85.4966 582.993 81.3181L582.051 83.0819C589.699 87.1701 601.573 95.521 617.704 108.187L618.939 106.613ZM583.005 81.3244C575.16 76.9962 567.595 74.8 560.322 74.8V76.8C567.182 76.8 574.417 78.8705 582.039 83.0756L583.005 81.3244ZM560.322 74.8C556.335 74.8 549.773 75.8235 540.706 77.8235L541.137 79.7765C550.204 77.7765 556.575 76.8 560.322 76.8V74.8ZM541.899 78.5884L537.699 59.1884L535.745 59.6116L539.944 79.0116L541.899 78.5884ZM537.081 60.3333C547.42 56.3569 556.158 54.4 563.322 54.4V52.4C555.819 52.4 546.824 54.4431 536.363 58.4667L537.081 60.3333ZM563.322 54.4C571.906 54.4 581.07 57.131 590.828 62.6697L591.815 60.9303C581.841 55.269 572.338 52.4 563.322 52.4V54.4ZM590.837 62.6747C600.625 68.0978 616.968 79.7839 639.904 97.7866L641.139 96.2134C618.209 78.2161 601.752 66.4356 591.807 60.9253L590.837 62.6747ZM639.537 96.8283L635.737 118.628L637.707 118.972L641.507 97.1717L639.537 96.8283ZM636.243 117.922C633.313 119.52 631.14 120.639 629.708 121.29L630.536 123.11C632.037 122.428 634.264 121.28 637.201 119.678L636.243 117.922ZM629.484 122.97C633.607 126.383 639.747 128 647.722 128V126C639.963 126 634.37 124.417 630.759 121.43L629.484 122.97ZM647.722 128H654.722V126H647.722V128ZM677.08 102.8L676.08 102.798V102.8H677.08ZM677.28 6.99999L677.142 6.0095L676.281 6.12903L676.28 6.9979L677.28 6.99999ZM698.88 4H699.88V2.85151L698.742 3.0095L698.88 4ZM654.68 149C654.167 149 653.966 148.873 653.887 148.793C653.807 148.713 653.68 148.513 653.68 148H651.68C651.68 148.821 651.886 149.62 652.473 150.207C653.06 150.794 653.859 151 654.68 151V149ZM653.68 148V128.8H651.68V148H653.68ZM653.68 128.8C653.68 128.413 653.788 128.285 653.863 128.224C653.976 128.131 654.257 128 654.88 128V126C654.036 126 653.217 126.169 652.596 126.676C651.938 127.215 651.68 127.987 651.68 128.8H653.68ZM654.88 128C662.457 128 668.317 125.931 672.267 121.626C676.201 117.337 678.08 111 678.08 102.8H676.08C676.08 110.733 674.259 116.496 670.793 120.274C667.342 124.036 662.102 126 654.88 126V128ZM678.08 102.802L678.28 7.00208L676.28 6.9979L676.08 102.798L678.08 102.802ZM677.417 7.99049L699.017 4.99049L698.742 3.0095L677.142 6.0095L677.417 7.99049ZM697.88 4V109.2H699.88V4H697.88ZM697.88 109.2C697.88 122.624 694.248 132.515 687.151 139.065C680.04 145.63 669.278 149 654.68 149V151C669.548 151 680.886 147.57 688.508 140.535C696.145 133.485 699.88 122.976 699.88 109.2H697.88ZM731.227 150H730.227V151H731.227V150ZM731.227 6.99999L731.09 6.00933L730.227 6.12818V6.99999H731.227ZM753.027 4H754.027V2.85296L752.89 3.00933L753.027 4ZM753.027 150V151H754.027V150H753.027ZM732.227 150V6.99999H730.227V150H732.227ZM731.363 7.99065L753.163 4.99066L752.89 3.00933L731.09 6.00933L731.363 7.99065ZM752.027 4V150H754.027V4H752.027ZM753.027 149H731.227V151H753.027V149ZM868.241 19.6L868.939 18.8843L868.232 18.1944L867.534 18.8929L868.241 19.6ZM852.041 35.8L851.338 36.5111L852.045 37.2102L852.748 36.5071L852.041 35.8ZM834.241 18.2L833.538 17.4889L832.818 18.1999L833.537 18.9111L834.241 18.2ZM851.841 0.799988L852.539 0.0842094L851.836 -0.601616L851.138 0.0888557L851.841 0.799988ZM868.241 16.8L867.542 17.5158L868.241 18.1971L868.939 17.5158L868.241 16.8ZM884.641 0.799988L885.34 0.0848923L884.641 -0.597752L883.942 0.0842094L884.641 0.799988ZM902.441 18.2L903.148 18.9071L903.863 18.1919L903.14 17.4849L902.441 18.2ZM884.841 35.8L884.142 36.5157L884.849 37.2056L885.548 36.5071L884.841 35.8ZM903.241 141.8L903.914 141.061L903.4 140.593L902.782 140.911L903.241 141.8ZM834.241 137.8L834.968 137.114L834.241 137.8ZM834.241 67.2L833.495 66.5338L833.494 66.5344L834.241 67.2ZM892.441 57L892.094 57.9381L893.441 58.4352V57H892.441ZM892.441 45.2L892.303 44.2095L891.441 44.3293V45.2H892.441ZM914.041 42.2L915.041 42.197L915.037 41.052L913.903 41.2095L914.041 42.2ZM914.241 108H915.241V107.997L914.241 108ZM918.241 122.6L917.501 123.273L918.241 122.6ZM867.841 130L867.823 131L867.825 131L867.841 130ZM893.841 124.2L894.265 125.105L894.975 124.773L894.821 124.004L893.841 124.2ZM892.641 79H893.641V78.2914L892.972 78.0565L892.641 79ZM849.041 82.2L848.308 81.5195L848.307 81.5202L849.041 82.2ZM848.841 122L848.115 122.688L848.841 122ZM867.534 18.8929L851.333 35.0929L852.748 36.5071L868.948 20.3071L867.534 18.8929ZM852.744 35.0889L834.944 17.4889L833.537 18.9111L851.338 36.5111L852.744 35.0889ZM834.944 18.9111L852.544 1.51112L851.138 0.0888557L833.538 17.4889L834.944 18.9111ZM851.142 1.51577L867.542 17.5158L868.939 16.0842L852.539 0.0842094L851.142 1.51577ZM868.939 17.5158L885.339 1.51577L883.942 0.0842094L867.542 16.0842L868.939 17.5158ZM883.942 1.51509L901.742 18.9151L903.14 17.4849L885.34 0.0848923L883.942 1.51509ZM901.734 17.4929L884.134 35.0929L885.548 36.5071L903.148 18.9071L901.734 17.4929ZM885.539 35.0843L868.939 18.8843L867.542 20.3157L884.142 36.5157L885.539 35.0843ZM931.041 128C931.578 128 931.794 128.123 931.872 128.193C931.93 128.245 932.041 128.383 932.041 128.8H934.041C934.041 128.017 933.818 127.255 933.21 126.707C932.621 126.177 931.837 126 931.041 126V128ZM932.041 128.8V148H934.041V128.8H932.041ZM932.041 148C932.041 148.513 931.913 148.713 931.833 148.793C931.754 148.873 931.553 149 931.041 149V151C931.861 151 932.661 150.794 933.248 150.207C933.835 149.62 934.041 148.821 934.041 148H932.041ZM931.041 149C918.626 149 909.652 146.289 903.914 141.061L902.567 142.539C908.829 148.245 918.389 151 931.041 151V149ZM902.782 140.911C889.942 147.53 878.301 150.8 867.841 150.8V152.8C878.714 152.8 890.673 149.403 903.699 142.689L902.782 140.911ZM867.841 150.8C854.497 150.8 843.567 146.234 834.968 137.114L833.513 138.486C842.514 148.033 853.984 152.8 867.841 152.8V150.8ZM834.968 137.114C826.358 127.982 822.041 116.634 822.041 103H820.041C820.041 117.099 824.523 128.951 833.513 138.486L834.968 137.114ZM822.041 103C822.041 89.2297 826.361 77.5376 834.987 67.8656L833.494 66.5344C824.521 76.5957 820.041 88.7703 820.041 103H822.041ZM834.986 67.8662C843.729 58.0796 854.657 53.2 867.841 53.2V51.2C854.091 51.2 842.619 56.3204 833.495 66.5338L834.986 67.8662ZM867.841 53.2C875.435 53.2 883.517 54.7713 892.094 57.9381L892.787 56.0619C884.031 52.8287 875.713 51.2 867.841 51.2V53.2ZM893.441 57V45.2H891.441V57H893.441ZM892.578 46.1905L914.178 43.1905L913.903 41.2095L892.303 44.2095L892.578 46.1905ZM913.041 42.203L913.241 108.003L915.241 107.997L915.041 42.197L913.041 42.203ZM913.241 108C913.241 114.885 914.582 120.062 917.501 123.273L918.981 121.927C916.566 119.271 915.241 114.715 915.241 108H913.241ZM917.501 123.273C920.432 126.498 925.029 128 931.041 128V126C925.319 126 921.382 124.569 918.981 121.927L917.501 123.273ZM867.825 131C876.788 131.136 885.604 129.165 894.265 125.105L893.416 123.295C885.01 127.235 876.493 129.131 867.856 129L867.825 131ZM894.821 124.004C894.037 120.083 893.641 115.551 893.641 110.4H891.641C891.641 115.649 892.044 120.317 892.86 124.396L894.821 124.004ZM893.641 110.4V79H891.641V110.4H893.641ZM892.972 78.0565C883.066 74.5759 875.007 72.8 868.841 72.8V74.8C874.674 74.8 882.482 76.4907 892.309 79.9435L892.972 78.0565ZM868.841 72.8C860.577 72.8 853.707 75.7053 848.308 81.5195L849.773 82.8804C854.774 77.4947 861.104 74.8 868.841 74.8V72.8ZM848.307 81.5202C843.053 87.1894 840.441 94.2396 840.441 102.6H842.441C842.441 94.6937 844.895 88.144 849.774 82.8798L848.307 81.5202ZM840.441 102.6C840.441 110.567 842.991 117.287 848.115 122.688L849.566 121.312C844.824 116.313 842.441 110.099 842.441 102.6H840.441ZM848.115 122.688C853.249 128.099 859.845 130.862 867.823 131L867.858 129C860.369 128.871 854.299 126.301 849.566 121.312L848.115 122.688ZM984.047 20.2L984.745 19.4843L984.038 18.7943L983.34 19.4929L984.047 20.2ZM967.847 36.4L967.144 37.1111L967.851 37.8102L968.554 37.1071L967.847 36.4ZM950.047 18.8L949.344 18.0889L948.625 18.7999L949.344 19.5111L950.047 18.8ZM967.647 1.39999L968.345 0.684212L967.642 -0.00161362L966.944 0.688858L967.647 1.39999ZM984.047 17.4L983.349 18.1158L984.047 18.7971L984.745 18.1158L984.047 17.4ZM1000.45 1.39999L1001.15 0.684898L1000.45 0.00225067L999.749 0.684212L1000.45 1.39999ZM1018.25 18.8L1018.95 19.5071L1019.67 18.7919L1018.95 18.0849L1018.25 18.8ZM1000.65 36.4L999.948 37.1157L1000.66 37.8056L1001.35 37.1071L1000.65 36.4ZM1019.05 64.4L1018.33 65.1018L1018.34 65.1071L1018.35 65.1124L1019.05 64.4ZM1017.25 136L1016.57 135.264L1016.56 135.269L1017.25 136ZM945.647 127V128H947.195L946.558 126.589L945.647 127ZM951.447 64.4L952.154 65.1071L952.159 65.1018L951.447 64.4ZM1001.65 119.4L1002.29 120.164L1002.3 120.156L1001.65 119.4ZM1003.25 79.6L1002.53 80.2973L1002.54 80.3072L1002.55 80.3167L1003.25 79.6ZM966.847 80L966.131 79.3021L966.121 79.3117L966.847 80ZM967.847 127L966.977 127.494L967.265 128H967.847V127ZM983.34 19.4929L967.14 35.6929L968.554 37.1071L984.754 20.9071L983.34 19.4929ZM968.55 35.6889L950.75 18.0889L949.344 19.5111L967.144 37.1111L968.55 35.6889ZM950.75 19.5111L968.35 2.11113L966.944 0.688858L949.344 18.0889L950.75 19.5111ZM966.949 2.11578L983.349 18.1158L984.745 16.6842L968.345 0.684212L966.949 2.11578ZM984.745 18.1158L1001.15 2.11578L999.749 0.684212L983.349 16.6842L984.745 18.1158ZM999.748 2.11509L1017.55 19.5151L1018.95 18.0849L1001.15 0.684898L999.748 2.11509ZM1017.54 18.0929L999.94 35.6929L1001.35 37.1071L1018.95 19.5071L1017.54 18.0929ZM1001.35 35.6843L984.745 19.4843L983.348 20.9157L999.948 37.1157L1001.35 35.6843ZM985.847 52C998.931 52 1009.74 56.3722 1018.33 65.1018L1019.76 63.6982C1010.76 54.5611 999.429 50 985.847 50V52ZM1018.35 65.1124C1027.07 73.7116 1031.45 84.5156 1031.45 97.6H1033.45C1033.45 84.0177 1028.89 72.6884 1019.75 63.6876L1018.35 65.1124ZM1031.45 97.6C1031.45 113.642 1026.46 126.155 1016.57 135.264L1017.92 136.736C1028.3 127.179 1033.45 114.091 1033.45 97.6H1031.45ZM1016.56 135.269C1006.8 144.385 993.333 149 976.047 149V151C993.694 151 1007.7 146.281 1017.93 136.731L1016.56 135.269ZM976.047 149H931.047V151H976.047V149ZM931.047 149C930.534 149 930.334 148.873 930.254 148.793C930.174 148.713 930.047 148.513 930.047 148H928.047C928.047 148.821 928.253 149.62 928.84 150.207C929.427 150.794 930.226 151 931.047 151V149ZM930.047 148V128.8H928.047V148H930.047ZM930.047 128.8C930.047 128.383 930.158 128.245 930.216 128.193C930.294 128.123 930.51 128 931.047 128V126C930.251 126 929.467 126.177 928.878 126.707C928.269 127.255 928.047 128.017 928.047 128.8H930.047ZM931.047 128H945.647V126H931.047V128ZM946.558 126.589C941.652 115.715 939.247 106.665 939.247 99.4H937.247C937.247 107.069 939.775 116.418 944.735 127.411L946.558 126.589ZM939.247 99.4C939.247 85.0838 943.573 73.6881 952.154 65.1071L950.74 63.6929C941.721 72.7119 937.247 84.6495 937.247 99.4H939.247ZM952.159 65.1018C960.747 56.3842 971.944 52 985.847 52V50C971.483 50 959.747 54.5491 950.734 63.6982L952.159 65.1018ZM977.047 128C987.606 128 996.06 125.426 1002.29 120.164L1001 118.636C995.234 123.507 987.288 126 977.047 126V128ZM1002.3 120.156C1008.55 114.738 1011.65 107.311 1011.65 98H1009.65C1009.65 106.822 1006.74 113.662 1000.99 118.644L1002.3 120.156ZM1011.65 98C1011.65 90.2887 1009.09 83.8885 1003.94 78.8833L1002.55 80.3167C1007.27 84.9115 1009.65 90.7779 1009.65 98H1011.65ZM1003.96 78.9026C998.962 73.7622 992.63 71.2 985.047 71.2V73.2C992.13 73.2 997.932 75.5712 1002.53 80.2973L1003.96 78.9026ZM985.047 71.2C977.702 71.2 971.38 73.9149 966.131 79.3021L967.563 80.6979C972.447 75.6851 978.258 73.2 985.047 73.2V71.2ZM966.121 79.3117C961.011 84.6985 958.447 91.1452 958.447 98.6H960.447C960.447 91.6548 962.816 85.7015 967.572 80.6883L966.121 79.3117ZM958.447 98.6C958.447 107.878 961.313 117.514 966.977 127.494L968.717 126.506C963.181 116.753 960.447 107.455 960.447 98.6H958.447ZM967.847 128H977.047V126H967.847V128ZM1179.82 128.8H1178.82L1178.82 128.81L1179.82 128.8ZM1180.02 148H1181.02L1181.02 147.99L1180.02 148ZM1144.42 139.4L1145.11 138.674L1144.61 138.201L1143.99 138.498L1144.42 139.4ZM1120.22 147L1120.42 147.981L1120.43 147.978L1120.22 147ZM1047.22 150L1046.24 150.163L1046.37 151H1047.22V150ZM1043.42 127V126H1042.24L1042.44 127.163L1043.42 127ZM1086.42 127V128H1087.64L1087.4 126.803L1086.42 127ZM1068.02 35.6L1067.78 34.6304L1066.85 34.8635L1067.04 35.7973L1068.02 35.6ZM1089.42 30.2L1090.41 30.024L1090.22 28.9679L1089.18 29.2304L1089.42 30.2ZM1106.62 126.4L1105.64 126.576L1105.8 127.476L1106.71 127.396L1106.62 126.4ZM1135.22 121.8L1135.47 122.769L1136.39 122.534L1136.2 121.597L1135.22 121.8ZM1134.02 109.2H1135.02V109.198L1134.02 109.2ZM1133.82 6.99999L1133.69 6.00933L1132.82 6.12842L1132.82 7.00195L1133.82 6.99999ZM1155.62 4H1156.62V2.85296L1155.49 3.00933L1155.62 4ZM1178.82 128.81L1179.02 148.01L1181.02 147.99L1180.82 128.79L1178.82 128.81ZM1179.02 148C1179.02 148.513 1178.89 148.713 1178.81 148.793C1178.74 148.873 1178.53 149 1178.02 149V151C1178.84 151 1179.64 150.794 1180.23 150.207C1180.82 149.62 1181.02 148.821 1181.02 148H1179.02ZM1178.02 149C1163.23 149 1152.32 145.499 1145.11 138.674L1143.73 140.126C1151.46 147.434 1162.95 151 1178.02 151V149ZM1143.99 138.498C1137.95 141.385 1129.97 143.898 1120.01 146.022L1120.43 147.978C1130.47 145.836 1138.62 143.282 1144.85 140.302L1143.99 138.498ZM1120.03 146.019C1110.07 148.011 1101.47 149 1094.22 149V151C1101.64 151 1110.38 149.989 1120.42 147.981L1120.03 146.019ZM1094.22 149H1047.22V151H1094.22V149ZM1048.21 149.837L1044.41 126.837L1042.44 127.163L1046.24 150.163L1048.21 149.837ZM1043.42 128H1086.42V126H1043.42V128ZM1087.4 126.803L1069 35.4026L1067.04 35.7973L1085.44 127.197L1087.4 126.803ZM1068.27 36.5696L1089.67 31.1696L1089.18 29.2304L1067.78 34.6304L1068.27 36.5696ZM1088.44 30.376L1105.64 126.576L1107.61 126.224L1090.41 30.024L1088.44 30.376ZM1106.71 127.396C1117.42 126.459 1127.01 124.918 1135.47 122.769L1134.98 120.831C1126.64 122.948 1117.16 124.474 1106.53 125.404L1106.71 127.396ZM1136.2 121.597C1135.42 117.806 1135.02 113.675 1135.02 109.2H1133.02C1133.02 113.792 1133.43 118.06 1134.24 122.003L1136.2 121.597ZM1135.02 109.198L1134.82 6.99804L1132.82 7.00195L1133.02 109.202L1135.02 109.198ZM1133.96 7.99065L1155.76 4.99066L1155.49 3.00933L1133.69 6.00933L1133.96 7.99065ZM1154.62 4V102.8H1156.62V4H1154.62ZM1154.62 102.8C1154.62 111 1156.5 117.337 1160.43 121.626C1164.38 125.931 1170.24 128 1177.82 128V126C1170.6 126 1165.36 124.036 1161.91 120.274C1158.44 116.496 1156.62 110.733 1156.62 102.8H1154.62ZM1177.82 128C1178.36 128 1178.57 128.123 1178.65 128.193C1178.71 128.245 1178.82 128.383 1178.82 128.8H1180.82C1180.82 128.017 1180.6 127.255 1179.99 126.707C1179.4 126.177 1178.62 126 1177.82 126V128ZM1243.32 139L1243.77 138.107L1243.34 137.891L1242.9 138.091L1243.32 139ZM1214.72 147.8L1214.87 148.789L1214.88 148.787L1214.72 147.8ZM1178.12 150L1178.02 150.995L1178.07 151H1178.12V150ZM1213.72 124.4L1213.86 125.389L1215.62 125.129L1214.49 123.761L1213.72 124.4ZM1183.52 78.6L1182.6 78.2107L1182.41 78.6455L1182.63 79.0638L1183.52 78.6ZM1191.72 59.2L1191.27 58.3069L1190.94 58.4722L1190.8 58.8107L1191.72 59.2ZM1275.52 55.8L1274.9 56.5843L1275.52 55.8ZM1283.32 104.8L1284.21 105.254L1284.21 105.247L1283.32 104.8ZM1266.12 124.8L1265.5 124.01L1263.69 125.42L1265.96 125.787L1266.12 124.8ZM1238.52 66.8L1238.5 67.7999L1238.51 67.8H1238.52V66.8ZM1206.52 74.6L1206.11 73.6845L1205.14 74.1136L1205.63 75.0601L1206.52 74.6ZM1238.12 121.2L1237.38 121.872L1237.87 122.416L1238.54 122.108L1238.12 121.2ZM1258.92 106.6L1259.66 107.272L1258.92 106.6ZM1259.12 73.4L1258.46 74.155L1258.47 74.16L1258.47 74.1649L1259.12 73.4ZM1297.52 128C1298.05 128 1298.27 128.123 1298.35 128.193C1298.41 128.245 1298.52 128.383 1298.52 128.8H1300.52C1300.52 128.017 1300.29 127.255 1299.69 126.707C1299.1 126.177 1298.31 126 1297.52 126V128ZM1298.52 128.8V148H1300.52V128.8H1298.52ZM1298.52 148C1298.52 148.513 1298.39 148.713 1298.31 148.793C1298.23 148.873 1298.03 149 1297.52 149V151C1298.34 151 1299.14 150.794 1299.72 150.207C1300.31 149.62 1300.52 148.821 1300.52 148H1298.52ZM1297.52 149C1276.02 149 1258.12 145.351 1243.77 138.107L1242.87 139.893C1257.58 147.316 1275.81 151 1297.52 151V149ZM1242.9 138.091C1233.65 142.322 1224.2 145.228 1214.55 146.813L1214.88 148.787C1224.7 147.172 1234.32 144.212 1243.73 139.909L1242.9 138.091ZM1214.57 146.811C1205.03 148.268 1192.89 149 1178.12 149V151C1192.94 151 1205.2 150.266 1214.87 148.789L1214.57 146.811ZM1178.22 149.005C1177.68 148.952 1177.44 148.806 1177.32 148.693C1177.23 148.595 1177.12 148.411 1177.12 148H1175.12C1175.12 148.789 1175.34 149.539 1175.91 150.107C1176.46 150.66 1177.22 150.915 1178.02 150.995L1178.22 149.005ZM1177.12 148V128.8H1175.12V148H1177.12ZM1177.12 128.8C1177.12 128.383 1177.23 128.245 1177.29 128.193C1177.36 128.123 1177.58 128 1178.12 128V126C1177.32 126 1176.54 126.177 1175.95 126.707C1175.34 127.255 1175.12 128.017 1175.12 128.8H1177.12ZM1178.12 128C1190.17 128 1202.08 127.13 1213.86 125.389L1213.57 123.411C1201.89 125.137 1190.07 126 1178.12 126V128ZM1214.49 123.761C1203.34 110.353 1193.31 95.1465 1184.4 78.1362L1182.63 79.0638C1191.59 96.1868 1201.7 111.513 1212.95 125.039L1214.49 123.761ZM1184.44 78.9893L1192.64 59.5893L1190.8 58.8107L1182.6 78.2107L1184.44 78.9893ZM1192.17 60.0931C1210.61 50.8035 1227.12 46.2 1241.72 46.2V44.2C1226.71 44.2 1209.89 48.9298 1191.27 58.3069L1192.17 60.0931ZM1241.72 46.2C1255.14 46.2 1266.17 49.683 1274.9 56.5843L1276.14 55.0157C1267 47.7836 1255.5 44.2 1241.72 44.2V46.2ZM1274.9 56.5843C1283.6 63.4677 1287.92 72.2493 1287.92 83H1289.92C1289.92 71.6174 1285.3 62.2656 1276.14 55.0157L1274.9 56.5843ZM1287.92 83C1287.92 89.8857 1286.1 96.9999 1282.42 104.353L1284.21 105.247C1288 97.6667 1289.92 90.2477 1289.92 83H1287.92ZM1282.43 104.346C1278.77 111.526 1273.14 118.083 1265.5 124.01L1266.73 125.59C1274.56 119.517 1280.4 112.741 1284.21 105.254L1282.43 104.346ZM1265.96 125.787C1275.09 127.264 1285.61 128 1297.52 128V126C1285.69 126 1275.28 125.269 1266.28 123.813L1265.96 125.787ZM1238.53 65.8001C1229.14 65.664 1218.33 68.317 1206.11 73.6845L1206.92 75.5155C1218.98 70.2163 1229.49 67.6693 1238.5 67.7999L1238.53 65.8001ZM1205.63 75.0601C1215.13 93.3892 1225.71 108.997 1237.38 121.872L1238.86 120.528C1227.33 107.803 1216.84 92.3441 1207.41 74.1399L1205.63 75.0601ZM1238.54 122.108C1247.3 118.064 1254.35 113.125 1259.66 107.272L1258.18 105.928C1253.09 111.542 1246.27 116.336 1237.7 120.292L1238.54 122.108ZM1259.66 107.272C1264.95 101.442 1267.72 95.7457 1267.72 90.2H1265.72C1265.72 95.0542 1263.29 100.291 1258.18 105.928L1259.66 107.272ZM1267.72 90.2C1267.72 82.9875 1265.07 77.1017 1259.76 72.6351L1258.47 74.1649C1263.3 78.2316 1265.72 83.5459 1265.72 90.2H1267.72ZM1259.77 72.645C1254.48 68.0455 1247.35 65.8 1238.52 65.8V67.8C1247.01 67.8 1253.62 69.9545 1258.46 74.155L1259.77 72.645ZM1320.44 102.8L1319.44 102.798V102.8H1320.44ZM1320.64 6.99999L1320.5 6.0095L1319.64 6.12903L1319.64 6.9979L1320.64 6.99999ZM1342.24 4H1343.24V2.85151L1342.1 3.0095L1342.24 4ZM1298.04 149C1297.53 149 1297.33 148.873 1297.25 148.793C1297.17 148.713 1297.04 148.513 1297.04 148H1295.04C1295.04 148.821 1295.24 149.62 1295.83 150.207C1296.42 150.794 1297.22 151 1298.04 151V149ZM1297.04 148V128.8H1295.04V148H1297.04ZM1297.04 128.8C1297.04 128.413 1297.15 128.285 1297.22 128.224C1297.34 128.131 1297.62 128 1298.24 128V126C1297.39 126 1296.58 126.169 1295.96 126.676C1295.3 127.215 1295.04 127.987 1295.04 128.8H1297.04ZM1298.24 128C1305.82 128 1311.68 125.931 1315.63 121.626C1319.56 117.337 1321.44 111 1321.44 102.8H1319.44C1319.44 110.733 1317.62 116.496 1314.15 120.274C1310.7 124.036 1305.46 126 1298.24 126V128ZM1321.44 102.802L1321.64 7.00208L1319.64 6.9979L1319.44 102.798L1321.44 102.802ZM1320.78 7.99049L1342.38 4.99049L1342.1 3.0095L1320.5 6.0095L1320.78 7.99049ZM1341.24 4V109.2H1343.24V4H1341.24ZM1341.24 109.2C1341.24 122.624 1337.61 132.515 1330.51 139.065C1323.4 145.63 1312.64 149 1298.04 149V151C1312.91 151 1324.25 147.57 1331.87 140.535C1339.5 133.485 1343.24 122.976 1343.24 109.2H1341.24ZM1374.59 150H1373.59V151H1374.59V150ZM1374.59 6.99999L1374.45 6.00933L1373.59 6.12818V6.99999H1374.59ZM1396.39 4H1397.39V2.85296L1396.25 3.00933L1396.39 4ZM1396.39 150V151H1397.39V150H1396.39ZM1375.59 150V6.99999H1373.59V150H1375.59ZM1374.72 7.99065L1396.52 4.99066L1396.25 3.00933L1374.45 6.00933L1374.72 7.99065ZM1395.39 4V150H1397.39V4H1395.39ZM1396.39 149H1374.59V151H1396.39V149Z" fill="#4440FF" mask="url(#path-1-outside-1_2_2472)"/>
</g>
</svg>
