<svg width="89" height="89" viewBox="0 0 89 89" fill="none" xmlns="http://www.w3.org/2000/svg">
<g filter="url(#filter0_d_324_152)">
<rect x="5.5" y="5.5" width="72" height="72" rx="16" fill="white" shape-rendering="crispEdges"/>
<path d="M49.7773 46.3555C49.7773 47.9831 49.3867 49.4284 48.6055 50.6914C47.8372 51.9544 46.6979 52.944 45.1875 53.6602C43.6901 54.3763 41.8411 54.7344 39.6406 54.7344C38.3906 54.7344 37.2448 54.513 36.2031 54.0703C35.1745 53.6146 34.3477 53.0612 33.7227 52.4102C33.1107 51.7461 32.8047 51.1016 32.8047 50.4766C32.8047 49.8255 33.0195 49.3307 33.4492 48.9922C33.8789 48.6406 34.4193 48.4648 35.0703 48.4648C35.2656 48.4648 35.487 48.4844 35.7344 48.5234C35.9948 48.5625 36.1576 48.5951 36.2227 48.6211L37.2969 51.5312C37.5964 51.8047 38.0456 52.0456 38.6445 52.2539C39.2565 52.4622 39.7643 52.5664 40.168 52.5664C41.444 52.5664 42.5052 52.2995 43.3516 51.7656C44.1979 51.2318 44.8359 50.5547 45.2656 49.7344C45.6953 48.901 45.9102 48.0612 45.9102 47.2148C45.9102 45.1966 45.3568 43.7057 44.25 42.7422C43.1432 41.7656 41.7174 41.2773 39.9727 41.2773C39.3997 41.2773 38.7487 41.3424 38.0195 41.4727C37.3034 41.6029 36.6003 41.7591 35.9102 41.9414C35.2201 42.1237 34.6341 42.306 34.1523 42.4883V29.8125H48.1367V32.957H36.8867V39.6172C37.2253 39.487 37.8568 39.3177 38.7812 39.1094C39.7188 38.901 40.6758 38.7969 41.6523 38.7969C44.1523 38.7969 46.1315 39.474 47.5898 40.8281C49.0482 42.1823 49.7773 44.0247 49.7773 46.3555Z" fill="#4440FF"/>
</g>
<defs>
<filter id="filter0_d_324_152" x="0.727274" y="0.727274" width="87.9091" height="87.9091" filterUnits="userSpaceOnUse" color-interpolation-filters="sRGB">
<feFlood flood-opacity="0" result="BackgroundImageFix"/>
<feColorMatrix in="SourceAlpha" type="matrix" values="0 0 0 0 0 0 0 0 0 0 0 0 0 0 0 0 0 0 127 0" result="hardAlpha"/>
<feOffset dx="3.18182" dy="3.18182"/>
<feGaussianBlur stdDeviation="3.97727"/>
<feComposite in2="hardAlpha" operator="out"/>
<feColorMatrix type="matrix" values="0 0 0 0 0.458333 0 0 0 0 0.437326 0 0 0 0 0.437326 0 0 0 0.06 0"/>
<feBlend mode="normal" in2="BackgroundImageFix" result="effect1_dropShadow_324_152"/>
<feBlend mode="normal" in="SourceGraphic" in2="effect1_dropShadow_324_152" result="shape"/>
</filter>
</defs>
</svg>
