<svg width="165" height="199" viewBox="0 0 165 199" fill="none" xmlns="http://www.w3.org/2000/svg">
<g opacity="0.3">
<mask id="path-1-outside-1_2_2700" maskUnits="userSpaceOnUse" x="-1" y="-1.03711" width="167" height="1671" fill="black">
<rect fill="white" x="-1" y="-1.03711" width="167" height="1671"/>
<path d="M107.6 1535.36C107.6 1534.3 108.08 1533.76 109.04 1533.76H124.4C125.467 1533.76 126 1534.3 126 1535.36C126 1544.54 122.533 1552.91 115.6 1560.48C122.107 1565.92 125.573 1574.72 126 1586.88V1587.2V1628.8C126 1655.15 113.893 1668.32 89.68 1668.32C80.9333 1668.32 69.5733 1666.78 55.6 1663.68L57.52 1648.64C69.36 1650.88 78.4267 1652 84.72 1652C92.5067 1652 98.2667 1649.76 102 1645.28C105.733 1640.8 107.6 1633.87 107.6 1624.48V1588.96C107.6 1577.02 101.36 1571.04 88.88 1571.04L65.2 1571.2L62.8 1553.76H94.32C97.0933 1553.76 99.5467 1553.98 101.68 1554.4C105.627 1548.54 107.6 1542.19 107.6 1535.36ZM150.32 1621.12L136.24 1607.04L150.32 1592.64L164.24 1606.72L150.32 1621.12ZM107.6 1474.54C107.6 1473.47 108.08 1472.94 109.04 1472.94H124.4C125.467 1472.94 126 1473.47 126 1474.54C126 1484.14 122.053 1493.04 114.16 1501.26C122.053 1507.55 126 1518.91 126 1535.34C126 1536.4 125.467 1536.94 124.4 1536.94L109.04 1536.78C108.08 1536.78 107.6 1536.24 107.6 1535.18C107.6 1527.39 106.16 1521.68 103.28 1518.06C100.293 1514.32 95.4933 1512.46 88.88 1512.46H65.2L62.8 1495.18H94.32C96.4533 1495.18 98.5867 1495.34 100.72 1495.66C105.307 1489.15 107.6 1482.11 107.6 1474.54ZM149.2 1505.26L136.4 1492.14L150.32 1477.9L164.4 1491.98L151.44 1505.26L164.4 1518.22L150.32 1532.46L136.4 1518.38L149.2 1505.26ZM107.6 1323.84C107.6 1322.77 108.08 1322.24 109.04 1322.24H124.4C125.467 1322.24 126 1322.77 126 1323.84C126 1332.8 122.853 1340.74 116.56 1347.68C122.747 1353.22 125.84 1361.6 125.84 1372.8C125.84 1381.44 122.96 1390.29 117.2 1399.36C122.96 1405.44 125.84 1413.7 125.84 1424.16C125.84 1431.94 122.907 1439.89 117.04 1448C123.013 1453.97 126 1462.82 126 1474.56C126 1475.62 125.467 1476.16 124.4 1476.16H109.04C108.08 1476.16 107.6 1475.62 107.6 1474.56C107.6 1462.61 101.36 1456.64 88.88 1456.64L65.2 1456.8L62.8 1439.36H94.32C97.7333 1439.36 101.04 1439.78 104.24 1440.64C106.373 1435.41 107.44 1430.45 107.44 1425.76C107.44 1413.81 101.2 1407.84 88.72 1407.84L65.04 1408L62.64 1390.56H94.16C97.68 1390.56 101.04 1390.98 104.24 1391.84C106.373 1386.5 107.44 1381.06 107.44 1375.52C107.44 1363.68 101.2 1357.76 88.72 1357.76H48.24L45.84 1340.48H94.16C96.9333 1340.48 99.76 1340.74 102.64 1341.28C105.947 1335.84 107.6 1330.02 107.6 1323.84ZM107.6 1219.62C107.6 1218.55 108.08 1218.02 109.04 1218.02H124.4C125.467 1218.02 126 1218.55 126 1219.62C126 1229.11 122.48 1237.54 115.44 1244.9C122.48 1251.62 126 1261.06 126 1273.22V1323.78C126 1324.84 125.467 1325.38 124.4 1325.38H109.04C108.08 1325.38 107.6 1324.84 107.6 1323.78V1274.02C107.6 1267.72 106.107 1262.76 103.12 1259.14C100.027 1255.4 95.8133 1253.54 90.48 1253.54C85.1467 1253.54 80.9333 1255.35 77.84 1258.98C74.64 1262.6 73.04 1267.56 73.04 1273.86V1311.46L56.88 1320.74L0.399996 1273.7L9.51999 1256.9L57.04 1300.26V1275.3C57.04 1263.46 60.08 1253.96 66.16 1246.82C72.24 1239.67 80.4 1236.1 90.64 1236.1C94.8 1236.1 98.6933 1236.58 102.32 1237.54C105.84 1231.88 107.6 1225.91 107.6 1219.62ZM126 1219.56C126 1220.62 125.467 1221.16 124.4 1221.16H109.04C108.08 1221.16 107.6 1220.57 107.6 1219.4C107.6 1207.56 101.147 1201.64 88.24 1201.64L11.6 1201.48L9.2 1184.2H93.36C115.12 1184.2 126 1195.98 126 1219.56ZM126 1158.32H11.6L9.2 1140.88H126V1158.32ZM21.68 1048.71L34.64 1061.67L20.56 1075.91L6.63999 1061.83L19.44 1048.71L6.63999 1035.59L20.56 1021.35L34.64 1035.43L21.68 1048.71ZM107.6 998.468C107.6 997.401 108.08 996.868 109.04 996.868H124.4C125.467 996.868 126 997.401 126 998.468C126 1008.49 123.813 1015.91 119.44 1020.71C124.773 1031.05 127.44 1040.49 127.44 1049.03C127.44 1059.91 123.707 1068.87 116.24 1075.91C108.773 1082.95 99.4933 1086.47 88.4 1086.47C77.2 1086.47 67.6533 1082.95 59.76 1075.91C51.76 1068.76 47.76 1059.8 47.76 1049.03C47.76 1042.84 49.04 1036.28 51.6 1029.35H42.16L39.76 1012.07L92.4 1011.91C97.84 1011.91 101.733 1010.84 104.08 1008.71C106.427 1006.57 107.6 1003.16 107.6 998.468ZM110 1049.03C110.107 1041.99 108.56 1035.05 105.36 1028.23C102.16 1028.87 98.48 1029.19 94.32 1029.19H69.2C66.4267 1037.08 65.04 1043.43 65.04 1048.23C65.04 1054.63 67.28 1059.91 71.76 1064.07C76.1333 1068.12 81.5733 1070.15 88.08 1070.15C94.2667 1070.15 99.44 1068.17 103.6 1064.23C107.76 1060.28 109.893 1055.21 110 1049.03ZM107.6 937.663C107.6 936.596 108.08 936.063 109.04 936.063H124.4C125.467 936.063 126 936.596 126 937.663C126 947.263 122.053 956.17 114.16 964.383C122.053 970.676 126 982.036 126 998.463C126 999.53 125.467 1000.06 124.4 1000.06L109.04 999.903C108.08 999.903 107.6 999.37 107.6 998.303C107.6 990.516 106.16 984.81 103.28 981.183C100.293 977.45 95.4933 975.583 88.88 975.583H65.2L62.8 958.303H94.32C96.4533 958.303 98.5867 958.463 100.72 958.783C105.307 952.276 107.6 945.236 107.6 937.663ZM149.2 968.383L136.4 955.263L150.32 941.023L164.4 955.103L151.44 968.383L164.4 981.343L150.32 995.583L136.4 981.503L149.2 968.383ZM107.6 846.802C107.6 845.735 108.08 845.202 109.04 845.202H124.4C125.467 845.202 126 845.735 126 846.802V885.202C126 896.082 123.387 905.095 118.16 912.242C123.387 920.562 126 929.042 126 937.682C126 938.748 125.467 939.282 124.4 939.282H109.04C108.08 939.282 107.6 938.748 107.6 937.682C107.6 932.562 106.693 927.868 104.88 923.602C98.5867 926.482 91.76 927.922 84.4 927.922C73.52 927.922 64.56 924.402 57.52 917.362C50.3733 910.322 46.8 901.362 46.8 890.482C46.8 880.348 50.3733 871.655 57.52 864.402C64.56 857.148 72.9333 853.522 82.64 853.522C90.32 853.522 98.64 855.068 107.6 858.162V846.802ZM107.6 886.002V874.642C98.8533 871.762 91.3867 870.322 85.2 870.322C79.44 870.322 74.4267 872.188 70.16 875.922C65.7867 879.655 63.6 884.295 63.6 889.842C63.6 896.028 65.5733 901.042 69.52 904.882C73.36 908.615 78.4267 910.482 84.72 910.482C91.5467 910.482 97.0933 908.295 101.36 903.922C105.52 899.548 107.6 893.575 107.6 886.002ZM107.6 785.944C107.6 784.877 108.08 784.344 109.04 784.344H124.4C125.467 784.344 126 784.877 126 785.944C126 795.544 122.053 804.451 114.16 812.664C122.053 818.957 126 830.317 126 846.744C126 847.811 125.467 848.344 124.4 848.344L109.04 848.184C108.08 848.184 107.6 847.651 107.6 846.584C107.6 838.797 106.16 833.091 103.28 829.464C100.293 825.731 95.4933 823.864 88.88 823.864H65.2L62.8 806.584H94.32C96.4533 806.584 98.5867 806.744 100.72 807.064C105.307 800.557 107.6 793.517 107.6 785.944ZM149.2 816.664L136.4 803.544L150.32 789.304L164.4 803.384L151.44 816.664L164.4 829.624L150.32 843.864L136.4 829.784L149.2 816.664ZM107.6 695.083C107.6 694.016 108.08 693.483 109.04 693.483H124.4C125.467 693.483 126 694.016 126 695.083V733.483C126 744.363 123.387 753.376 118.16 760.523C123.387 768.843 126 777.323 126 785.963C126 787.03 125.467 787.563 124.4 787.563H109.04C108.08 787.563 107.6 787.03 107.6 785.963C107.6 780.843 106.693 776.15 104.88 771.883C98.5867 774.763 91.76 776.203 84.4 776.203C73.52 776.203 64.56 772.683 57.52 765.643C50.3733 758.603 46.8 749.643 46.8 738.763C46.8 728.63 50.3733 719.936 57.52 712.683C64.56 705.43 72.9333 701.803 82.64 701.803C90.32 701.803 98.64 703.35 107.6 706.443V695.083ZM107.6 734.283V722.923C98.8533 720.043 91.3867 718.603 85.2 718.603C79.44 718.603 74.4267 720.47 70.16 724.203C65.7867 727.936 63.6 732.576 63.6 738.123C63.6 744.31 65.5733 749.323 69.52 753.163C73.36 756.896 78.4267 758.763 84.72 758.763C91.5467 758.763 97.0933 756.576 101.36 752.203C105.52 747.83 107.6 741.856 107.6 734.283ZM107.6 593.585C107.6 592.519 108.08 591.985 109.04 591.985H124.4C125.467 591.985 126 592.519 126 593.585V599.345C126 612.572 120.4 620.892 109.2 624.305C115.067 636.785 119.333 648.572 122 659.665C124.667 670.759 126 682.492 126 694.865C126 696.039 125.467 696.625 124.4 696.625H109.04C108.08 696.625 107.6 696.039 107.6 694.865C107.6 669.585 102.373 645.532 91.92 622.705C81.7867 635.612 75.0667 645.159 71.76 651.345C68.3467 657.532 66.64 663.452 66.64 669.105C66.64 672.199 67.44 677.372 69.04 684.625L53.52 687.985C50.32 679.665 48.72 672.572 48.72 666.705C48.72 659.665 50.96 652.199 55.44 644.305C59.8133 636.412 69.2 623.292 83.6 604.945L101.04 607.985C102.32 610.332 103.227 612.092 103.76 613.265C106.32 610.172 107.6 605.479 107.6 599.185V593.585ZM126 593.619C126 594.686 125.467 595.219 124.4 595.219H109.04C108.08 595.219 107.6 594.632 107.6 593.459C107.6 581.619 101.147 575.699 88.24 575.699L11.6 575.539L9.2 558.259H93.36C115.12 558.259 126 570.046 126 593.619ZM126 532.382H11.6L9.2 514.942H126V532.382ZM21.68 422.77L34.64 435.73L20.56 449.97L6.63999 435.89L19.44 422.77L6.63999 409.65L20.56 395.41L34.64 409.49L21.68 422.77ZM107.6 372.53C107.6 371.464 108.08 370.93 109.04 370.93H124.4C125.467 370.93 126 371.464 126 372.53C126 382.557 123.813 389.97 119.44 394.77C124.773 405.117 127.44 414.557 127.44 423.09C127.44 433.97 123.707 442.93 116.24 449.97C108.773 457.01 99.4933 460.53 88.4 460.53C77.2 460.53 67.6533 457.01 59.76 449.97C51.76 442.824 47.76 433.864 47.76 423.09C47.76 416.904 49.04 410.344 51.6 403.41H42.16L39.76 386.13L92.4 385.97C97.84 385.97 101.733 384.904 104.08 382.77C106.427 380.637 107.6 377.224 107.6 372.53ZM110 423.09C110.107 416.05 108.56 409.117 105.36 402.29C102.16 402.93 98.48 403.25 94.32 403.25H69.2C66.4267 411.144 65.04 417.49 65.04 422.29C65.04 428.69 67.28 433.97 71.76 438.13C76.1333 442.184 81.5733 444.21 88.08 444.21C94.2667 444.21 99.44 442.237 103.6 438.29C107.76 434.344 109.893 429.277 110 423.09ZM22.16 330.125L35.12 343.085L21.04 357.325L7.12 343.245L19.92 330.125L7.12 317.005L21.04 302.765L35.12 316.845L22.16 330.125ZM46.8 328.685C46.8 318.019 50.3733 309.165 57.52 302.125C64.56 294.979 73.4133 291.405 84.08 291.405C97.0933 291.405 107.333 295.459 114.8 303.565C122.267 311.565 126 322.552 126 336.525V372.525C126 373.592 125.467 374.125 124.4 374.125H109.04C108.08 374.125 107.6 373.592 107.6 372.525V360.845C98.8533 364.792 91.4933 366.765 85.52 366.765C73.8933 366.765 64.56 363.245 57.52 356.205C50.3733 349.165 46.8 339.992 46.8 328.685ZM107.6 335.725C107.6 327.405 105.573 320.845 101.52 316.045C97.36 311.245 91.6533 308.845 84.4 308.845C78.4267 308.845 73.52 310.819 69.68 314.765C65.7333 318.605 63.76 323.459 63.76 329.325C63.76 334.979 65.84 339.832 70 343.885C74.16 347.832 79.12 349.805 84.88 349.805C92.1333 349.805 99.7067 347.565 107.6 343.085V335.725ZM109.04 173.505L124.4 173.345C125.467 173.345 126 173.879 126 174.945C126 186.892 123.173 195.852 117.52 201.825C119.867 206.732 121.893 213.185 123.6 221.185C125.2 229.185 126 236.119 126 241.985V279.585L107.6 282.625V248.225L34.48 262.945L30.16 245.825L107.12 232.065C106.373 223.532 105.147 215.905 103.44 209.185C100.347 209.825 96.9867 210.145 93.36 210.145L11.6 210.305L9.2 192.865H88.24C101.147 192.865 107.6 186.945 107.6 175.105C107.6 174.039 108.08 173.505 109.04 173.505ZM107.6 79.3491C107.6 78.2825 108.08 77.7491 109.04 77.7491H124.4C125.467 77.7491 126 78.2825 126 79.3491C126 96.6291 123.067 111.082 117.2 122.709C120.613 130.176 122.96 137.802 124.24 145.589C125.413 153.269 126 163.029 126 174.869C125.893 175.936 125.36 176.469 124.4 176.469H109.04C108.08 176.469 107.6 175.936 107.6 174.869C107.6 165.269 106.907 155.776 105.52 146.389C94.7467 155.349 82.5333 163.402 68.88 170.549L53.36 163.989C45.8933 149.162 42.16 135.829 42.16 123.989C42.16 113.109 44.9867 104.096 50.64 96.9491C56.2933 89.8025 63.5467 86.2291 72.4 86.2291C78.0533 86.2291 83.8667 87.7225 89.84 90.7091C95.7067 93.6958 101.04 98.2825 105.84 104.469C107.013 97.2158 107.6 88.8425 107.6 79.3491ZM59.44 126.549C59.3333 133.909 61.4133 142.442 65.68 152.149C80.2933 144.576 92.72 136.149 102.96 126.869C99.76 119.936 95.8667 114.389 91.28 110.229C86.6933 106.069 82.32 103.989 78.16 103.989C72.6133 103.989 68.1333 106.016 64.72 110.069C61.2 114.122 59.44 119.616 59.44 126.549ZM126 78.9316C126 79.9983 125.467 80.5316 124.4 80.5316H109.04C108.08 80.5316 107.6 79.945 107.6 78.7716C107.6 66.9316 101.147 61.0116 88.24 61.0116L11.6 60.8516L9.2 43.5716H93.36C115.12 43.5716 126 55.3583 126 78.9316ZM126 17.6941H11.6L9.2 0.254139H126V17.6941Z"/>
</mask>
<path d="M115.6 1560.48L114.862 1559.81L114.156 1560.58L114.959 1561.25L115.6 1560.48ZM126 1586.88H127V1586.87L126.999 1586.85L126 1586.88ZM55.6 1663.68L54.608 1663.56L54.4924 1664.46L55.3839 1664.66L55.6 1663.68ZM57.52 1648.64L57.7059 1647.66L56.6625 1647.46L56.528 1648.52L57.52 1648.64ZM102 1645.28L101.232 1644.64L102 1645.28ZM88.88 1571.04V1570.04L88.8732 1570.04L88.88 1571.04ZM65.2 1571.2L64.2093 1571.34L64.329 1572.21L65.2067 1572.2L65.2 1571.2ZM62.8 1553.76V1552.76H61.653L61.8093 1553.9L62.8 1553.76ZM101.68 1554.4L101.484 1555.38L102.138 1555.52L102.51 1554.96L101.68 1554.4ZM150.32 1621.12L149.613 1621.83L150.332 1622.55L151.039 1621.82L150.32 1621.12ZM136.24 1607.04L135.525 1606.35L134.834 1607.05L135.533 1607.75L136.24 1607.04ZM150.32 1592.64L151.031 1591.94L150.316 1591.22L149.605 1591.95L150.32 1592.64ZM164.24 1606.72L164.959 1607.42L165.638 1606.72L164.951 1606.02L164.24 1606.72ZM108.6 1535.36C108.6 1534.96 108.693 1534.84 108.703 1534.83C108.707 1534.83 108.718 1534.82 108.757 1534.8C108.802 1534.79 108.89 1534.76 109.04 1534.76V1532.76C108.377 1532.76 107.705 1532.95 107.217 1533.5C106.747 1534.02 106.6 1534.7 106.6 1535.36H108.6ZM109.04 1534.76H124.4V1532.76H109.04V1534.76ZM124.4 1534.76C124.779 1534.76 124.88 1534.86 124.893 1534.87C124.906 1534.88 125 1534.98 125 1535.36H127C127 1534.68 126.827 1533.98 126.307 1533.46C125.787 1532.94 125.087 1532.76 124.4 1532.76V1534.76ZM125 1535.36C125 1544.26 121.649 1552.4 114.862 1559.81L116.338 1561.16C123.418 1553.43 127 1544.82 127 1535.36H125ZM114.959 1561.25C121.166 1566.44 124.579 1574.92 125.001 1586.92L126.999 1586.85C126.567 1574.53 123.047 1565.41 116.241 1559.72L114.959 1561.25ZM125 1586.88V1587.2H127V1586.88H125ZM125 1587.2V1628.8H127V1587.2H125ZM125 1628.8C125 1641.84 122.002 1651.44 116.184 1657.77C110.38 1664.08 101.61 1667.32 89.68 1667.32V1669.32C101.964 1669.32 111.354 1665.98 117.656 1659.12C123.944 1652.28 127 1642.11 127 1628.8H125ZM89.68 1667.32C81.0371 1667.32 69.7572 1665.79 55.8161 1662.71L55.3839 1664.66C69.3894 1667.76 80.8295 1669.32 89.68 1669.32V1667.32ZM56.5919 1663.81L58.5119 1648.77L56.528 1648.52L54.608 1663.56L56.5919 1663.81ZM57.3341 1649.63C69.1906 1651.87 78.3311 1653 84.72 1653V1651C78.5222 1651 69.5294 1649.9 57.7059 1647.66L57.3341 1649.63ZM84.72 1653C92.6976 1653 98.7862 1650.7 102.768 1645.92L101.232 1644.64C97.7471 1648.83 92.3158 1651 84.72 1651V1653ZM102.768 1645.92C106.719 1641.18 108.6 1633.97 108.6 1624.48H106.6C106.6 1633.77 104.748 1640.42 101.232 1644.64L102.768 1645.92ZM108.6 1624.48V1588.96H106.6V1624.48H108.6ZM108.6 1588.96C108.6 1582.83 106.995 1578.04 103.611 1574.8C100.237 1571.57 95.2635 1570.04 88.88 1570.04V1572.04C94.9765 1572.04 99.3634 1573.5 102.229 1576.25C105.085 1578.98 106.6 1583.16 106.6 1588.96H108.6ZM88.8732 1570.04L65.1932 1570.2L65.2067 1572.2L88.8867 1572.04L88.8732 1570.04ZM66.1907 1571.07L63.7907 1553.63L61.8093 1553.9L64.2093 1571.34L66.1907 1571.07ZM62.8 1554.76H94.32V1552.76H62.8V1554.76ZM94.32 1554.76C97.0445 1554.76 99.4299 1554.97 101.484 1555.38L101.876 1553.42C99.6635 1552.98 97.1422 1552.76 94.32 1552.76V1554.76ZM102.51 1554.96C106.563 1548.94 108.6 1542.4 108.6 1535.36H106.6C106.6 1541.98 104.69 1548.14 100.85 1553.85L102.51 1554.96ZM151.027 1620.42L136.947 1606.34L135.533 1607.75L149.613 1621.83L151.027 1620.42ZM136.955 1607.74L151.035 1593.34L149.605 1591.95L135.525 1606.35L136.955 1607.74ZM149.609 1593.35L163.529 1607.43L164.951 1606.02L151.031 1591.94L149.609 1593.35ZM163.521 1606.03L149.601 1620.43L151.039 1621.82L164.959 1607.42L163.521 1606.03ZM114.16 1501.26L113.439 1500.56L112.679 1501.36L113.537 1502.04L114.16 1501.26ZM124.4 1536.94L124.39 1537.94H124.4V1536.94ZM109.04 1536.78L109.05 1535.78H109.04V1536.78ZM103.28 1518.06L104.063 1517.44L104.061 1517.43L103.28 1518.06ZM65.2 1512.46L64.2095 1512.6L64.3293 1513.46H65.2V1512.46ZM62.8 1495.18V1494.18H61.6515L61.8095 1495.32L62.8 1495.18ZM100.72 1495.66L100.572 1496.65L101.182 1496.74L101.537 1496.23L100.72 1495.66ZM149.2 1505.26L149.916 1505.96L150.597 1505.26L149.916 1504.56L149.2 1505.26ZM136.4 1492.14L135.685 1491.44L135.002 1492.14L135.684 1492.84L136.4 1492.14ZM150.32 1477.9L151.027 1477.19L150.312 1476.48L149.605 1477.2L150.32 1477.9ZM164.4 1491.98L165.116 1492.68L165.806 1491.97L165.107 1491.27L164.4 1491.98ZM151.44 1505.26L150.724 1504.56L150.034 1505.27L150.733 1505.96L151.44 1505.26ZM164.4 1518.22L165.111 1518.92L165.81 1518.21L165.107 1517.51L164.4 1518.22ZM150.32 1532.46L149.609 1533.16L150.32 1533.88L151.031 1533.16L150.32 1532.46ZM136.4 1518.38L135.684 1517.68L134.998 1518.38L135.689 1519.08L136.4 1518.38ZM108.6 1474.54C108.6 1474.13 108.693 1474.02 108.703 1474.01C108.707 1474 108.718 1473.99 108.757 1473.98C108.802 1473.96 108.89 1473.94 109.04 1473.94V1471.94C108.377 1471.94 107.705 1472.13 107.217 1472.67C106.747 1473.19 106.6 1473.87 106.6 1474.54H108.6ZM109.04 1473.94H124.4V1471.94H109.04V1473.94ZM124.4 1473.94C124.779 1473.94 124.88 1474.03 124.893 1474.04C124.906 1474.06 125 1474.16 125 1474.54H127C127 1473.85 126.827 1473.15 126.307 1472.63C125.787 1472.11 125.087 1471.94 124.4 1471.94V1473.94ZM125 1474.54C125 1483.83 121.189 1492.5 113.439 1500.56L114.881 1501.95C122.918 1493.59 127 1484.44 127 1474.54H125ZM113.537 1502.04C121.075 1508.05 125 1519.03 125 1535.34H127C127 1518.8 123.031 1507.05 114.783 1500.48L113.537 1502.04ZM125 1535.34C125 1535.72 124.906 1535.82 124.893 1535.83C124.88 1535.84 124.779 1535.94 124.4 1535.94V1537.94C125.087 1537.94 125.787 1537.77 126.307 1537.24C126.827 1536.72 127 1536.03 127 1535.34H125ZM124.41 1535.94L109.05 1535.78L109.03 1537.78L124.39 1537.94L124.41 1535.94ZM109.04 1535.78C108.89 1535.78 108.802 1535.76 108.757 1535.74C108.718 1535.73 108.707 1535.71 108.703 1535.71C108.693 1535.7 108.6 1535.58 108.6 1535.18H106.6C106.6 1535.84 106.747 1536.52 107.217 1537.05C107.705 1537.59 108.377 1537.78 109.04 1537.78V1535.78ZM108.6 1535.18C108.6 1527.31 107.151 1521.32 104.063 1517.44L102.497 1518.68C105.169 1522.04 106.6 1527.48 106.6 1535.18H108.6ZM104.061 1517.43C100.819 1513.38 95.674 1511.46 88.88 1511.46V1513.46C95.3127 1513.46 99.7677 1515.27 102.499 1518.68L104.061 1517.43ZM88.88 1511.46H65.2V1513.46H88.88V1511.46ZM66.1905 1512.32L63.7905 1495.04L61.8095 1495.32L64.2095 1512.6L66.1905 1512.32ZM62.8 1496.18H94.32V1494.18H62.8V1496.18ZM94.32 1496.18C96.4031 1496.18 98.4869 1496.33 100.572 1496.65L100.868 1494.67C98.6864 1494.34 96.5035 1494.18 94.32 1494.18V1496.18ZM101.537 1496.23C106.236 1489.57 108.6 1482.33 108.6 1474.54H106.6C106.6 1481.89 104.377 1488.73 99.9027 1495.08L101.537 1496.23ZM149.916 1504.56L137.116 1491.44L135.684 1492.84L148.484 1505.96L149.916 1504.56ZM137.115 1492.84L151.035 1478.6L149.605 1477.2L135.685 1491.44L137.115 1492.84ZM149.613 1478.6L163.693 1492.68L165.107 1491.27L151.027 1477.19L149.613 1478.6ZM163.684 1491.28L150.724 1504.56L152.156 1505.96L165.116 1492.68L163.684 1491.28ZM150.733 1505.96L163.693 1518.93L165.107 1517.51L152.147 1504.55L150.733 1505.96ZM163.689 1517.51L149.609 1531.75L151.031 1533.16L165.111 1518.92L163.689 1517.51ZM151.031 1531.75L137.111 1517.67L135.689 1519.08L149.609 1533.16L151.031 1531.75ZM137.116 1519.08L149.916 1505.96L148.484 1504.56L135.684 1517.68L137.116 1519.08ZM116.56 1347.68L115.82 1347L115.143 1347.75L115.892 1348.42L116.56 1347.68ZM117.2 1399.36L116.356 1398.82L115.938 1399.48L116.474 1400.04L117.2 1399.36ZM117.04 1448L116.23 1447.41L115.73 1448.1L116.333 1448.7L117.04 1448ZM88.88 1456.64V1455.64L88.8732 1455.64L88.88 1456.64ZM65.2 1456.8L64.2093 1456.93L64.329 1457.8L65.2067 1457.8L65.2 1456.8ZM62.8 1439.36V1438.36H61.653L61.8093 1439.49L62.8 1439.36ZM104.24 1440.64L103.982 1441.6L104.833 1441.83L105.166 1441.01L104.24 1440.64ZM88.72 1407.84V1406.84L88.7132 1406.84L88.72 1407.84ZM65.04 1408L64.0493 1408.13L64.169 1409L65.0468 1409L65.04 1408ZM62.64 1390.56V1389.56H61.493L61.6493 1390.69L62.64 1390.56ZM104.24 1391.84L103.982 1392.8L104.839 1393.03L105.168 1392.21L104.24 1391.84ZM48.24 1357.76L47.2495 1357.89L47.3693 1358.76H48.24V1357.76ZM45.84 1340.48V1339.48H44.6915L44.8495 1340.61L45.84 1340.48ZM102.64 1341.28L102.458 1342.26L103.136 1342.39L103.495 1341.8L102.64 1341.28ZM108.6 1323.84C108.6 1323.43 108.693 1323.32 108.703 1323.31C108.707 1323.3 108.718 1323.29 108.757 1323.27C108.802 1323.26 108.89 1323.24 109.04 1323.24V1321.24C108.377 1321.24 107.705 1321.43 107.217 1321.97C106.747 1322.49 106.6 1323.17 106.6 1323.84H108.6ZM109.04 1323.24H124.4V1321.24H109.04V1323.24ZM124.4 1323.24C124.779 1323.24 124.88 1323.33 124.893 1323.34C124.906 1323.36 125 1323.46 125 1323.84H127C127 1323.15 126.827 1322.45 126.307 1321.93C125.787 1321.41 125.087 1321.24 124.4 1321.24V1323.24ZM125 1323.84C125 1332.54 121.954 1340.25 115.82 1347L117.3 1348.35C123.753 1341.24 127 1333.06 127 1323.84H125ZM115.892 1348.42C121.801 1353.72 124.84 1361.78 124.84 1372.8H126.84C126.84 1361.42 123.692 1352.73 117.228 1346.93L115.892 1348.42ZM124.84 1372.8C124.84 1381.21 122.039 1389.88 116.356 1398.82L118.044 1399.89C123.881 1390.7 126.84 1381.67 126.84 1372.8H124.84ZM116.474 1400.04C122.017 1405.9 124.84 1413.89 124.84 1424.16H126.84C126.84 1413.51 123.903 1404.98 117.926 1398.67L116.474 1400.04ZM124.84 1424.16C124.84 1431.68 122.008 1439.43 116.23 1447.41L117.85 1448.58C123.805 1440.35 126.84 1432.21 126.84 1424.16H124.84ZM116.333 1448.7C122.056 1454.43 125 1462.98 125 1474.56H127C127 1462.66 123.971 1453.51 117.747 1447.29L116.333 1448.7ZM125 1474.56C125 1474.94 124.906 1475.04 124.893 1475.05C124.88 1475.06 124.779 1475.16 124.4 1475.16V1477.16C125.087 1477.16 125.787 1476.98 126.307 1476.46C126.827 1475.94 127 1475.24 127 1474.56H125ZM124.4 1475.16H109.04V1477.16H124.4V1475.16ZM109.04 1475.16C108.89 1475.16 108.802 1475.14 108.757 1475.12C108.718 1475.1 108.707 1475.09 108.703 1475.09C108.693 1475.08 108.6 1474.96 108.6 1474.56H106.6C106.6 1475.22 106.747 1475.9 107.217 1476.43C107.705 1476.97 108.377 1477.16 109.04 1477.16V1475.16ZM108.6 1474.56C108.6 1468.42 106.995 1463.63 103.611 1460.39C100.237 1457.16 95.2635 1455.64 88.88 1455.64V1457.64C94.9765 1457.64 99.3634 1459.1 102.229 1461.84C105.085 1464.57 106.6 1468.75 106.6 1474.56H108.6ZM88.8732 1455.64L65.1932 1455.8L65.2067 1457.8L88.8867 1457.64L88.8732 1455.64ZM66.1907 1456.66L63.7907 1439.22L61.8093 1439.49L64.2093 1456.93L66.1907 1456.66ZM62.8 1440.36H94.32V1438.36H62.8V1440.36ZM94.32 1440.36C97.649 1440.36 100.869 1440.77 103.982 1441.6L104.498 1439.67C101.211 1438.79 97.8176 1438.36 94.32 1438.36V1440.36ZM105.166 1441.01C107.338 1435.69 108.44 1430.6 108.44 1425.76H106.44C106.44 1430.3 105.408 1435.13 103.314 1440.26L105.166 1441.01ZM108.44 1425.76C108.44 1419.62 106.835 1414.83 103.452 1411.59C100.077 1408.36 95.1035 1406.84 88.72 1406.84V1408.84C94.8165 1408.84 99.2034 1410.3 102.068 1413.04C104.925 1415.77 106.44 1419.95 106.44 1425.76H108.44ZM88.7132 1406.84L65.0332 1407L65.0468 1409L88.7268 1408.84L88.7132 1406.84ZM66.0307 1407.86L63.6307 1390.42L61.6493 1390.69L64.0493 1408.13L66.0307 1407.86ZM62.64 1391.56H94.16V1389.56H62.64V1391.56ZM94.16 1391.56C97.5985 1391.56 100.872 1391.97 103.982 1392.8L104.498 1390.87C101.208 1389.99 97.7615 1389.56 94.16 1389.56V1391.56ZM105.168 1392.21C107.347 1386.76 108.44 1381.2 108.44 1375.52H106.44C106.44 1380.93 105.399 1386.25 103.312 1391.47L105.168 1392.21ZM108.44 1375.52C108.44 1369.43 106.833 1364.68 103.448 1361.47C100.073 1358.27 95.1014 1356.76 88.72 1356.76V1358.76C94.8186 1358.76 99.2068 1360.2 102.072 1362.92C104.927 1365.63 106.44 1369.76 106.44 1375.52H108.44ZM88.72 1356.76H48.24V1358.76H88.72V1356.76ZM49.2305 1357.62L46.8305 1340.34L44.8495 1340.61L47.2495 1357.89L49.2305 1357.62ZM45.84 1341.48H94.16V1339.48H45.84V1341.48ZM94.16 1341.48C96.8689 1341.48 99.6346 1341.74 102.458 1342.26L102.822 1340.29C99.8854 1339.75 96.9977 1339.48 94.16 1339.48V1341.48ZM103.495 1341.8C106.893 1336.2 108.6 1330.21 108.6 1323.84H106.6C106.6 1329.83 105 1335.47 101.785 1340.76L103.495 1341.8ZM115.44 1244.9L114.717 1244.2L114.025 1244.93L114.75 1245.62L115.44 1244.9ZM103.12 1259.14L103.892 1258.5L103.89 1258.5L103.12 1259.14ZM77.84 1258.98L78.5898 1259.64L78.5954 1259.63L78.6008 1259.62L77.84 1258.98ZM73.04 1311.46L73.538 1312.32L74.04 1312.03V1311.46H73.04ZM56.88 1320.74L56.24 1321.5L56.7746 1321.95L57.378 1321.6L56.88 1320.74ZM0.399994 1273.7L-0.478859 1273.22L-0.87009 1273.94L-0.239975 1274.46L0.399994 1273.7ZM9.51999 1256.9L10.194 1256.16L9.25051 1255.3L8.64114 1256.42L9.51999 1256.9ZM57.04 1300.26L56.366 1300.99L58.04 1302.52V1300.26H57.04ZM66.16 1246.82L66.9217 1247.46L66.16 1246.82ZM102.32 1237.54L102.064 1238.5L102.778 1238.69L103.169 1238.06L102.32 1237.54ZM108.6 1219.62C108.6 1219.21 108.693 1219.1 108.703 1219.08C108.707 1219.08 108.718 1219.07 108.757 1219.05C108.802 1219.04 108.89 1219.02 109.04 1219.02V1217.02C108.377 1217.02 107.705 1217.2 107.217 1217.75C106.747 1218.27 106.6 1218.95 106.6 1219.62H108.6ZM109.04 1219.02H124.4V1217.02H109.04V1219.02ZM124.4 1219.02C124.779 1219.02 124.88 1219.11 124.893 1219.12C124.906 1219.14 125 1219.24 125 1219.62H127C127 1218.93 126.827 1218.23 126.307 1217.71C125.787 1217.19 125.087 1217.02 124.4 1217.02V1219.02ZM125 1219.62C125 1228.83 121.594 1237.02 114.717 1244.2L116.163 1245.59C123.366 1238.06 127 1229.39 127 1219.62H125ZM114.75 1245.62C121.545 1252.11 125 1261.26 125 1273.22H127C127 1260.85 123.415 1251.13 116.13 1244.17L114.75 1245.62ZM125 1273.22V1323.78H127V1273.22H125ZM125 1323.78C125 1324.15 124.906 1324.26 124.893 1324.27C124.88 1324.28 124.779 1324.38 124.4 1324.38V1326.38C125.087 1326.38 125.787 1326.2 126.307 1325.68C126.827 1325.16 127 1324.46 127 1323.78H125ZM124.4 1324.38H109.04V1326.38H124.4V1324.38ZM109.04 1324.38C108.89 1324.38 108.802 1324.35 108.757 1324.34C108.718 1324.32 108.707 1324.31 108.703 1324.31C108.693 1324.3 108.6 1324.18 108.6 1323.78H106.6C106.6 1324.44 106.747 1325.12 107.217 1325.64C107.705 1326.19 108.377 1326.38 109.04 1326.38V1324.38ZM108.6 1323.78V1274.02H106.6V1323.78H108.6ZM108.6 1274.02C108.6 1267.57 107.069 1262.36 103.892 1258.5L102.348 1259.77C105.144 1263.17 106.6 1267.88 106.6 1274.02H108.6ZM103.89 1258.5C100.586 1254.51 96.0773 1252.54 90.48 1252.54V1254.54C95.5493 1254.54 99.4672 1256.29 102.35 1259.77L103.89 1258.5ZM90.48 1252.54C84.893 1252.54 80.3865 1254.45 77.0792 1258.33L78.6008 1259.62C81.4802 1256.25 85.4004 1254.54 90.48 1254.54V1252.54ZM77.0902 1258.31C73.6854 1262.17 72.04 1267.39 72.04 1273.86H74.04C74.04 1267.73 75.5946 1263.03 78.5898 1259.64L77.0902 1258.31ZM72.04 1273.86V1311.46H74.04V1273.86H72.04ZM72.542 1310.59L56.382 1319.87L57.378 1321.6L73.538 1312.32L72.542 1310.59ZM57.52 1319.97L1.03997 1272.93L-0.239975 1274.46L56.24 1321.5L57.52 1319.97ZM1.27885 1274.17L10.3988 1257.37L8.64114 1256.42L-0.478859 1273.22L1.27885 1274.17ZM8.84596 1257.63L56.366 1300.99L57.714 1299.52L10.194 1256.16L8.84596 1257.63ZM58.04 1300.26V1275.3H56.04V1300.26H58.04ZM58.04 1275.3C58.04 1263.63 61.0324 1254.39 66.9217 1247.46L65.3983 1246.17C59.1276 1253.54 56.04 1263.28 56.04 1275.3H58.04ZM66.9217 1247.46C72.7929 1240.56 80.6629 1237.1 90.64 1237.1V1235.1C80.1371 1235.1 71.6871 1238.78 65.3983 1246.17L66.9217 1247.46ZM90.64 1237.1C94.7229 1237.1 98.5294 1237.57 102.064 1238.5L102.576 1236.57C98.8572 1235.58 94.8771 1235.1 90.64 1235.1V1237.1ZM103.169 1238.06C106.782 1232.26 108.6 1226.11 108.6 1219.62H106.6C106.6 1225.71 104.898 1231.5 101.471 1237.01L103.169 1238.06ZM88.24 1201.64L88.2379 1202.64H88.24V1201.64ZM11.6 1201.48L10.6095 1201.61L10.729 1202.47L11.5979 1202.48L11.6 1201.48ZM9.2 1184.2V1183.2H8.05151L8.2095 1184.33L9.2 1184.2ZM125 1219.56C125 1219.94 124.906 1220.04 124.893 1220.05C124.88 1220.06 124.779 1220.16 124.4 1220.16V1222.16C125.087 1222.16 125.787 1221.98 126.307 1221.46C126.827 1220.94 127 1220.24 127 1219.56H125ZM124.4 1220.16H109.04V1222.16H124.4V1220.16ZM109.04 1220.16C108.773 1220.16 108.735 1220.08 108.734 1220.08C108.701 1220.04 108.6 1219.87 108.6 1219.4H106.6C106.6 1220.09 106.739 1220.8 107.186 1221.35C107.665 1221.94 108.347 1222.16 109.04 1222.16V1220.16ZM108.6 1219.4C108.6 1213.3 106.934 1208.55 103.436 1205.34C99.954 1202.15 94.8271 1200.64 88.24 1200.64V1202.64C94.5595 1202.64 99.1127 1204.09 102.084 1206.81C105.039 1209.52 106.6 1213.65 106.6 1219.4H108.6ZM88.2421 1200.64L11.6021 1200.48L11.5979 1202.48L88.2379 1202.64L88.2421 1200.64ZM12.5905 1201.34L10.1905 1184.06L8.2095 1184.33L10.6095 1201.61L12.5905 1201.34ZM9.2 1185.2H93.36V1183.2H9.2V1185.2ZM93.36 1185.2C104.064 1185.2 111.915 1188.09 117.105 1193.71C122.31 1199.35 125 1207.91 125 1219.56H127C127 1207.63 124.25 1198.51 118.575 1192.36C112.885 1186.19 104.416 1183.2 93.36 1183.2V1185.2ZM126 1158.32V1159.32H127V1158.32H126ZM11.6 1158.32L10.6093 1158.46L10.7282 1159.32H11.6V1158.32ZM9.2 1140.88V1139.88H8.05296L8.20934 1141.02L9.2 1140.88ZM126 1140.88H127V1139.88H126V1140.88ZM126 1157.32H11.6V1159.32H126V1157.32ZM12.5907 1158.18L10.1907 1140.74L8.20934 1141.02L10.6093 1158.46L12.5907 1158.18ZM9.2 1141.88H126V1139.88H9.2V1141.88ZM125 1140.88V1158.32H127V1140.88H125ZM21.68 1048.71L20.9643 1048.01L20.2744 1048.72L20.9729 1049.41L21.68 1048.71ZM34.64 1061.67L35.3511 1062.37L36.0502 1061.66L35.3471 1060.96L34.64 1061.67ZM20.56 1075.91L19.8489 1076.61L20.5599 1077.33L21.2711 1076.61L20.56 1075.91ZM6.63999 1061.83L5.92421 1061.13L5.23838 1061.83L5.92886 1062.53L6.63999 1061.83ZM19.44 1048.71L20.1558 1049.41L20.8371 1048.71L20.1558 1048.01L19.44 1048.71ZM6.63999 1035.59L5.9249 1034.89L5.24225 1035.59L5.92421 1036.29L6.63999 1035.59ZM20.56 1021.35L21.2671 1020.64L20.5519 1019.93L19.8449 1020.65L20.56 1021.35ZM34.64 1035.43L35.3557 1036.13L36.0456 1035.42L35.3471 1034.72L34.64 1035.43ZM119.44 1020.71L118.701 1020.03L118.233 1020.55L118.551 1021.17L119.44 1020.71ZM116.24 1075.91L115.554 1075.18L116.24 1075.91ZM59.76 1075.91L59.0938 1076.65L59.0944 1076.65L59.76 1075.91ZM51.6 1029.35L52.5381 1029.69L53.0352 1028.35H51.6V1029.35ZM42.16 1029.35L41.1695 1029.49L41.2893 1030.35H42.16V1029.35ZM39.76 1012.07L39.757 1011.07L38.612 1011.07L38.7695 1012.21L39.76 1012.07ZM92.4 1011.91V1010.91H92.397L92.4 1011.91ZM104.08 1008.71L104.753 1009.45L104.08 1008.71ZM110 1049.03L111 1049.05L111 1049.04L110 1049.03ZM105.36 1028.23L106.265 1027.8L105.933 1027.09L105.164 1027.25L105.36 1028.23ZM69.2 1029.19V1028.19H68.4914L68.2565 1028.86L69.2 1029.19ZM71.76 1064.07L71.0795 1064.8L71.0802 1064.8L71.76 1064.07ZM103.6 1064.23L104.288 1064.95L103.6 1064.23ZM20.9729 1049.41L33.9329 1062.38L35.3471 1060.96L22.3871 1048L20.9729 1049.41ZM33.9289 1060.96L19.8489 1075.2L21.2711 1076.61L35.3511 1062.37L33.9289 1060.96ZM21.2711 1075.2L7.35113 1061.12L5.92886 1062.53L19.8489 1076.61L21.2711 1075.2ZM7.35577 1062.53L20.1558 1049.41L18.7242 1048.01L5.92421 1061.13L7.35577 1062.53ZM20.1558 1048.01L7.35577 1034.89L5.92421 1036.29L18.7242 1049.41L20.1558 1048.01ZM7.35509 1036.29L21.2751 1022.05L19.8449 1020.65L5.9249 1034.89L7.35509 1036.29ZM19.8529 1022.05L33.9329 1036.14L35.3471 1034.72L21.2671 1020.64L19.8529 1022.05ZM33.9243 1034.73L20.9643 1048.01L22.3957 1049.41L35.3557 1036.13L33.9243 1034.73ZM108.6 998.468C108.6 998.064 108.693 997.948 108.703 997.937C108.707 997.932 108.718 997.92 108.757 997.906C108.802 997.889 108.89 997.868 109.04 997.868V995.868C108.377 995.868 107.705 996.057 107.217 996.599C106.747 997.121 106.6 997.805 106.6 998.468H108.6ZM109.04 997.868H124.4V995.868H109.04V997.868ZM124.4 997.868C124.779 997.868 124.88 997.962 124.893 997.975C124.906 997.988 125 998.089 125 998.468H127C127 997.78 126.827 997.081 126.307 996.561C125.787 996.04 125.087 995.868 124.4 995.868V997.868ZM125 998.468C125 1008.38 122.835 1015.5 118.701 1020.03L120.179 1021.38C124.791 1016.32 127 1008.61 127 998.468H125ZM118.551 1021.17C123.837 1031.42 126.44 1040.7 126.44 1049.03H128.44C128.44 1040.29 125.71 1030.69 120.329 1020.25L118.551 1021.17ZM126.44 1049.03C126.44 1059.65 122.807 1068.34 115.554 1075.18L116.926 1076.64C124.606 1069.39 128.44 1060.16 128.44 1049.03H126.44ZM115.554 1075.18C108.289 1082.03 99.2609 1085.47 88.4 1085.47V1087.47C99.7258 1087.47 109.258 1083.87 116.926 1076.64L115.554 1075.18ZM88.4 1085.47C77.4297 1085.47 68.1243 1082.03 60.4256 1075.16L59.0944 1076.65C67.1824 1083.87 76.9703 1087.47 88.4 1087.47V1085.47ZM60.4262 1075.16C52.6396 1068.21 48.76 1059.52 48.76 1049.03H46.76C46.76 1060.08 50.8804 1069.32 59.0938 1076.65L60.4262 1075.16ZM48.76 1049.03C48.76 1042.98 50.0113 1036.54 52.5381 1029.69L50.6619 1029C48.0687 1036.02 46.76 1042.7 46.76 1049.03H48.76ZM51.6 1028.35H42.16V1030.35H51.6V1028.35ZM43.1505 1029.21L40.7505 1011.93L38.7695 1012.21L41.1695 1029.49L43.1505 1029.21ZM39.763 1013.07L92.403 1012.91L92.397 1010.91L39.757 1011.07L39.763 1013.07ZM92.4 1012.91C97.9249 1012.91 102.129 1011.83 104.753 1009.45L103.407 1007.97C101.338 1009.85 97.7551 1010.91 92.4 1010.91V1012.91ZM104.753 1009.45C107.391 1007.05 108.6 1003.31 108.6 998.468H106.6C106.6 1003.02 105.462 1006.1 103.407 1007.97L104.753 1009.45ZM111 1049.04C111.109 1041.84 109.525 1034.76 106.265 1027.8L104.455 1028.65C107.595 1035.35 109.104 1042.14 109 1049.01L111 1049.04ZM105.164 1027.25C102.043 1027.87 98.4311 1028.19 94.32 1028.19V1030.19C98.5289 1030.19 102.277 1029.86 105.556 1029.21L105.164 1027.25ZM94.32 1028.19H69.2V1030.19H94.32V1028.19ZM68.2565 1028.86C65.4693 1036.79 64.04 1043.26 64.04 1048.23H66.04C66.04 1043.59 67.3841 1037.37 70.1435 1029.52L68.2565 1028.86ZM64.04 1048.23C64.04 1054.89 66.3853 1060.44 71.0795 1064.8L72.4404 1063.34C68.1747 1059.37 66.04 1054.36 66.04 1048.23H64.04ZM71.0802 1064.8C75.656 1069.04 81.3463 1071.15 88.08 1071.15V1069.15C81.8004 1069.15 76.6106 1067.2 72.4398 1063.33L71.0802 1064.8ZM88.08 1071.15C94.5006 1071.15 99.927 1069.09 104.288 1064.95L102.912 1063.5C98.953 1067.26 94.0327 1069.15 88.08 1069.15V1071.15ZM104.288 1064.95C108.659 1060.81 110.889 1055.48 111 1049.05L109 1049.01C108.898 1054.95 106.861 1059.76 102.912 1063.5L104.288 1064.95ZM114.16 964.383L113.439 963.69L112.679 964.481L113.537 965.165L114.16 964.383ZM124.4 1000.06L124.39 1001.06H124.4V1000.06ZM109.04 999.903L109.05 998.903H109.04V999.903ZM103.28 981.183L104.063 980.561L104.061 980.558L103.28 981.183ZM65.2 975.583L64.2095 975.72L64.3293 976.583H65.2V975.583ZM62.8 958.303V957.303H61.6515L61.8095 958.44L62.8 958.303ZM100.72 958.783L100.572 959.772L101.182 959.863L101.537 959.359L100.72 958.783ZM149.2 968.383L149.916 969.081L150.597 968.383L149.916 967.685L149.2 968.383ZM136.4 955.263L135.685 954.564L135.002 955.262L135.684 955.961L136.4 955.263ZM150.32 941.023L151.027 940.316L150.312 939.601L149.605 940.324L150.32 941.023ZM164.4 955.103L165.116 955.801L165.806 955.094L165.107 954.396L164.4 955.103ZM151.44 968.383L150.724 967.684L150.034 968.391L150.733 969.09L151.44 968.383ZM164.4 981.343L165.111 982.046L165.81 981.339L165.107 980.636L164.4 981.343ZM150.32 995.583L149.609 996.286L150.32 997.005L151.031 996.286L150.32 995.583ZM136.4 981.503L135.684 980.805L134.998 981.508L135.689 982.206L136.4 981.503ZM108.6 937.663C108.6 937.259 108.693 937.143 108.703 937.132C108.707 937.127 108.718 937.115 108.757 937.101C108.802 937.084 108.89 937.063 109.04 937.063V935.063C108.377 935.063 107.705 935.252 107.217 935.794C106.747 936.316 106.6 937 106.6 937.663H108.6ZM109.04 937.063H124.4V935.063H109.04V937.063ZM124.4 937.063C124.779 937.063 124.88 937.157 124.893 937.17C124.906 937.183 125 937.284 125 937.663H127C127 936.975 126.827 936.276 126.307 935.756C125.787 935.235 125.087 935.063 124.4 935.063V937.063ZM125 937.663C125 946.957 121.189 955.626 113.439 963.69L114.881 965.076C122.918 956.713 127 947.568 127 937.663H125ZM113.537 965.165C121.075 971.176 125 982.151 125 998.463H127C127 981.921 123.031 970.177 114.783 963.601L113.537 965.165ZM125 998.463C125 998.842 124.906 998.943 124.893 998.956C124.88 998.969 124.779 999.063 124.4 999.063V1001.06C125.087 1001.06 125.787 1000.89 126.307 1000.37C126.827 999.85 127 999.15 127 998.463H125ZM124.41 999.063L109.05 998.903L109.03 1000.9L124.39 1001.06L124.41 999.063ZM109.04 998.903C108.89 998.903 108.802 998.882 108.757 998.865C108.718 998.851 108.707 998.839 108.703 998.834C108.693 998.823 108.6 998.707 108.6 998.303H106.6C106.6 998.966 106.747 999.65 107.217 1000.17C107.705 1000.71 108.377 1000.9 109.04 1000.9V998.903ZM108.6 998.303C108.6 990.431 107.151 984.45 104.063 980.561L102.497 981.805C105.169 985.169 106.6 990.602 106.6 998.303H108.6ZM104.061 980.558C100.819 976.506 95.674 974.583 88.88 974.583V976.583C95.3127 976.583 99.7677 978.393 102.499 981.808L104.061 980.558ZM88.88 974.583H65.2V976.583H88.88V974.583ZM66.1905 975.445L63.7905 958.165L61.8095 958.44L64.2095 975.72L66.1905 975.445ZM62.8 959.303H94.32V957.303H62.8V959.303ZM94.32 959.303C96.4031 959.303 98.4869 959.459 100.572 959.772L100.868 957.794C98.6864 957.467 96.5035 957.303 94.32 957.303V959.303ZM101.537 959.359C106.236 952.693 108.6 945.453 108.6 937.663H106.6C106.6 945.019 104.377 951.859 99.9027 958.207L101.537 959.359ZM149.916 967.685L137.116 954.565L135.684 955.961L148.484 969.081L149.916 967.685ZM137.115 955.962L151.035 941.722L149.605 940.324L135.685 954.564L137.115 955.962ZM149.613 941.73L163.693 955.81L165.107 954.396L151.027 940.316L149.613 941.73ZM163.684 954.404L150.724 967.684L152.156 969.081L165.116 955.801L163.684 954.404ZM150.733 969.09L163.693 982.05L165.107 980.636L152.147 967.676L150.733 969.09ZM163.689 980.64L149.609 994.88L151.031 996.286L165.111 982.046L163.689 980.64ZM151.031 994.88L137.111 980.8L135.689 982.206L149.609 996.286L151.031 994.88ZM137.116 982.201L149.916 969.081L148.484 967.685L135.684 980.805L137.116 982.201ZM118.16 912.242L117.353 911.651L116.952 912.199L117.313 912.774L118.16 912.242ZM104.88 923.602L105.8 923.211L105.398 922.265L104.464 922.692L104.88 923.602ZM57.52 917.362L58.2271 916.655L58.2218 916.649L57.52 917.362ZM57.52 864.402L58.2323 865.104L58.2376 865.098L57.52 864.402ZM107.6 858.162L107.274 859.107L108.6 859.565V858.162H107.6ZM107.6 874.642H108.6V873.918L107.913 873.692L107.6 874.642ZM70.16 875.922L70.8093 876.682L70.8185 876.674L70.16 875.922ZM69.52 904.882L68.8226 905.598L68.8229 905.599L69.52 904.882ZM101.36 903.922L102.076 904.62L102.085 904.611L101.36 903.922ZM108.6 846.802C108.6 846.398 108.693 846.282 108.703 846.271C108.707 846.266 108.718 846.254 108.757 846.239C108.802 846.223 108.89 846.202 109.04 846.202V844.202C108.377 844.202 107.705 844.391 107.217 844.933C106.747 845.455 106.6 846.139 106.6 846.802H108.6ZM109.04 846.202H124.4V844.202H109.04V846.202ZM124.4 846.202C124.779 846.202 124.88 846.296 124.893 846.309C124.906 846.322 125 846.422 125 846.802H127C127 846.114 126.827 845.415 126.307 844.895C125.787 844.374 125.087 844.202 124.4 844.202V846.202ZM125 846.802V885.202H127V846.802H125ZM125 885.202C125 895.919 122.428 904.712 117.353 911.651L118.967 912.832C124.345 905.478 127 896.244 127 885.202H125ZM117.313 912.774C122.454 920.957 125 929.255 125 937.682H127C127 928.829 124.319 920.167 119.007 911.71L117.313 912.774ZM125 937.682C125 938.061 124.906 938.162 124.893 938.175C124.88 938.188 124.779 938.282 124.4 938.282V940.282C125.087 940.282 125.787 940.109 126.307 939.589C126.827 939.068 127 938.369 127 937.682H125ZM124.4 938.282H109.04V940.282H124.4V938.282ZM109.04 938.282C108.89 938.282 108.802 938.261 108.757 938.244C108.718 938.229 108.707 938.217 108.703 938.213C108.693 938.201 108.6 938.085 108.6 937.682H106.6C106.6 938.345 106.747 939.029 107.217 939.551C107.705 940.093 108.377 940.282 109.04 940.282V938.282ZM108.6 937.682C108.6 932.441 107.671 927.613 105.8 923.211L103.96 923.993C105.715 928.123 106.6 932.682 106.6 937.682H108.6ZM104.464 922.692C98.3093 925.509 91.6257 926.922 84.4 926.922V928.922C91.8943 928.922 98.864 927.454 105.296 924.511L104.464 922.692ZM84.4 926.922C73.7581 926.922 65.0612 923.489 58.2271 916.655L56.8129 918.069C64.0588 925.315 73.2819 928.922 84.4 928.922V926.922ZM58.2218 916.649C51.283 909.814 47.8 901.119 47.8 890.482H45.8C45.8 901.604 49.4636 910.829 56.8182 918.074L58.2218 916.649ZM47.8 890.482C47.8 880.612 51.269 872.171 58.2323 865.103L56.8077 863.7C49.4777 871.139 45.8 880.084 45.8 890.482H47.8ZM58.2376 865.098C65.098 858.03 73.216 854.522 82.64 854.522V852.522C72.6507 852.522 64.022 856.267 56.8024 863.705L58.2376 865.098ZM82.64 854.522C90.1864 854.522 98.395 856.042 107.274 859.107L107.926 857.216C98.885 854.095 90.4536 852.522 82.64 852.522V854.522ZM108.6 858.162V846.802H106.6V858.162H108.6ZM108.6 886.002V874.642H106.6V886.002H108.6ZM107.913 873.692C99.1095 870.793 91.5313 869.322 85.2 869.322V871.322C91.2421 871.322 98.5972 872.73 107.287 875.591L107.913 873.692ZM85.2 869.322C79.202 869.322 73.9536 871.273 69.5015 875.169L70.8185 876.674C74.8997 873.103 79.678 871.322 85.2 871.322V869.322ZM69.5107 875.161C64.9242 879.076 62.6 883.99 62.6 889.842H64.6C64.6 884.6 66.6491 880.234 70.8093 876.682L69.5107 875.161ZM62.6 889.842C62.6 896.262 64.6578 901.546 68.8226 905.598L70.2174 904.165C66.4889 900.537 64.6 895.795 64.6 889.842H62.6ZM68.8229 905.599C72.8819 909.545 78.2152 911.482 84.72 911.482V909.482C78.6381 909.482 73.8381 907.685 70.2171 904.165L68.8229 905.599ZM84.72 911.482C91.7814 911.482 97.598 909.21 102.076 904.62L100.644 903.223C96.5887 907.38 91.3119 909.482 84.72 909.482V911.482ZM102.085 904.611C106.464 900.007 108.6 893.763 108.6 886.002H106.6C106.6 893.387 104.576 899.089 100.635 903.232L102.085 904.611ZM114.16 812.664L113.439 811.971L112.679 812.762L113.537 813.446L114.16 812.664ZM124.4 848.344L124.39 849.344H124.4V848.344ZM109.04 848.184L109.05 847.184H109.04V848.184ZM103.28 829.464L104.063 828.842L104.061 828.839L103.28 829.464ZM65.2 823.864L64.2095 824.002L64.3293 824.864H65.2V823.864ZM62.8 806.584V805.584H61.6515L61.8095 806.722L62.8 806.584ZM100.72 807.064L100.572 808.053L101.182 808.145L101.537 807.64L100.72 807.064ZM149.2 816.664L149.916 817.362L150.597 816.664L149.916 815.966L149.2 816.664ZM136.4 803.544L135.685 802.845L135.002 803.543L135.684 804.242L136.4 803.544ZM150.32 789.304L151.027 788.597L150.312 787.882L149.605 788.605L150.32 789.304ZM164.4 803.384L165.116 804.083L165.806 803.376L165.107 802.677L164.4 803.384ZM151.44 816.664L150.724 815.966L150.034 816.673L150.733 817.371L151.44 816.664ZM164.4 829.624L165.111 830.327L165.81 829.62L165.107 828.917L164.4 829.624ZM150.32 843.864L149.609 844.567L150.32 845.286L151.031 844.567L150.32 843.864ZM136.4 829.784L135.684 829.086L134.998 829.789L135.689 830.487L136.4 829.784ZM108.6 785.944C108.6 785.54 108.693 785.424 108.703 785.413C108.707 785.408 108.718 785.396 108.757 785.382C108.802 785.365 108.89 785.344 109.04 785.344V783.344C108.377 783.344 107.705 783.533 107.217 784.075C106.747 784.597 106.6 785.281 106.6 785.944H108.6ZM109.04 785.344H124.4V783.344H109.04V785.344ZM124.4 785.344C124.779 785.344 124.88 785.438 124.893 785.451C124.906 785.464 125 785.565 125 785.944H127C127 785.257 126.827 784.557 126.307 784.037C125.787 783.517 125.087 783.344 124.4 783.344V785.344ZM125 785.944C125 795.239 121.189 803.907 113.439 811.971L114.881 813.357C122.918 804.995 127 795.85 127 785.944H125ZM113.537 813.446C121.075 819.457 125 830.433 125 846.744H127C127 830.202 123.031 818.458 114.783 811.882L113.537 813.446ZM125 846.744C125 847.123 124.906 847.224 124.893 847.237C124.88 847.25 124.779 847.344 124.4 847.344V849.344C125.087 849.344 125.787 849.172 126.307 848.651C126.827 848.131 127 847.432 127 846.744H125ZM124.41 847.344L109.05 847.184L109.03 849.184L124.39 849.344L124.41 847.344ZM109.04 847.184C108.89 847.184 108.802 847.163 108.757 847.146C108.718 847.132 108.707 847.12 108.703 847.115C108.693 847.104 108.6 846.988 108.6 846.584H106.6C106.6 847.247 106.747 847.931 107.217 848.453C107.705 848.995 108.377 849.184 109.04 849.184V847.184ZM108.6 846.584C108.6 838.712 107.151 832.731 104.063 828.842L102.497 830.086C105.169 833.451 106.6 838.883 106.6 846.584H108.6ZM104.061 828.839C100.819 824.787 95.674 822.864 88.88 822.864V824.864C95.3127 824.864 99.7677 826.675 102.499 830.089L104.061 828.839ZM88.88 822.864H65.2V824.864H88.88V822.864ZM66.1905 823.727L63.7905 806.447L61.8095 806.722L64.2095 824.002L66.1905 823.727ZM62.8 807.584H94.32V805.584H62.8V807.584ZM94.32 807.584C96.4031 807.584 98.4869 807.74 100.572 808.053L100.868 806.075C98.6864 805.748 96.5035 805.584 94.32 805.584V807.584ZM101.537 807.64C106.236 800.974 108.6 793.735 108.6 785.944H106.6C106.6 793.3 104.377 800.141 99.9027 806.488L101.537 807.64ZM149.916 815.966L137.116 802.846L135.684 804.242L148.484 817.362L149.916 815.966ZM137.115 804.243L151.035 790.003L149.605 788.605L135.685 802.845L137.115 804.243ZM149.613 790.011L163.693 804.091L165.107 802.677L151.027 788.597L149.613 790.011ZM163.684 802.686L150.724 815.966L152.156 817.363L165.116 804.083L163.684 802.686ZM150.733 817.371L163.693 830.331L165.107 828.917L152.147 815.957L150.733 817.371ZM163.689 828.921L149.609 843.161L151.031 844.567L165.111 830.327L163.689 828.921ZM151.031 843.161L137.111 829.081L135.689 830.487L149.609 844.567L151.031 843.161ZM137.116 830.482L149.916 817.362L148.484 815.966L135.684 829.086L137.116 830.482ZM118.16 760.523L117.353 759.933L116.952 760.48L117.313 761.055L118.16 760.523ZM104.88 771.883L105.8 771.492L105.398 770.546L104.464 770.974L104.88 771.883ZM57.52 765.643L58.2271 764.936L58.2218 764.93L57.52 765.643ZM57.52 712.683L58.2323 713.385L58.2376 713.379L57.52 712.683ZM107.6 706.443L107.274 707.388L108.6 707.846V706.443H107.6ZM107.6 722.923H108.6V722.199L107.913 721.973L107.6 722.923ZM70.16 724.203L70.8093 724.964L70.8185 724.955L70.16 724.203ZM69.52 753.163L68.8226 753.88L68.8229 753.88L69.52 753.163ZM101.36 752.203L102.076 752.901L102.085 752.892L101.36 752.203ZM108.6 695.083C108.6 694.679 108.693 694.563 108.703 694.552C108.707 694.547 108.718 694.535 108.757 694.521C108.802 694.504 108.89 694.483 109.04 694.483V692.483C108.377 692.483 107.705 692.672 107.217 693.214C106.747 693.736 106.6 694.42 106.6 695.083H108.6ZM109.04 694.483H124.4V692.483H109.04V694.483ZM124.4 694.483C124.779 694.483 124.88 694.577 124.893 694.59C124.906 694.603 125 694.704 125 695.083H127C127 694.395 126.827 693.696 126.307 693.176C125.787 692.655 125.087 692.483 124.4 692.483V694.483ZM125 695.083V733.483H127V695.083H125ZM125 733.483C125 744.2 122.428 752.993 117.353 759.933L118.967 761.113C124.345 753.759 127 744.526 127 733.483H125ZM117.313 761.055C122.454 769.238 125 777.536 125 785.963H127C127 777.11 124.319 768.448 119.007 759.991L117.313 761.055ZM125 785.963C125 786.342 124.906 786.443 124.893 786.456C124.88 786.469 124.779 786.563 124.4 786.563V788.563C125.087 788.563 125.787 788.39 126.307 787.87C126.827 787.35 127 786.65 127 785.963H125ZM124.4 786.563H109.04V788.563H124.4V786.563ZM109.04 786.563C108.89 786.563 108.802 786.542 108.757 786.525C108.718 786.511 108.707 786.499 108.703 786.494C108.693 786.483 108.6 786.367 108.6 785.963H106.6C106.6 786.626 106.747 787.31 107.217 787.832C107.705 788.374 108.377 788.563 109.04 788.563V786.563ZM108.6 785.963C108.6 780.723 107.671 775.894 105.8 771.492L103.96 772.274C105.715 776.405 106.6 780.963 106.6 785.963H108.6ZM104.464 770.974C98.3093 773.79 91.6257 775.203 84.4 775.203V777.203C91.8943 777.203 98.864 775.736 105.296 772.792L104.464 770.974ZM84.4 775.203C73.7581 775.203 65.0612 771.77 58.2271 764.936L56.8129 766.35C64.0588 773.596 73.2819 777.203 84.4 777.203V775.203ZM58.2218 764.93C51.283 758.095 47.8 749.4 47.8 738.763H45.8C45.8 749.886 49.4636 759.11 56.8182 766.355L58.2218 764.93ZM47.8 738.763C47.8 728.894 51.269 720.452 58.2323 713.385L56.8077 711.981C49.4777 719.42 45.8 728.365 45.8 738.763H47.8ZM58.2376 713.379C65.098 706.311 73.216 702.803 82.64 702.803V700.803C72.6507 700.803 64.022 704.548 56.8024 711.986L58.2376 713.379ZM82.64 702.803C90.1864 702.803 98.395 704.323 107.274 707.388L107.926 705.498C98.885 702.376 90.4536 700.803 82.64 700.803V702.803ZM108.6 706.443V695.083H106.6V706.443H108.6ZM108.6 734.283V722.923H106.6V734.283H108.6ZM107.913 721.973C99.1095 719.074 91.5313 717.603 85.2 717.603V719.603C91.2421 719.603 98.5972 721.011 107.287 723.873L107.913 721.973ZM85.2 717.603C79.202 717.603 73.9536 719.555 69.5015 723.45L70.8185 724.955C74.8997 721.384 79.678 719.603 85.2 719.603V717.603ZM69.5107 723.442C64.9242 727.358 62.6 732.271 62.6 738.123H64.6C64.6 732.881 66.6491 728.515 70.8093 724.963L69.5107 723.442ZM62.6 738.123C62.6 744.543 64.6578 749.827 68.8226 753.88L70.2174 752.446C66.4889 748.818 64.6 744.076 64.6 738.123H62.6ZM68.8229 753.88C72.8819 757.826 78.2152 759.763 84.72 759.763V757.763C78.6381 757.763 73.8381 755.966 70.2171 752.446L68.8229 753.88ZM84.72 759.763C91.7814 759.763 97.598 757.491 102.076 752.901L100.644 751.505C96.5887 755.661 91.3119 757.763 84.72 757.763V759.763ZM102.085 752.892C106.464 748.289 108.6 742.044 108.6 734.283H106.6C106.6 741.668 104.576 747.371 100.635 751.514L102.085 752.892ZM109.2 624.305L108.908 623.349L107.804 623.686L108.295 624.731L109.2 624.305ZM122 659.665L122.972 659.432L122 659.665ZM91.92 622.705L92.8292 622.289L92.1463 620.798L91.1335 622.088L91.92 622.705ZM71.76 651.345L72.6357 651.828L72.6419 651.817L71.76 651.345ZM69.04 684.625L69.2516 685.603L70.2328 685.39L70.0165 684.41L69.04 684.625ZM53.52 687.985L52.5867 688.344L52.8942 689.144L53.7316 688.963L53.52 687.985ZM55.44 644.305L56.3097 644.799L56.3147 644.79L55.44 644.305ZM83.6 604.945L83.7717 603.96L83.1826 603.858L82.8134 604.328L83.6 604.945ZM101.04 607.985L101.918 607.507L101.687 607.083L101.212 607L101.04 607.985ZM103.76 613.265L102.85 613.679L103.511 615.135L104.53 613.903L103.76 613.265ZM108.6 593.585C108.6 593.182 108.693 593.066 108.703 593.054C108.707 593.05 108.718 593.038 108.757 593.023C108.802 593.006 108.89 592.985 109.04 592.985V590.985C108.377 590.985 107.705 591.174 107.217 591.716C106.747 592.238 106.6 592.922 106.6 593.585H108.6ZM109.04 592.985H124.4V590.985H109.04V592.985ZM124.4 592.985C124.779 592.985 124.88 593.079 124.893 593.093C124.906 593.105 125 593.206 125 593.585H127C127 592.898 126.827 592.199 126.307 591.678C125.787 591.158 125.087 590.985 124.4 590.985V592.985ZM125 593.585V599.345H127V593.585H125ZM125 599.345C125 605.822 123.629 610.997 120.97 614.947C118.32 618.885 114.327 621.697 108.908 623.349L109.492 625.262C115.273 623.5 119.68 620.445 122.63 616.064C125.571 611.694 127 606.095 127 599.345H125ZM108.295 624.731C114.139 637.162 118.38 648.884 121.028 659.899L122.972 659.432C120.287 648.26 115.995 636.409 110.105 623.88L108.295 624.731ZM121.028 659.899C123.674 670.91 125 682.564 125 694.865H127C127 682.42 125.659 670.608 122.972 659.432L121.028 659.899ZM125 694.865C125 695.32 124.895 695.475 124.86 695.513C124.842 695.533 124.753 695.625 124.4 695.625V697.625C125.113 697.625 125.825 697.425 126.34 696.858C126.839 696.309 127 695.584 127 694.865H125ZM124.4 695.625H109.04V697.625H124.4V695.625ZM109.04 695.625C108.773 695.625 108.735 695.554 108.734 695.552C108.701 695.512 108.6 695.341 108.6 694.865H106.6C106.6 695.563 106.739 696.272 107.186 696.819C107.665 697.404 108.347 697.625 109.04 697.625V695.625ZM108.6 694.865C108.6 669.443 103.343 645.247 92.8292 622.289L91.0108 623.122C101.404 645.817 106.6 669.728 106.6 694.865H108.6ZM91.1335 622.088C80.999 634.996 74.2299 644.603 70.8781 650.874L72.6419 651.817C75.9034 645.715 82.5744 636.228 92.7065 623.323L91.1335 622.088ZM70.8844 650.862C67.4095 657.161 65.64 663.246 65.64 669.105H67.64C67.64 663.658 69.2838 657.904 72.6356 651.828L70.8844 650.862ZM65.64 669.105C65.64 672.319 66.4635 677.588 68.0635 684.841L70.0165 684.41C68.4165 677.157 67.64 672.078 67.64 669.105H65.64ZM68.8284 683.648L53.3084 687.008L53.7316 688.963L69.2516 685.603L68.8284 683.648ZM54.4533 687.626C51.2769 679.368 49.72 672.403 49.72 666.705H47.72C47.72 672.741 49.3631 679.963 52.5867 688.344L54.4533 687.626ZM49.72 666.705C49.72 659.881 51.891 652.584 56.3097 644.799L54.5703 643.812C50.029 651.813 47.72 659.449 47.72 666.705H49.72ZM56.3147 644.79C60.6444 636.975 69.9839 623.913 84.3866 605.563L82.8134 604.328C68.4161 622.671 58.9822 635.849 54.5653 643.821L56.3147 644.79ZM83.4283 605.931L100.868 608.971L101.212 607L83.7717 603.96L83.4283 605.931ZM100.162 608.464C101.44 610.807 102.332 612.541 102.85 613.679L104.67 612.852C104.121 611.643 103.2 609.857 101.918 607.507L100.162 608.464ZM104.53 613.903C107.303 610.553 108.6 605.587 108.6 599.185H106.6C106.6 605.371 105.337 609.791 102.99 612.628L104.53 613.903ZM108.6 599.185V593.585H106.6V599.185H108.6ZM88.24 575.699L88.2379 576.699H88.24V575.699ZM11.6 575.539L10.6095 575.677L10.729 576.537L11.5979 576.539L11.6 575.539ZM9.2 558.259V557.259H8.05151L8.2095 558.397L9.2 558.259ZM125 593.619C125 593.998 124.906 594.099 124.893 594.112C124.88 594.125 124.779 594.219 124.4 594.219V596.219C125.087 596.219 125.787 596.047 126.307 595.526C126.827 595.006 127 594.307 127 593.619H125ZM124.4 594.219H109.04V596.219H124.4V594.219ZM109.04 594.219C108.773 594.219 108.735 594.147 108.734 594.146C108.701 594.106 108.6 593.935 108.6 593.459H106.6C106.6 594.157 106.739 594.865 107.186 595.412C107.665 595.998 108.347 596.219 109.04 596.219V594.219ZM108.6 593.459C108.6 587.362 106.934 582.611 103.436 579.402C99.954 576.208 94.8271 574.699 88.24 574.699V576.699C94.5595 576.699 99.1127 578.15 102.084 580.876C105.039 583.587 106.6 587.717 106.6 593.459H108.6ZM88.2421 574.699L11.6021 574.539L11.5979 576.539L88.2379 576.699L88.2421 574.699ZM12.5905 575.402L10.1905 558.122L8.2095 558.397L10.6095 575.677L12.5905 575.402ZM9.2 559.259H93.36V557.259H9.2V559.259ZM93.36 559.259C104.064 559.259 111.915 562.155 117.105 567.777C122.31 573.415 125 581.968 125 593.619H127C127 581.697 124.25 572.569 118.575 566.421C112.885 560.257 104.416 557.259 93.36 557.259V559.259ZM126 532.382V533.382H127V532.382H126ZM11.6 532.382L10.6093 532.518L10.7282 533.382H11.6V532.382ZM9.2 514.942V513.942H8.05296L8.20934 515.078L9.2 514.942ZM126 514.942H127L127 513.942H126L126 514.942ZM126 531.382H11.6V533.382H126V531.382ZM12.5907 532.245L10.1907 514.805L8.20934 515.078L10.6093 532.518L12.5907 532.245ZM9.2 515.942H126L126 513.942H9.2V515.942ZM125 514.942V532.382H127V514.942H125ZM21.68 422.77L20.9643 422.072L20.2744 422.779L20.9729 423.478L21.68 422.77ZM34.64 435.73L35.3511 436.433L36.0502 435.726L35.3471 435.023L34.64 435.73ZM20.56 449.97L19.8489 450.673L20.5599 451.393L21.2711 450.673L20.56 449.97ZM6.63999 435.89L5.92421 435.192L5.23838 435.895L5.92886 436.593L6.63999 435.89ZM19.44 422.77L20.1558 423.469L20.8371 422.77L20.1558 422.072L19.44 422.77ZM6.63999 409.65L5.9249 408.951L5.24225 409.65L5.92421 410.349L6.63999 409.65ZM20.56 395.41L21.2671 394.703L20.5519 393.988L19.8449 394.711L20.56 395.41ZM34.64 409.49L35.3557 410.189L36.0456 409.482L35.3471 408.783L34.64 409.49ZM119.44 394.77L118.701 394.097L118.233 394.611L118.551 395.229L119.44 394.77ZM116.24 449.97L115.554 449.243L116.24 449.97ZM59.76 449.97L59.0938 450.716L59.0944 450.717L59.76 449.97ZM51.6 403.41L52.5381 403.757L53.0352 402.41H51.6V403.41ZM42.16 403.41L41.1695 403.548L41.2893 404.41H42.16V403.41ZM39.76 386.13L39.757 385.13L38.612 385.134L38.7695 386.268L39.76 386.13ZM92.4 385.97V384.97H92.397L92.4 385.97ZM104.08 382.77L104.753 383.51L104.08 382.77ZM110 423.09L111 423.108L111 423.106L110 423.09ZM105.36 402.29L106.265 401.866L105.933 401.156L105.164 401.31L105.36 402.29ZM69.2 403.25V402.25H68.4914L68.2565 402.919L69.2 403.25ZM71.76 438.13L71.0795 438.863L71.0802 438.864L71.76 438.13ZM103.6 438.29L104.288 439.016L103.6 438.29ZM20.9729 423.478L33.9329 436.438L35.3471 435.023L22.3871 422.063L20.9729 423.478ZM33.9289 435.027L19.8489 449.267L21.2711 450.673L35.3511 436.433L33.9289 435.027ZM21.2711 449.267L7.35113 435.187L5.92886 436.593L19.8489 450.673L21.2711 449.267ZM7.35577 436.589L20.1558 423.469L18.7242 422.072L5.92421 435.192L7.35577 436.589ZM20.1558 422.072L7.35577 408.952L5.92421 410.349L18.7242 423.469L20.1558 422.072ZM7.35509 410.349L21.2751 396.109L19.8449 394.711L5.9249 408.951L7.35509 410.349ZM19.8529 396.118L33.9329 410.198L35.3471 408.783L21.2671 394.703L19.8529 396.118ZM33.9243 408.792L20.9643 422.072L22.3957 423.469L35.3557 410.189L33.9243 408.792ZM108.6 372.53C108.6 372.127 108.693 372.011 108.703 371.999C108.707 371.995 108.718 371.983 108.757 371.968C108.802 371.952 108.89 371.93 109.04 371.93V369.93C108.377 369.93 107.705 370.119 107.217 370.661C106.747 371.183 106.6 371.867 106.6 372.53H108.6ZM109.04 371.93H124.4V369.93H109.04V371.93ZM124.4 371.93C124.779 371.93 124.88 372.025 124.893 372.037C124.906 372.051 125 372.151 125 372.53H127C127 371.843 126.827 371.144 126.307 370.623C125.787 370.103 125.087 369.93 124.4 369.93V371.93ZM125 372.53C125 382.438 122.835 389.559 118.701 394.097L120.179 395.444C124.791 390.382 127 382.676 127 372.53H125ZM118.551 395.229C123.837 405.483 126.44 414.764 126.44 423.09H128.44C128.44 414.35 125.71 404.752 120.329 394.312L118.551 395.229ZM126.44 423.09C126.44 433.714 122.807 442.404 115.554 449.243L116.926 450.698C124.606 443.457 128.44 434.227 128.44 423.09H126.44ZM115.554 449.243C108.289 456.093 99.2609 459.53 88.4 459.53V461.53C99.7258 461.53 109.258 457.928 116.926 450.698L115.554 449.243ZM88.4 459.53C77.4297 459.53 68.1243 456.09 60.4256 449.224L59.0944 450.717C67.1824 457.93 76.9703 461.53 88.4 461.53V459.53ZM60.4262 449.225C52.6396 442.269 48.76 433.58 48.76 423.09H46.76C46.76 434.147 50.8804 443.379 59.0938 450.716L60.4262 449.225ZM48.76 423.09C48.76 417.042 50.0113 410.6 52.5381 403.757L50.6619 403.064C48.0687 410.087 46.76 416.765 46.76 423.09H48.76ZM51.6 402.41H42.16V404.41H51.6V402.41ZM43.1505 403.273L40.7505 385.993L38.7695 386.268L41.1695 403.548L43.1505 403.273ZM39.763 387.13L92.403 386.97L92.397 384.97L39.757 385.13L39.763 387.13ZM92.4 386.97C97.9249 386.97 102.129 385.896 104.753 383.51L103.407 382.03C101.338 383.912 97.7551 384.97 92.4 384.97V386.97ZM104.753 383.51C107.391 381.112 108.6 377.369 108.6 372.53H106.6C106.6 377.078 105.462 380.162 103.407 382.03L104.753 383.51ZM111 423.106C111.109 415.903 109.525 408.82 106.265 401.866L104.455 402.715C107.595 409.414 109.104 416.198 109 423.075L111 423.106ZM105.164 401.31C102.043 401.934 98.4311 402.25 94.32 402.25V404.25C98.5289 404.25 102.277 403.927 105.556 403.271L105.164 401.31ZM94.32 402.25H69.2V404.25H94.32V402.25ZM68.2565 402.919C65.4693 410.852 64.04 417.323 64.04 422.29H66.04C66.04 417.657 67.3841 411.436 70.1435 403.582L68.2565 402.919ZM64.04 422.29C64.04 428.954 66.3853 434.504 71.0795 438.863L72.4404 437.398C68.1747 433.437 66.04 428.427 66.04 422.29H64.04ZM71.0802 438.864C75.656 443.105 81.3463 445.21 88.08 445.21V443.21C81.8004 443.21 76.6106 441.263 72.4398 437.397L71.0802 438.864ZM88.08 445.21C94.5006 445.21 99.927 443.153 104.288 439.016L102.912 437.565C98.953 441.321 94.0327 443.21 88.08 443.21V445.21ZM104.288 439.016C108.659 434.869 110.889 429.539 111 423.108L109 423.073C108.898 429.015 106.861 433.818 102.912 437.565L104.288 439.016ZM22.16 330.125L21.4443 329.427L20.7543 330.134L21.4529 330.833L22.16 330.125ZM35.12 343.085L35.8311 343.788L36.5302 343.081L35.8271 342.378L35.12 343.085ZM21.04 357.325L20.3289 358.028L21.04 358.748L21.7511 358.028L21.04 357.325ZM7.12 343.245L6.40421 342.547L5.71839 343.25L6.40886 343.948L7.12 343.245ZM19.92 330.125L20.6358 330.824L21.3171 330.125L20.6358 329.427L19.92 330.125ZM7.12 317.005L6.4049 316.306L5.72225 317.005L6.40421 317.704L7.12 317.005ZM21.04 302.765L21.7471 302.058L21.0319 301.343L20.3249 302.066L21.04 302.765ZM35.12 316.845L35.8357 317.544L36.5256 316.837L35.8271 316.138L35.12 316.845ZM57.52 302.125L58.2218 302.838L58.2271 302.833L58.2324 302.827L57.52 302.125ZM114.8 303.565L114.064 304.243L114.069 304.248L114.8 303.565ZM107.6 360.845H108.6V359.297L107.189 359.934L107.6 360.845ZM57.52 356.205L58.2271 355.498L58.2218 355.493L57.52 356.205ZM101.52 316.045L102.284 315.4L102.276 315.391L101.52 316.045ZM69.68 314.765L70.3773 315.482L70.3872 315.473L70.3967 315.463L69.68 314.765ZM70 343.885L69.3021 344.602L69.3117 344.611L70 343.885ZM107.6 343.085L108.094 343.955L108.6 343.668V343.085H107.6ZM21.4529 330.833L34.4129 343.792L35.8271 342.378L22.8671 329.418L21.4529 330.833ZM34.4089 342.382L20.3289 356.622L21.7511 358.028L35.8311 343.788L34.4089 342.382ZM21.7511 356.622L7.83113 342.542L6.40886 343.948L20.3289 358.028L21.7511 356.622ZM7.83578 343.944L20.6358 330.824L19.2042 329.427L6.40421 342.547L7.83578 343.944ZM20.6358 329.427L7.83578 316.307L6.40421 317.704L19.2042 330.824L20.6358 329.427ZM7.83509 317.704L21.7551 303.464L20.3249 302.066L6.4049 316.306L7.83509 317.704ZM20.3329 303.473L34.4129 317.552L35.8271 316.138L21.7471 302.058L20.3329 303.473ZM34.4043 316.147L21.4443 329.427L22.8757 330.824L35.8357 317.544L34.4043 316.147ZM47.8 328.685C47.8 318.268 51.2789 309.677 58.2218 302.838L56.8182 301.413C49.4677 308.654 45.8 317.77 45.8 328.685H47.8ZM58.2324 302.827C65.0716 295.884 73.6623 292.405 84.08 292.405V290.405C73.1644 290.405 64.0484 294.073 56.8076 301.424L58.2324 302.827ZM84.08 292.405C96.8689 292.405 106.821 296.379 114.064 304.243L115.536 302.888C107.845 294.538 97.3177 290.405 84.08 290.405V292.405ZM114.069 304.248C121.319 312.015 125 322.733 125 336.525H127C127 322.372 123.215 311.115 115.531 302.883L114.069 304.248ZM125 336.525V372.525H127V336.525H125ZM125 372.525C125 372.905 124.906 373.005 124.893 373.018C124.88 373.031 124.779 373.125 124.4 373.125V375.125C125.087 375.125 125.787 374.953 126.307 374.432C126.827 373.912 127 373.213 127 372.525H125ZM124.4 373.125H109.04V375.125H124.4V373.125ZM109.04 373.125C108.89 373.125 108.802 373.104 108.757 373.088C108.718 373.073 108.707 373.061 108.703 373.056C108.693 373.045 108.6 372.929 108.6 372.525H106.6C106.6 373.188 106.747 373.872 107.217 374.394C107.705 374.936 108.377 375.125 109.04 375.125V373.125ZM108.6 372.525V360.845H106.6V372.525H108.6ZM107.189 359.934C98.5019 363.854 91.2912 365.765 85.52 365.765V367.765C91.6954 367.765 99.2047 365.731 108.011 361.757L107.189 359.934ZM85.52 365.765C74.1105 365.765 65.0481 362.319 58.2271 355.498L56.8129 356.912C64.0719 364.172 73.6761 367.765 85.52 367.765V365.765ZM58.2218 355.493C51.2909 348.666 47.8 339.761 47.8 328.685H45.8C45.8 340.223 49.4558 349.665 56.8182 356.918L58.2218 355.493ZM108.6 335.725C108.6 327.247 106.533 320.432 102.284 315.4L100.756 316.691C104.613 321.259 106.6 327.564 106.6 335.725H108.6ZM102.276 315.391C97.8977 310.339 91.8976 307.845 84.4 307.845V309.845C91.4091 309.845 96.8223 312.152 100.764 316.7L102.276 315.391ZM84.4 307.845C78.1821 307.845 73.0085 309.91 68.9633 314.068L70.3967 315.463C74.0315 311.727 78.6713 309.845 84.4 309.845V307.845ZM68.9826 314.049C64.8288 318.09 62.76 323.208 62.76 329.325H64.76C64.76 323.709 66.6378 319.121 70.3773 315.482L68.9826 314.049ZM62.76 329.325C62.76 335.257 64.9549 340.366 69.3021 344.602L70.6979 343.169C66.7251 339.298 64.76 334.701 64.76 329.325H62.76ZM69.3117 344.611C73.6585 348.735 78.8652 350.805 84.88 350.805V348.805C79.3748 348.805 74.6615 346.929 70.6883 343.16L69.3117 344.611ZM84.88 350.805C92.3447 350.805 100.087 348.499 108.094 343.955L107.106 342.216C99.3262 346.631 91.9219 348.805 84.88 348.805V350.805ZM108.6 343.085V335.725H106.6V343.085H108.6ZM109.04 173.505V174.505L109.05 174.505L109.04 173.505ZM124.4 173.345V172.345L124.39 172.345L124.4 173.345ZM117.52 201.825L116.794 201.138L116.321 201.637L116.618 202.257L117.52 201.825ZM123.6 221.185L124.581 220.989L124.578 220.977L123.6 221.185ZM126 279.585L126.163 280.572L127 280.434V279.585H126ZM107.6 282.625H106.6V283.804L107.763 283.612L107.6 282.625ZM107.6 248.225H108.6V247.004L107.403 247.245L107.6 248.225ZM34.48 262.945L33.5104 263.19L33.7435 264.114L34.6774 263.926L34.48 262.945ZM30.16 245.825L29.984 244.841L28.9279 245.03L29.1904 246.07L30.16 245.825ZM107.12 232.065L107.296 233.05L108.196 232.889L108.116 231.978L107.12 232.065ZM103.44 209.185L104.409 208.939L104.174 208.012L103.237 208.206L103.44 209.185ZM93.36 210.145V209.145H93.358L93.36 210.145ZM11.6 210.305L10.6093 210.442L10.7284 211.307L11.602 211.305L11.6 210.305ZM9.2 192.865V191.865H8.05296L8.20934 193.002L9.2 192.865ZM109.05 174.505L124.41 174.345L124.39 172.345L109.03 172.505L109.05 174.505ZM124.4 174.345C124.779 174.345 124.88 174.439 124.893 174.453C124.906 174.465 125 174.566 125 174.945H127C127 174.258 126.827 173.559 126.307 173.038C125.787 172.518 125.087 172.345 124.4 172.345V174.345ZM125 174.945C125 186.751 122.206 195.42 116.794 201.138L118.246 202.513C124.141 196.284 127 187.033 127 174.945H125ZM116.618 202.257C118.918 207.067 120.924 213.437 122.622 221.394L124.578 220.977C122.862 212.934 120.815 206.398 118.422 201.394L116.618 202.257ZM122.619 221.381C124.211 229.34 125 236.204 125 241.985H127C127 236.033 126.189 229.031 124.581 220.989L122.619 221.381ZM125 241.985V279.585H127V241.985H125ZM125.837 278.599L107.437 281.639L107.763 283.612L126.163 280.572L125.837 278.599ZM108.6 282.625V248.225H106.6V282.625H108.6ZM107.403 247.245L34.2826 261.965L34.6774 263.926L107.797 249.206L107.403 247.245ZM35.4496 262.701L31.1296 245.581L29.1904 246.07L33.5104 263.19L35.4496 262.701ZM30.336 246.81L107.296 233.05L106.944 231.081L29.984 244.841L30.336 246.81ZM108.116 231.978C107.366 223.403 106.132 215.722 104.409 208.939L102.471 209.432C104.162 216.089 105.381 223.661 106.124 232.153L108.116 231.978ZM103.237 208.206C100.22 208.83 96.9284 209.145 93.36 209.145V211.145C97.045 211.145 100.474 210.82 103.643 210.165L103.237 208.206ZM93.358 209.145L11.598 209.305L11.602 211.305L93.362 211.145L93.358 209.145ZM12.5907 210.169L10.1907 192.729L8.20934 193.002L10.6093 210.442L12.5907 210.169ZM9.2 193.865H88.24V191.865H9.2V193.865ZM88.24 193.865C94.8271 193.865 99.954 192.357 103.436 189.162C106.934 185.953 108.6 181.203 108.6 175.105H106.6C106.6 180.848 105.039 184.978 102.084 187.688C99.1127 190.414 94.5595 191.865 88.24 191.865V193.865ZM108.6 175.105C108.6 174.702 108.693 174.586 108.703 174.574C108.707 174.57 108.718 174.558 108.757 174.543C108.802 174.526 108.89 174.505 109.04 174.505V172.505C108.377 172.505 107.705 172.694 107.217 173.236C106.747 173.758 106.6 174.442 106.6 175.105H108.6ZM117.2 122.709L116.307 122.259L116.091 122.688L116.291 123.125L117.2 122.709ZM124.24 145.589L125.229 145.438L125.227 145.427L124.24 145.589ZM126 174.869L126.995 174.969L127 174.919V174.869H126ZM105.52 146.389L106.509 146.243L106.249 144.482L104.881 145.62L105.52 146.389ZM68.88 170.549L68.4907 171.47L68.9255 171.654L69.3437 171.435L68.88 170.549ZM53.36 163.989L52.4669 164.439L52.6322 164.767L52.9707 164.91L53.36 163.989ZM50.64 96.9491L51.4243 97.5696L50.64 96.9491ZM89.84 90.7091L90.2937 89.818L90.2872 89.8147L89.84 90.7091ZM105.84 104.469L105.05 105.082L106.46 106.899L106.827 104.629L105.84 104.469ZM59.44 126.549L60.4399 126.564L60.44 126.556V126.549H59.44ZM65.68 152.149L64.7645 152.552L65.1936 153.528L66.1401 153.037L65.68 152.149ZM102.96 126.869L103.632 127.61L104.176 127.117L103.868 126.45L102.96 126.869ZM91.28 110.229L91.9518 109.488L91.28 110.229ZM64.72 110.069L65.475 110.725L65.48 110.719L65.4849 110.713L64.72 110.069ZM108.6 79.3491C108.6 78.9454 108.693 78.8295 108.703 78.8181C108.707 78.8135 108.718 78.8014 108.757 78.7869C108.802 78.7703 108.89 78.7491 109.04 78.7491V76.7491C108.377 76.7491 107.705 76.9381 107.217 77.4802C106.747 78.0022 106.6 78.6862 106.6 79.3491H108.6ZM109.04 78.7491H124.4V76.7491H109.04V78.7491ZM124.4 78.7491C124.779 78.7491 124.88 78.8433 124.893 78.8562C124.906 78.8693 125 78.97 125 79.3491H127C127 78.6616 126.827 77.9624 126.307 77.442C125.787 76.9216 125.087 76.7491 124.4 76.7491V78.7491ZM125 79.3491C125 96.5217 122.084 110.81 116.307 122.259L118.093 123.16C124.049 111.355 127 96.7366 127 79.3491H125ZM116.291 123.125C119.668 130.514 121.988 138.056 123.253 145.751L125.227 145.427C123.932 137.549 121.558 129.838 118.109 122.293L116.291 123.125ZM123.251 145.74C124.414 153.352 125 163.056 125 174.869H127C127 163.002 126.412 153.187 125.229 145.438L123.251 145.74ZM125.005 174.77C124.965 175.168 124.86 175.315 124.813 175.362C124.781 175.394 124.691 175.469 124.4 175.469V177.469C125.069 177.469 125.725 177.278 126.227 176.776C126.714 176.29 126.928 175.637 126.995 174.969L125.005 174.77ZM124.4 175.469H109.04V177.469H124.4V175.469ZM109.04 175.469C108.89 175.469 108.802 175.448 108.757 175.431C108.718 175.417 108.707 175.405 108.703 175.4C108.693 175.389 108.6 175.273 108.6 174.869H106.6C106.6 175.532 106.747 176.216 107.217 176.738C107.705 177.28 108.377 177.469 109.04 177.469V175.469ZM108.6 174.869C108.6 165.221 107.903 155.679 106.509 146.243L104.531 146.535C105.91 155.873 106.6 165.318 106.6 174.869H108.6ZM104.881 145.62C94.1666 154.531 82.0132 162.546 68.4162 169.663L69.3437 171.435C83.0535 164.259 95.3268 156.167 106.159 147.158L104.881 145.62ZM69.2693 169.628L53.7493 163.068L52.9707 164.91L68.4907 171.47L69.2693 169.628ZM54.2531 163.539C46.8302 148.8 43.16 135.623 43.16 123.989H41.16C41.16 136.035 44.9565 149.525 52.4669 164.439L54.2531 163.539ZM43.16 123.989C43.16 113.289 45.9364 104.507 51.4243 97.5696L49.8557 96.3287C44.0369 103.685 41.16 112.929 41.16 123.989H43.16ZM51.4243 97.5696C56.8944 90.6544 63.8626 87.2291 72.4 87.2291V85.2291C63.2307 85.2291 55.6923 88.9504 49.8557 96.3287L51.4243 97.5696ZM72.4 87.2291C77.8723 87.2291 83.5333 88.6738 89.3928 91.6035L90.2872 89.8147C84.2001 86.7711 78.2343 85.2291 72.4 85.2291V87.2291ZM89.3863 91.6003C95.0992 94.5087 100.323 98.99 105.05 105.082L106.63 103.856C101.757 97.575 96.3141 92.8829 90.2937 89.818L89.3863 91.6003ZM106.827 104.629C108.011 97.3101 108.6 88.8813 108.6 79.3491H106.6C106.6 88.8036 106.016 97.1216 104.853 104.309L106.827 104.629ZM58.4401 126.535C58.3307 134.087 60.4637 142.767 64.7645 152.552L66.5955 151.747C62.363 142.118 60.336 133.731 60.4399 126.564L58.4401 126.535ZM66.1401 153.037C80.8159 145.431 93.3169 136.958 103.632 127.61L102.288 126.128C92.1231 135.341 79.7708 143.72 65.2199 151.261L66.1401 153.037ZM103.868 126.45C100.624 119.422 96.6583 113.757 91.9518 109.488L90.6082 110.97C95.075 115.021 98.8956 120.449 102.052 127.288L103.868 126.45ZM91.9518 109.488C87.269 105.241 82.6657 102.989 78.16 102.989V104.989C81.9742 104.989 86.1177 106.897 90.6082 110.97L91.9518 109.488ZM78.16 102.989C72.3342 102.989 67.5684 105.134 63.9551 109.425L65.4849 110.713C68.6983 106.897 72.8925 104.989 78.16 104.989V102.989ZM63.965 109.413C60.2455 113.697 58.44 119.447 58.44 126.549H60.44C60.44 119.785 62.1545 114.548 65.475 110.725L63.965 109.413ZM88.24 61.0116L88.2379 62.0116H88.24V61.0116ZM11.6 60.8517L10.6095 60.9893L10.729 61.8499L11.5979 61.8517L11.6 60.8517ZM9.2 43.5717V42.5717H8.05151L8.2095 43.7092L9.2 43.5717ZM125 78.9316C125 79.3108 124.906 79.4115 124.893 79.4246C124.88 79.4375 124.779 79.5316 124.4 79.5316V81.5316C125.087 81.5316 125.787 81.3591 126.307 80.8387C126.827 80.3184 127 79.6191 127 78.9316H125ZM124.4 79.5316H109.04V81.5316H124.4V79.5316ZM109.04 79.5316C108.773 79.5316 108.735 79.4598 108.734 79.4584C108.701 79.4186 108.6 79.2474 108.6 78.7716H106.6C106.6 79.4691 106.739 80.178 107.186 80.7249C107.665 81.3102 108.347 81.5316 109.04 81.5316V79.5316ZM108.6 78.7716C108.6 72.6742 106.934 67.924 103.436 64.7147C99.954 61.5205 94.8271 60.0116 88.24 60.0116V62.0116C94.5595 62.0116 99.1127 63.4628 102.084 66.1886C105.039 68.8993 106.6 73.0291 106.6 78.7716H108.6ZM88.2421 60.0116L11.6021 59.8517L11.5979 61.8517L88.2379 62.0116L88.2421 60.0116ZM12.5905 60.7141L10.1905 43.4341L8.2095 43.7092L10.6095 60.9893L12.5905 60.7141ZM9.2 44.5717H93.36V42.5717H9.2V44.5717ZM93.36 44.5717C104.064 44.5717 111.915 47.467 117.105 53.09C122.31 58.7279 125 67.2802 125 78.9316H127C127 67.0098 124.25 57.882 118.575 51.7334C112.885 45.5696 104.416 42.5717 93.36 42.5717V44.5717ZM126 17.6941V18.6941H127V17.6941H126ZM11.6 17.6941L10.6093 17.8304L10.7282 18.6941H11.6V17.6941ZM9.2 0.25415V-0.74585H8.05296L8.20934 0.390503L9.2 0.25415ZM126 0.25415H127V-0.74585H126V0.25415ZM126 16.6941H11.6V18.6941H126V16.6941ZM12.5907 17.5579L10.1907 0.117798L8.20934 0.390503L10.6093 17.8304L12.5907 17.5579ZM9.2 1.25415H126V-0.74585H9.2V1.25415ZM125 0.25415V17.6941H127V0.25415H125Z" fill="#4440FF" mask="url(#path-1-outside-1_2_2700)"/>
</g>
</svg>
