<svg width="89" height="89" viewBox="0 0 89 89" fill="none" xmlns="http://www.w3.org/2000/svg">
<g filter="url(#filter0_d_324_158)">
<rect x="5.5" y="5.5" width="72" height="72" rx="16" fill="white" shape-rendering="crispEdges"/>
<path d="M50.0117 45.6914C50.0117 47.5143 49.6146 49.1029 48.8203 50.457C48.0391 51.8112 46.9844 52.8659 45.6562 53.6211C44.3281 54.3633 42.8503 54.7344 41.2227 54.7344C39.6081 54.7344 38.1432 54.3698 36.8281 53.6406C35.526 52.9115 34.4909 51.7331 33.7227 50.1055C32.9544 48.4648 32.5703 46.2904 32.5703 43.582C32.5703 40.7044 33.1367 38.1849 34.2695 36.0234C35.4023 33.849 37.043 32.1562 39.1914 30.9453C41.3529 29.7214 43.957 29.1094 47.0039 29.1094V31.4141H45.5195C44.0872 31.4141 42.7461 31.7721 41.4961 32.4883C40.2461 33.1914 39.1914 34.2005 38.332 35.5156C37.4727 36.8307 36.9193 38.3997 36.6719 40.2227C38.5859 38.8294 40.526 38.1328 42.4922 38.1328C44.0156 38.1328 45.3372 38.4648 46.457 39.1289C47.5898 39.793 48.4622 40.6979 49.0742 41.8438C49.6992 42.9766 50.0117 44.2591 50.0117 45.6914ZM46.125 46.1602C46.125 44.3893 45.7083 43.0156 44.875 42.0391C44.0417 41.0625 42.8242 40.5742 41.2227 40.5742C40.4544 40.5742 39.6602 40.7435 38.8398 41.082C38.0195 41.4076 37.2578 41.8438 36.5547 42.3906C36.5286 42.7682 36.5091 43.1133 36.4961 43.4258C36.4961 43.7383 36.4961 44.0312 36.4961 44.3047C36.4961 46.7656 36.8737 48.7708 37.6289 50.3203C38.3971 51.8698 39.5951 52.6445 41.2227 52.6445C42.3815 52.6445 43.319 52.3581 44.0352 51.7852C44.7643 51.1992 45.2917 50.418 45.6172 49.4414C45.9557 48.4518 46.125 47.3581 46.125 46.1602Z" fill="#4440FF"/>
</g>
<defs>
<filter id="filter0_d_324_158" x="0.727274" y="0.727274" width="87.9091" height="87.9091" filterUnits="userSpaceOnUse" color-interpolation-filters="sRGB">
<feFlood flood-opacity="0" result="BackgroundImageFix"/>
<feColorMatrix in="SourceAlpha" type="matrix" values="0 0 0 0 0 0 0 0 0 0 0 0 0 0 0 0 0 0 127 0" result="hardAlpha"/>
<feOffset dx="3.18182" dy="3.18182"/>
<feGaussianBlur stdDeviation="3.97727"/>
<feComposite in2="hardAlpha" operator="out"/>
<feColorMatrix type="matrix" values="0 0 0 0 0.458333 0 0 0 0 0.437326 0 0 0 0 0.437326 0 0 0 0.06 0"/>
<feBlend mode="normal" in2="BackgroundImageFix" result="effect1_dropShadow_324_158"/>
<feBlend mode="normal" in="SourceGraphic" in2="effect1_dropShadow_324_158" result="shape"/>
</filter>
</defs>
</svg>
