<svg width="89" height="89" viewBox="0 0 89 89" fill="none" xmlns="http://www.w3.org/2000/svg">
<g filter="url(#filter0_d_2_2578)">
<rect x="5" y="5" width="72" height="72" rx="16" fill="white" shape-rendering="crispEdges"/>
<path d="M48.8867 47.5977C48.8867 48.4961 48.7109 49.388 48.3594 50.2734C48.0208 51.1589 47.487 51.9531 46.7578 52.6562C46.0417 53.3464 45.1172 53.9128 43.9844 54.3555C42.8516 54.7852 41.4974 55 39.9219 55C38.3464 55 37.0443 54.7852 36.0156 54.3555C34.987 53.9128 34.1667 53.3594 33.5547 52.6953C32.9557 52.0182 32.5326 51.2695 32.2852 50.4492C32.0378 49.6289 31.9141 48.8281 31.9141 48.0469H36.1914C36.2174 48.5938 36.3216 49.1016 36.5039 49.5703C36.6992 50.0391 36.9661 50.4492 37.3047 50.8008C37.6432 51.1523 38.0469 51.4258 38.5156 51.6211C38.9974 51.8164 39.5312 51.9141 40.1172 51.9141C40.7031 51.9141 41.263 51.8164 41.7969 51.6211C42.3438 51.4128 42.8255 51.1263 43.2422 50.7617C43.6589 50.3841 43.9909 49.9349 44.2383 49.4141C44.4857 48.8802 44.6094 48.2878 44.6094 47.6367C44.6094 47.3763 44.5508 47.0052 44.4336 46.5234C44.3164 46.0286 44.0951 45.5404 43.7695 45.0586C43.457 44.5638 43.0208 44.1406 42.4609 43.7891C41.9141 43.4245 41.2109 43.2422 40.3516 43.2422H38.1641V40.5273C39.5703 40.5273 40.6706 40.3971 41.4648 40.1367C42.2591 39.8633 42.8581 39.5182 43.2617 39.1016C43.6654 38.6849 43.9128 38.2292 44.0039 37.7344C44.1081 37.2266 44.1602 36.7448 44.1602 36.2891C44.1602 35.8203 44.1016 35.3581 43.9844 34.9023C43.8672 34.4466 43.6719 34.0365 43.3984 33.6719C43.138 33.3073 42.7865 33.0143 42.3438 32.793C41.901 32.5586 41.3477 32.4414 40.6836 32.4414C39.3815 32.4414 38.4049 32.7409 37.7539 33.3398C37.1159 33.9258 36.7578 34.8242 36.6797 36.0352H32.4023C32.4544 34.9674 32.6953 34.0365 33.125 33.2422C33.5677 32.4349 34.1471 31.7643 34.8633 31.2305C35.5924 30.6836 36.4323 30.2799 37.3828 30.0195C38.3464 29.7461 39.3815 29.6094 40.4883 29.6094C41.582 29.6094 42.6107 29.7526 43.5742 30.0391C44.5508 30.3125 45.3971 30.7292 46.1133 31.2891C46.8294 31.849 47.3958 32.5456 47.8125 33.3789C48.2292 34.2122 48.4375 35.1823 48.4375 36.2891C48.4375 37.1875 48.3008 37.9427 48.0273 38.5547C47.7669 39.1536 47.4219 39.6549 46.9922 40.0586C46.5755 40.4622 46.1003 40.7943 45.5664 41.0547C45.0326 41.3021 44.4987 41.5234 43.9648 41.7188C44.4857 41.862 45.0326 42.0833 45.6055 42.3828C46.1914 42.6693 46.7253 43.0534 47.207 43.5352C47.7018 44.0039 48.1055 44.5768 48.418 45.2539C48.7305 45.918 48.8867 46.6992 48.8867 47.5977Z" fill="#4440FF"/>
</g>
<defs>
<filter id="filter0_d_2_2578" x="0.227274" y="0.227274" width="87.9091" height="87.9091" filterUnits="userSpaceOnUse" color-interpolation-filters="sRGB">
<feFlood flood-opacity="0" result="BackgroundImageFix"/>
<feColorMatrix in="SourceAlpha" type="matrix" values="0 0 0 0 0 0 0 0 0 0 0 0 0 0 0 0 0 0 127 0" result="hardAlpha"/>
<feOffset dx="3.18182" dy="3.18182"/>
<feGaussianBlur stdDeviation="3.97727"/>
<feComposite in2="hardAlpha" operator="out"/>
<feColorMatrix type="matrix" values="0 0 0 0 0.458333 0 0 0 0 0.437326 0 0 0 0 0.437326 0 0 0 0.06 0"/>
<feBlend mode="normal" in2="BackgroundImageFix" result="effect1_dropShadow_2_2578"/>
<feBlend mode="normal" in="SourceGraphic" in2="effect1_dropShadow_2_2578" result="shape"/>
</filter>
</defs>
</svg>
