<svg width="89" height="89" viewBox="0 0 89 89" fill="none" xmlns="http://www.w3.org/2000/svg">
<g filter="url(#filter0_d_2_2572)">
<rect x="5" y="5" width="72" height="72" rx="16" fill="white" shape-rendering="crispEdges"/>
<path d="M48.8867 36.4844C48.8867 37.8776 48.5742 39.1862 47.9492 40.4102C47.3372 41.6211 46.4583 42.8125 45.3125 43.9844C44.1797 45.1432 42.8125 46.3086 41.2109 47.4805C39.6094 48.6523 37.832 49.8893 35.8789 51.1914H48.3984V55H31.6797V51.4844C34.1927 49.5052 36.276 47.7669 37.9297 46.2695C39.5964 44.7721 40.9245 43.444 41.9141 42.2852C42.9036 41.1133 43.6003 40.0716 44.0039 39.1602C44.4076 38.2357 44.6094 37.3568 44.6094 36.5234C44.6094 36.1328 44.5508 35.7161 44.4336 35.2734C44.3294 34.8177 44.1341 34.401 43.8477 34.0234C43.5612 33.6328 43.1706 33.3138 42.6758 33.0664C42.181 32.806 41.556 32.6758 40.8008 32.6758C40.0326 32.6758 39.375 32.819 38.8281 33.1055C38.2943 33.3919 37.8516 33.7565 37.5 34.1992C37.1615 34.6289 36.901 35.1107 36.7188 35.6445C36.5495 36.1784 36.4453 36.6992 36.4062 37.207H32.1289C32.2852 34.668 33.1055 32.7669 34.5898 31.5039C36.0742 30.2409 38.1836 29.6094 40.918 29.6094C42.194 29.6094 43.3268 29.7721 44.3164 30.0977C45.306 30.4232 46.1393 30.8854 46.8164 31.4844C47.4935 32.0833 48.0078 32.806 48.3594 33.6523C48.7109 34.4987 48.8867 35.4427 48.8867 36.4844Z" fill="#4440FF"/>
</g>
<defs>
<filter id="filter0_d_2_2572" x="0.227274" y="0.227274" width="87.9091" height="87.9091" filterUnits="userSpaceOnUse" color-interpolation-filters="sRGB">
<feFlood flood-opacity="0" result="BackgroundImageFix"/>
<feColorMatrix in="SourceAlpha" type="matrix" values="0 0 0 0 0 0 0 0 0 0 0 0 0 0 0 0 0 0 127 0" result="hardAlpha"/>
<feOffset dx="3.18182" dy="3.18182"/>
<feGaussianBlur stdDeviation="3.97727"/>
<feComposite in2="hardAlpha" operator="out"/>
<feColorMatrix type="matrix" values="0 0 0 0 0.458333 0 0 0 0 0.437326 0 0 0 0 0.437326 0 0 0 0.06 0"/>
<feBlend mode="normal" in2="BackgroundImageFix" result="effect1_dropShadow_2_2572"/>
<feBlend mode="normal" in="SourceGraphic" in2="effect1_dropShadow_2_2572" result="shape"/>
</filter>
</defs>
</svg>
